<svg xmlns="http://www.w3.org/2000/svg" style="display:none">

  <!-- ========== Sort arrows (tables) ========== -->
  <symbol id="icon-sort-asc" viewBox="0 0 8 5">
    <path d="M4.40962 0.585167C4.21057 0.300808 3.78943 0.300807 3.59038 0.585166L1.05071 4.21327C0.81874 4.54466 1.05582 5 1.46033 5H6.53967C6.94418 5 7.18126 4.54466 6.94929 4.21327L4.40962 0.585167Z" fill="currentColor"/>
  </symbol>
  <symbol id="icon-sort-desc" viewBox="0 0 8 5">
    <path d="M4.40962 4.41483C4.21057 4.69919 3.78943 4.69919 3.59038 4.41483L1.05071 0.786732C0.81874 0.455343 1.05582 0 1.46033 0H6.53967C6.94418 0 7.18126 0.455342 6.94929 0.786731L4.40962 4.41483Z" fill="currentColor"/>
  </symbol>

  <!-- ========== Navigation arrows ========== -->
  <symbol id="icon-chevron-right" viewBox="0 0 24 24">
    <path d="m9 18 6-6-6-6" stroke="currentColor" stroke-width="2" stroke-linecap="round" stroke-linejoin="round" fill="none"/>
  </symbol>
  <symbol id="icon-chevron-down" viewBox="0 0 20 20">
    <path d="M4.79175 8.02075L10.0001 13.2291L15.2084 8.02075" stroke="currentColor" stroke-width="1.5" stroke-linecap="round" stroke-linejoin="round" fill="none"/>
  </symbol>
  <symbol id="icon-chevron-down-alt" viewBox="0 0 20 20">
    <path d="M4.79175 7.396L10.0001 12.6043L15.2084 7.396" stroke="currentColor" stroke-width="1.5" stroke-linecap="round" stroke-linejoin="round" fill="none"/>
  </symbol>
  <symbol id="icon-chevron-left-long" viewBox="0 0 20 20">
    <path fill-rule="evenodd" clip-rule="evenodd" d="M2.58203 9.99868C2.58174 10.1909 2.6549 10.3833 2.80152 10.53L7.79818 15.5301C8.09097 15.8231 8.56584 15.8233 8.85883 15.5305C9.15183 15.2377 9.152 14.7629 8.85921 14.4699L5.13911 10.7472L16.6665 10.7472C17.0807 10.7472 17.4165 10.4114 17.4165 9.99715C17.4165 9.58294 17.0807 9.24715 16.6665 9.24715L5.14456 9.24715L8.85919 5.53016C9.15199 5.23717 9.15184 4.7623 8.85885 4.4695C8.56587 4.1767 8.09099 4.17685 7.79819 4.46984L2.84069 9.43049C2.68224 9.568 2.58203 9.77087 2.58203 9.99715C2.58203 9.99766 2.58203 9.99817 2.58203 9.99868Z" fill="currentColor"/>
  </symbol>
  <symbol id="icon-chevron-right-long" viewBox="0 0 20 20">
    <path fill-rule="evenodd" clip-rule="evenodd" d="M17.4165 9.9986C17.4168 10.1909 17.3437 10.3832 17.197 10.53L12.2004 15.5301C11.9076 15.8231 11.4327 15.8233 11.1397 15.5305C10.8467 15.2377 10.8465 14.7629 11.1393 14.4699L14.8594 10.7472L3.33203 10.7472C2.91782 10.7472 2.58203 10.4114 2.58203 9.99715C2.58203 9.58294 2.91782 9.24715 3.33203 9.24715L14.854 9.24715L11.1393 5.53016C10.8465 5.23717 10.8467 4.7623 11.1397 4.4695C11.4327 4.1767 11.9075 4.17685 12.2003 4.46984L17.1578 9.43049C17.3163 9.568 17.4165 9.77087 17.4165 9.99715C17.4165 9.99763 17.4165 9.99812 17.4165 9.9986Z" fill="currentColor"/>
  </symbol>
  <symbol id="icon-chevrons-up-down" viewBox="0 0 24 24">
    <path d="m7 15 5 5 5-5" stroke="currentColor" stroke-width="2" stroke-linecap="round" stroke-linejoin="round" fill="none"/>
    <path d="m7 9 5-5 5 5" stroke="currentColor" stroke-width="2" stroke-linecap="round" stroke-linejoin="round" fill="none"/>
  </symbol>
  <symbol id="icon-breadcrumb-arrow" viewBox="0 0 17 16">
    <path d="M6.0765 12.667L10.2432 8.50033L6.0765 4.33366" stroke="currentColor" stroke-width="1.2" stroke-linecap="round" stroke-linejoin="round" fill="none"/>
  </symbol>

  <!-- ========== Sidebar nav icons ========== -->
  <symbol id="icon-nav-dashboard" viewBox="0 0 24 24">
    <path fill-rule="evenodd" clip-rule="evenodd" d="M5.5 3.25C4.25736 3.25 3.25 4.25736 3.25 5.5V8.99998C3.25 10.2426 4.25736 11.25 5.5 11.25H9C10.2426 11.25 11.25 10.2426 11.25 8.99998V5.5C11.25 4.25736 10.2426 3.25 9 3.25H5.5ZM4.75 5.5C4.75 5.08579 5.08579 4.75 5.5 4.75H9C9.41421 4.75 9.75 5.08579 9.75 5.5V8.99998C9.75 9.41419 9.41421 9.74998 9 9.74998H5.5C5.08579 9.74998 4.75 9.41419 4.75 8.99998V5.5ZM5.5 12.75C4.25736 12.75 3.25 13.7574 3.25 15V18.5C3.25 19.7426 4.25736 20.75 5.5 20.75H9C10.2426 20.75 11.25 19.7427 11.25 18.5V15C11.25 13.7574 10.2426 12.75 9 12.75H5.5ZM4.75 15C4.75 14.5858 5.08579 14.25 5.5 14.25H9C9.41421 14.25 9.75 14.5858 9.75 15V18.5C9.75 18.9142 9.41421 19.25 9 19.25H5.5C5.08579 19.25 4.75 18.9142 4.75 18.5V15ZM12.75 5.5C12.75 4.25736 13.7574 3.25 15 3.25H18.5C19.7426 3.25 20.75 4.25736 20.75 5.5V8.99998C20.75 10.2426 19.7426 11.25 18.5 11.25H15C13.7574 11.25 12.75 10.2426 12.75 8.99998V5.5ZM15 4.75C14.5858 4.75 14.25 5.08579 14.25 5.5V8.99998C14.25 9.41419 14.5858 9.74998 15 9.74998H18.5C18.9142 9.74998 19.25 9.41419 19.25 8.99998V5.5C19.25 5.08579 18.9142 4.75 18.5 4.75H15ZM15 12.75C13.7574 12.75 12.75 13.7574 12.75 15V18.5C12.75 19.7426 13.7574 20.75 15 20.75H18.5C19.7426 20.75 20.75 19.7427 20.75 18.5V15C20.75 13.7574 19.7426 12.75 18.5 12.75H15ZM14.25 15C14.25 14.5858 14.5858 14.25 15 14.25H18.5C18.9142 14.25 19.25 14.5858 19.25 15V18.5C19.25 18.9142 18.9142 19.25 18.5 19.25H15C14.5858 19.25 14.25 18.9142 14.25 18.5V15Z" fill="currentColor"/>
  </symbol>
  <symbol id="icon-nav-chat" viewBox="0 0 24 24">
    <path d="M7.9 20A9 9 0 1 0 4 16.1L2 22Z" stroke="currentColor" stroke-width="2.5" stroke-linecap="round" stroke-linejoin="round" fill="none"/>
  </symbol>
  <symbol id="icon-nav-calendar" viewBox="0 0 24 24">
    <path fill-rule="evenodd" clip-rule="evenodd" d="M8 2C8.41421 2 8.75 2.33579 8.75 2.75V3.75H15.25V2.75C15.25 2.33579 15.5858 2 16 2C16.4142 2 16.75 2.33579 16.75 2.75V3.75H18.5C19.7426 3.75 20.75 4.75736 20.75 6V9V19C20.75 20.2426 19.7426 21.25 18.5 21.25H5.5C4.25736 21.25 3.25 20.2426 3.25 19V9V6C3.25 4.75736 4.25736 3.75 5.5 3.75H7.25V2.75C7.25 2.33579 7.58579 2 8 2ZM8 5.25H5.5C5.08579 5.25 4.75 5.58579 4.75 6V8.25H19.25V6C19.25 5.58579 18.9142 5.25 18.5 5.25H16H8ZM19.25 9.75H4.75V19C4.75 19.4142 5.08579 19.75 5.5 19.75H18.5C18.9142 19.75 19.25 19.4142 19.25 19V9.75Z" fill="currentColor"/>
  </symbol>
  <symbol id="icon-nav-user-profile" viewBox="0 0 24 24">
    <path fill-rule="evenodd" clip-rule="evenodd" d="M12 3.5C7.30558 3.5 3.5 7.30558 3.5 12C3.5 14.1526 4.3002 16.1184 5.61936 17.616C6.17279 15.3096 8.24852 13.5955 10.7246 13.5955H13.2746C15.7509 13.5955 17.8268 15.31 18.38 17.6167C19.6996 16.119 20.5 14.153 20.5 12C20.5 7.30558 16.6944 3.5 12 3.5ZM17.0246 18.8566V18.8455C17.0246 16.7744 15.3457 15.0955 13.2746 15.0955H10.7246C8.65354 15.0955 6.97461 16.7744 6.97461 18.8455V18.856C8.38223 19.8895 10.1198 20.5 12 20.5C13.8798 20.5 15.6171 19.8898 17.0246 18.8566ZM2 12C2 6.47715 6.47715 2 12 2C17.5228 2 22 6.47715 22 12C22 17.5228 17.5228 22 12 22C6.47715 22 2 17.5228 2 12ZM11.9991 7.25C10.8847 7.25 9.98126 8.15342 9.98126 9.26784C9.98126 10.3823 10.8847 11.2857 11.9991 11.2857C13.1135 11.2857 14.0169 10.3823 14.0169 9.26784C14.0169 8.15342 13.1135 7.25 11.9991 7.25ZM8.48126 9.26784C8.48126 7.32499 10.0563 5.75 11.9991 5.75C13.9419 5.75 15.5169 7.32499 15.5169 9.26784C15.5169 11.2107 13.9419 12.7857 11.9991 12.7857C10.0563 12.7857 8.48126 11.2107 8.48126 9.26784Z" fill="currentColor"/>
  </symbol>
  <symbol id="icon-nav-forms" viewBox="0 0 24 24">
    <path fill-rule="evenodd" clip-rule="evenodd" d="M5.5 3.25C4.25736 3.25 3.25 4.25736 3.25 5.5V18.5C3.25 19.7426 4.25736 20.75 5.5 20.75H18.5001C19.7427 20.75 20.7501 19.7426 20.7501 18.5V5.5C20.7501 4.25736 19.7427 3.25 18.5001 3.25H5.5ZM4.75 5.5C4.75 5.08579 5.08579 4.75 5.5 4.75H18.5001C18.9143 4.75 19.2501 5.08579 19.2501 5.5V18.5C19.2501 18.9142 18.9143 19.25 18.5001 19.25H5.5C5.08579 19.25 4.75 18.9142 4.75 18.5V5.5ZM6.25005 9.7143C6.25005 9.30008 6.58583 8.9643 7.00005 8.9643L17 8.96429C17.4143 8.96429 17.75 9.30008 17.75 9.71429C17.75 10.1285 17.4143 10.4643 17 10.4643L7.00005 10.4643C6.58583 10.4643 6.25005 10.1285 6.25005 9.7143ZM6.25005 14.2857C6.25005 13.8715 6.58583 13.5357 7.00005 13.5357H17C17.4143 13.5357 17.75 13.8715 17.75 14.2857C17.75 14.6999 17.4143 15.0357 17 15.0357H7.00005C6.58583 15.0357 6.25005 14.6999 6.25005 14.2857Z" fill="currentColor"/>
  </symbol>
  <symbol id="icon-nav-tables" viewBox="0 0 24 24">
    <path fill-rule="evenodd" clip-rule="evenodd" d="M3.25 5.5C3.25 4.25736 4.25736 3.25 5.5 3.25H18.5C19.7426 3.25 20.75 4.25736 20.75 5.5V18.5C20.75 19.7426 19.7426 20.75 18.5 20.75H5.5C4.25736 20.75 3.25 19.7426 3.25 18.5V5.5ZM5.5 4.75C5.08579 4.75 4.75 5.08579 4.75 5.5V8.58325L19.25 8.58325V5.5C19.25 5.08579 18.9142 4.75 18.5 4.75H5.5ZM19.25 10.0833H15.416V13.9165H19.25V10.0833ZM13.916 10.0833L10.083 10.0833V13.9165L13.916 13.9165V10.0833ZM8.58301 10.0833H4.75V13.9165H8.58301V10.0833ZM4.75 18.5V15.4165H8.58301V19.25H5.5C5.08579 19.25 4.75 18.9142 4.75 18.5ZM10.083 19.25V15.4165L13.916 15.4165V19.25H10.083ZM15.416 19.25V15.4165H19.25V18.5C19.25 18.9142 18.9142 19.25 18.5 19.25H15.416Z" fill="currentColor"/>
  </symbol>
  <symbol id="icon-nav-pages" viewBox="0 0 24 24">
    <path fill-rule="evenodd" clip-rule="evenodd" d="M8.50391 4.25C8.50391 3.83579 8.83969 3.5 9.25391 3.5H15.2777C15.4766 3.5 15.6674 3.57902 15.8081 3.71967L18.2807 6.19234C18.4214 6.333 18.5004 6.52376 18.5004 6.72268V16.75C18.5004 17.1642 18.1646 17.5 17.7504 17.5H16.248V17.4993H14.748V17.5H9.25391C8.83969 17.5 8.50391 17.1642 8.50391 16.75V4.25ZM14.748 19H9.25391C8.01126 19 7.00391 17.9926 7.00391 16.75V6.49854H6.24805C5.83383 6.49854 5.49805 6.83432 5.49805 7.24854V19.75C5.49805 20.1642 5.83383 20.5 6.24805 20.5H13.998C14.4123 20.5 14.748 20.1642 14.748 19.75L14.748 19ZM7.00391 4.99854V4.25C7.00391 3.00736 8.01127 2 9.25391 2H15.2777C15.8745 2 16.4468 2.23705 16.8687 2.659L19.3414 5.13168C19.7634 5.55364 20.0004 6.12594 20.0004 6.72268V16.75C20.0004 17.9926 18.9931 19 17.7504 19H16.248L16.248 19.75C16.248 20.9926 15.2407 22 13.998 22H6.24805C5.00541 22 3.99805 20.9926 3.99805 19.75V7.24854C3.99805 6.00589 5.00541 4.99854 6.24805 4.99854H7.00391Z" fill="currentColor"/>
  </symbol>
  <symbol id="icon-nav-charts" viewBox="0 0 24 24">
    <path fill-rule="evenodd" clip-rule="evenodd" d="M12 2C11.5858 2 11.25 2.33579 11.25 2.75V12C11.25 12.4142 11.5858 12.75 12 12.75H21.25C21.6642 12.75 22 12.4142 22 12C22 6.47715 17.5228 2 12 2ZM12.75 11.25V3.53263C13.2645 3.57761 13.7659 3.66843 14.25 3.80098V3.80099C15.6929 4.19606 16.9827 4.96184 18.0104 5.98959C19.0382 7.01734 19.8039 8.30707 20.199 9.75C20.3316 10.2341 20.4224 10.7355 20.4674 11.25H12.75ZM2 12C2 7.25083 5.31065 3.27489 9.75 2.25415V3.80099C6.14748 4.78734 3.5 8.0845 3.5 12C3.5 16.6944 7.30558 20.5 12 20.5C15.9155 20.5 19.2127 17.8525 20.199 14.25H21.7459C20.7251 18.6894 16.7492 22 12 22C6.47715 22 2 17.5229 2 12Z" fill="currentColor"/>
  </symbol>
  <symbol id="icon-nav-ui-elements" viewBox="0 0 24 24">
    <path fill-rule="evenodd" clip-rule="evenodd" d="M11.665 3.75618C11.8762 3.65061 12.1247 3.65061 12.3358 3.75618L18.7807 6.97853L12.3358 10.2009C12.1247 10.3064 11.8762 10.3064 11.665 10.2009L5.22014 6.97853L11.665 3.75618ZM4.29297 8.19199V16.0946C4.29297 16.3787 4.45347 16.6384 4.70757 16.7654L11.25 20.0365V11.6512C11.1631 11.6205 11.0777 11.5843 10.9942 11.5425L4.29297 8.19199ZM12.75 20.037L19.2933 16.7654C19.5474 16.6384 19.7079 16.3787 19.7079 16.0946V8.19199L13.0066 11.5425C12.9229 11.5844 12.8372 11.6207 12.75 11.6515V20.037ZM13.0066 2.41453C12.3732 2.09783 11.6277 2.09783 10.9942 2.41453L4.03676 5.89316C3.27449 6.27429 2.79297 7.05339 2.79297 7.90563V16.0946C2.79297 16.9468 3.27448 17.7259 4.03676 18.1071L10.9942 21.5857L11.3296 20.9149L10.9942 21.5857C11.6277 21.9024 12.3732 21.9024 13.0066 21.5857L19.9641 18.1071C20.7264 17.7259 21.2079 16.9468 21.2079 16.0946V7.90563C21.2079 7.05339 20.7264 6.27429 19.9641 5.89316L13.0066 2.41453Z" fill="currentColor"/>
  </symbol>
  <symbol id="icon-nav-authentication" viewBox="0 0 24 24">
    <path fill-rule="evenodd" clip-rule="evenodd" d="M14 2.75C14 2.33579 14.3358 2 14.75 2C15.1642 2 15.5 2.33579 15.5 2.75V5.73291L17.75 5.73291H19C19.4142 5.73291 19.75 6.0687 19.75 6.48291C19.75 6.89712 19.4142 7.23291 19 7.23291H18.5L18.5 12.2329C18.5 15.5691 15.9866 18.3183 12.75 18.6901V21.25C12.75 21.6642 12.4142 22 12 22C11.5858 22 11.25 21.6642 11.25 21.25V18.6901C8.01342 18.3183 5.5 15.5691 5.5 12.2329L5.5 7.23291H5C4.58579 7.23291 4.25 6.89712 4.25 6.48291C4.25 6.0687 4.58579 5.73291 5 5.73291L6.25 5.73291L8.5 5.73291L8.5 2.75C8.5 2.33579 8.83579 2 9.25 2C9.66421 2 10 2.33579 10 2.75L10 5.73291L14 5.73291V2.75ZM7 7.23291L7 12.2329C7 14.9943 9.23858 17.2329 12 17.2329C14.7614 17.2329 17 14.9943 17 12.2329L17 7.23291L7 7.23291Z" fill="currentColor"/>
  </symbol>

  <!-- ========== Action icons ========== -->
  <symbol id="icon-plus" viewBox="0 0 20 20">
    <path d="M5 10.0002H15.0006M10.0002 5V15.0006" stroke="currentColor" stroke-width="1.5" stroke-linecap="round" stroke-linejoin="round" fill="none"/>
  </symbol>
  <symbol id="icon-minus" viewBox="0 0 20 20">
    <path d="M6.66699 10H13.3337" stroke="currentColor" stroke-width="1.5" stroke-linecap="round" stroke-linejoin="round" fill="none"/>
  </symbol>
  <symbol id="icon-close" viewBox="0 0 24 24">
    <path fill-rule="evenodd" clip-rule="evenodd" d="M6.04289 16.5413C5.65237 16.9318 5.65237 17.565 6.04289 17.9555C6.43342 18.346 7.06658 18.346 7.45711 17.9555L11.9987 13.4139L16.5408 17.956C16.9313 18.3466 17.5645 18.3466 17.955 17.956C18.3455 17.5655 18.3455 16.9323 17.955 16.5418L13.4129 11.9997L17.955 7.4576C18.3455 7.06707 18.3455 6.43391 17.955 6.04338C17.5645 5.65286 16.9313 5.65286 16.5408 6.04338L11.9987 10.5855L7.45711 6.0439C7.06658 5.65338 6.43342 5.65338 6.04289 6.0439C5.65237 6.43442 5.65237 7.06759 6.04289 7.45811L10.5845 11.9997L6.04289 16.5413Z" fill="currentColor"/>
  </symbol>
  <symbol id="icon-close-x" viewBox="0 0 24 24">
    <path d="M18 6 6 18" stroke="currentColor" stroke-width="2" stroke-linecap="round" stroke-linejoin="round" fill="none"/>
    <path d="m6 6 12 12" stroke="currentColor" stroke-width="2" stroke-linecap="round" stroke-linejoin="round" fill="none"/>
  </symbol>
  <symbol id="icon-delete" viewBox="0 0 20 20">
    <path fill-rule="evenodd" clip-rule="evenodd" d="M6.54142 3.7915C6.54142 2.54886 7.54878 1.5415 8.79142 1.5415H11.2081C12.4507 1.5415 13.4581 2.54886 13.4581 3.7915V4.0415H15.6252H16.666C17.0802 4.0415 17.416 4.37729 17.416 4.7915C17.416 5.20572 17.0802 5.5415 16.666 5.5415H16.3752V8.24638V13.2464V16.2082C16.3752 17.4508 15.3678 18.4582 14.1252 18.4582H5.87516C4.63252 18.4582 3.62516 17.4508 3.62516 16.2082V13.2464V8.24638V5.5415H3.3335C2.91928 5.5415 2.5835 5.20572 2.5835 4.7915C2.5835 4.37729 2.91928 4.0415 3.3335 4.0415H4.37516H6.54142V3.7915ZM14.8752 13.2464V8.24638V5.5415H13.4581H12.7081H7.29142H6.54142H5.12516V8.24638V13.2464V16.2082C5.12516 16.6224 5.46095 16.9582 5.87516 16.9582H14.1252C14.5394 16.9582 14.8752 16.6224 14.8752 16.2082V13.2464ZM8.04142 4.0415H11.9581V3.7915C11.9581 3.37729 11.6223 3.0415 11.2081 3.0415H8.79142C8.37721 3.0415 8.04142 3.37729 8.04142 3.7915V4.0415ZM8.3335 7.99984C8.74771 7.99984 9.0835 8.33562 9.0835 8.74984V13.7498C9.0835 14.1641 8.74771 14.4998 8.3335 14.4998C7.91928 14.4998 7.5835 14.1641 7.5835 13.7498V8.74984C7.5835 8.33562 7.91928 7.99984 8.3335 7.99984ZM12.4168 8.74984C12.4168 8.33562 12.081 7.99984 11.6668 7.99984C11.2526 7.99984 10.9168 8.33562 10.9168 8.74984V13.7498C10.9168 14.1641 11.2526 14.4998 11.6668 14.4998C12.081 14.4998 12.4168 14.1641 12.4168 13.7498V8.74984Z" fill="currentColor"/>
  </symbol>
  <symbol id="icon-three-dots" viewBox="0 0 24 24">
    <path fill-rule="evenodd" clip-rule="evenodd" d="M5.99902 10.245C6.96552 10.245 7.74902 11.0285 7.74902 11.995V12.005C7.74902 12.9715 6.96552 13.755 5.99902 13.755C5.03253 13.755 4.24902 12.9715 4.24902 12.005V11.995C4.24902 11.0285 5.03253 10.245 5.99902 10.245ZM17.999 10.245C18.9655 10.245 19.749 11.0285 19.749 11.995V12.005C19.749 12.9715 18.9655 13.755 17.999 13.755C17.0325 13.755 16.249 12.9715 16.249 12.005V11.995C16.249 11.0285 17.0325 10.245 17.999 10.245ZM13.749 11.995C13.749 11.0285 12.9655 10.245 11.999 10.245C11.0325 10.245 10.249 11.0285 10.249 11.995V12.005C10.249 12.9715 11.0325 13.755 11.999 13.755C12.9655 13.755 13.749 12.9715 13.749 12.005V11.995Z" fill="currentColor"/>
  </symbol>
  <symbol id="icon-export" viewBox="0 0 20 20">
    <path d="M16.667 13.3333V15.4166C16.667 16.1069 16.1074 16.6666 15.417 16.6666H4.58295C3.89259 16.6666 3.33295 16.1069 3.33295 15.4166V13.3333M10.0013 13.3333L10.0013 3.33325M6.14547 9.47942L9.99951 13.331L13.8538 9.47942" stroke="currentColor" stroke-width="1.5" stroke-linecap="round" stroke-linejoin="round" fill="none"/>
  </symbol>
  <symbol id="icon-upload" viewBox="0 0 20 20">
    <path d="M16.6661 13.3333V15.4166C16.6661 16.1069 16.1064 16.6666 15.4161 16.6666H4.58203C3.89168 16.6666 3.33203 16.1069 3.33203 16.6666V13.3333M10.0004 3.33325L10.0004 13.3333M6.14456 7.18708L9.9986 3.33549L13.8529 7.18708" stroke="currentColor" stroke-width="1.5" stroke-linecap="round" stroke-linejoin="round" fill="none"/>
  </symbol>
  <symbol id="icon-download" viewBox="0 0 20 20">
    <path d="M17.1661 13.333V15.4163C17.1661 16.1067 16.6064 16.6663 15.9161 16.6663H5.08203C4.39168 16.6663 3.83203 16.1067 3.83203 15.4163V13.333M10.5004 13.333L10.5005 3.33301M6.64456 9.47918L10.4986 13.3308L14.3529 9.47918" stroke="currentColor" stroke-width="1.5" stroke-linecap="round" stroke-linejoin="round" fill="none"/>
  </symbol>
  <symbol id="icon-print" viewBox="0 0 20 20">
    <path fill-rule="evenodd" clip-rule="evenodd" d="M6.99578 4.08398C6.58156 4.08398 6.24578 4.41977 6.24578 4.83398V6.36733H13.7542V5.62451C13.7542 5.42154 13.672 5.22724 13.5262 5.08598L12.7107 4.29545C12.5707 4.15983 12.3835 4.08398 12.1887 4.08398H6.99578ZM15.2542 6.36902V5.62451C15.2542 5.01561 15.0074 4.43271 14.5702 4.00891L13.7547 3.21839C13.3349 2.81151 12.7733 2.58398 12.1887 2.58398H6.99578C5.75314 2.58398 4.74578 3.59134 4.74578 4.83398V6.36902C3.54391 6.41522 2.58374 7.40415 2.58374 8.61733V11.3827C2.58374 12.5959 3.54382 13.5848 4.74561 13.631V15.1665C4.74561 16.4091 5.75297 17.4165 6.99561 17.4165H13.0041C14.2467 17.4165 15.2541 16.4091 15.2541 15.1665V13.6311C16.456 13.585 17.4163 12.596 17.4163 11.3827V8.61733C17.4163 7.40414 16.4561 6.41521 15.2542 6.36902ZM4.74561 11.6217V12.1276C4.37292 12.084 4.08374 11.7671 4.08374 11.3827V8.61733C4.08374 8.20312 4.41953 7.86733 4.83374 7.86733H15.1663C15.5805 7.86733 15.9163 8.20312 15.9163 8.61733V11.3827C15.9163 11.7673 15.6269 12.0842 15.2541 12.1277V11.6217C15.2541 11.2075 14.9183 10.8717 14.5041 10.8717H5.49561C5.08139 10.8717 4.74561 11.2075 4.74561 11.6217ZM6.24561 12.3717V15.1665C6.24561 15.5807 6.58139 15.9165 6.99561 15.9165H13.0041C13.4183 15.9165 13.7541 15.5807 13.7541 15.1665V12.3717H6.24561Z" fill="currentColor"/>
  </symbol>
  <symbol id="icon-filter" viewBox="0 0 20 20">
    <path d="M14.6537 5.90414C14.6537 4.48433 13.5027 3.33331 12.0829 3.33331C10.6631 3.33331 9.51206 4.48433 9.51204 5.90415M14.6537 5.90414C14.6537 7.32398 13.5027 8.47498 12.0829 8.47498C10.663 8.47498 9.51204 7.32398 9.51204 5.90415M14.6537 5.90414L17.7087 5.90411M9.51204 5.90415L2.29199 5.90411M5.34694 14.0958C5.34694 12.676 6.49794 11.525 7.91777 11.525C9.33761 11.525 10.4886 12.676 10.4886 14.0958M5.34694 14.0958C5.34694 15.5156 6.49794 16.6666 7.91778 16.6666C9.33761 16.6666 10.4886 15.5156 10.4886 14.0958M5.34694 14.0958L2.29199 14.0958M10.4886 14.0958L17.7087 14.0958" stroke="currentColor" stroke-width="1.5" stroke-linecap="round" stroke-linejoin="round" fill="none"/>
  </symbol>
  <symbol id="icon-search" viewBox="0 0 20 20">
    <path fill-rule="evenodd" clip-rule="evenodd" d="M3.04199 9.37363C3.04199 5.87693 5.87735 3.04199 9.37533 3.04199C12.8733 3.04199 15.7087 5.87693 15.7087 9.37363C15.7087 12.8703 12.8733 15.7053 9.37533 15.7053C5.87735 15.7053 3.04199 12.8703 3.04199 9.37363ZM9.37533 1.54199C5.04926 1.54199 1.54199 5.04817 1.54199 9.37363C1.54199 13.6991 5.04926 17.2053 9.37533 17.2053C11.2676 17.2053 13.0032 16.5344 14.3572 15.4176L17.1773 18.238C17.4702 18.5309 17.945 18.5309 18.2379 18.238C18.5308 17.9451 18.5309 17.4703 18.238 17.1773L15.4182 14.3573C16.5367 13.0033 17.2087 11.2669 17.2087 9.37363C17.2087 5.04817 13.7014 1.54199 9.37533 1.54199Z" fill="currentColor"/>
  </symbol>
  <symbol id="icon-search-stroke" viewBox="0 0 24 24">
    <circle cx="11" cy="11" r="8" stroke="currentColor" stroke-width="2" fill="none"/>
    <path d="m21 21-4.3-4.3" stroke="currentColor" stroke-width="2" stroke-linecap="round" stroke-linejoin="round" fill="none"/>
  </symbol>

  <!-- ========== Checkbox & status ========== -->
  <symbol id="icon-checkmark" viewBox="0 0 12 12">
    <path d="M10 3L4.5 8.5L2 6" stroke="currentColor" stroke-width="1.6666" stroke-linecap="round" stroke-linejoin="round" fill="none"/>
  </symbol>
  <symbol id="icon-check-circle" viewBox="0 0 24 24">
    <path fill-rule="evenodd" clip-rule="evenodd" d="M3.70186 12.0001C3.70186 7.41711 7.41711 3.70186 12.0001 3.70186C16.5831 3.70186 20.2984 7.41711 20.2984 12.0001C20.2984 16.5831 16.5831 20.2984 12.0001 20.2984C7.41711 20.2984 3.70186 16.5831 3.70186 12.0001ZM12.0001 1.90186C6.423 1.90186 1.90186 6.423 1.90186 12.0001C1.90186 17.5772 6.423 22.0984 12.0001 22.0984C17.5772 22.0984 22.0984 17.5772 22.0984 12.0001C22.0984 6.423 17.5772 1.90186 12.0001 1.90186ZM15.6197 10.7395C15.9712 10.388 15.9712 9.81819 15.6197 9.46672C15.2683 9.11525 14.6984 9.11525 14.347 9.46672L11.1894 12.6243L9.6533 11.0883C9.30183 10.7368 8.73198 10.7368 8.38051 11.0883C8.02904 11.4397 8.02904 12.0096 8.38051 12.3611L10.553 14.5335C10.7217 14.7023 10.9507 14.7971 11.1894 14.7971C11.428 14.7971 11.657 14.7023 11.8257 14.5335L15.6197 10.7395Z" fill="currentColor"/>
  </symbol>
  <symbol id="icon-cross-small" viewBox="0 0 16 16">
    <path d="M4.5 11.4992L11.4986 4.50058M4.5 4.50049L11.4986 11.4991" stroke="currentColor" stroke-width="1.5" stroke-linecap="round" stroke-linejoin="round" fill="none"/>
  </symbol>

  <!-- ========== Alert icons ========== -->
  <symbol id="icon-alert-success" viewBox="0 0 24 24">
    <path fill-rule="evenodd" clip-rule="evenodd" d="M3.70186 12.0001C3.70186 7.41711 7.41711 3.70186 12.0001 3.70186C16.5831 3.70186 20.2984 7.41711 20.2984 12.0001C20.2984 16.5831 16.5831 20.2984 12.0001 20.2984C7.41711 20.2984 3.70186 16.5831 3.70186 12.0001ZM12.0001 1.90186C6.423 1.90186 1.90186 6.423 1.90186 12.0001C1.90186 17.5772 6.423 22.0984 12.0001 22.0984C17.5772 22.0984 22.0984 17.5772 22.0984 12.0001C22.0984 6.423 17.5772 1.90186 12.0001 1.90186ZM15.6197 10.7395C15.9712 10.388 15.9712 9.81819 15.6197 9.46672C15.2683 9.11525 14.6984 9.11525 14.347 9.46672L11.1894 12.6243L9.6533 11.0883C9.30183 10.7368 8.73198 10.7368 8.38051 11.0883C8.02904 11.4397 8.02904 12.0096 8.38051 12.3611L10.553 14.5335C10.7217 14.7023 10.9507 14.7971 11.1894 14.7971C11.428 14.7971 11.657 14.7023 11.8257 14.5335L15.6197 10.7395Z" fill="currentColor"/>
  </symbol>
  <symbol id="icon-alert-error" viewBox="0 0 24 24">
    <path fill-rule="evenodd" clip-rule="evenodd" d="M20.3499 12.0004C20.3499 16.612 16.6115 20.3504 11.9999 20.3504C7.38832 20.3504 3.6499 16.612 3.6499 12.0004C3.6499 7.38881 7.38833 3.65039 11.9999 3.65039C16.6115 3.65039 20.3499 7.38881 20.3499 12.0004ZM11.9999 22.1504C17.6056 22.1504 22.1499 17.6061 22.1499 12.0004C22.1499 6.3947 17.6056 1.85039 11.9999 1.85039C6.39421 1.85039 1.8499 6.3947 1.8499 12.0004C1.8499 17.6061 6.39421 22.1504 11.9999 22.1504ZM13.0008 16.4753C13.0008 15.923 12.5531 15.4753 12.0008 15.4753L11.9998 15.4753C11.4475 15.4753 10.9998 15.923 10.9998 16.4753C10.9998 17.0276 11.4475 17.4753 11.9998 17.4753L12.0008 17.4753C12.5531 17.4753 13.0008 17.0276 13.0008 16.4753ZM11.9998 6.62898C12.414 6.62898 12.7498 6.96476 12.7498 7.37898L12.7498 13.0555C12.7498 13.4697 12.414 13.8055 11.9998 13.8055C11.5856 13.8055 11.2498 13.4697 11.2498 13.0555L11.2498 7.37898C11.2498 6.96476 11.5856 6.62898 11.9998 6.62898Z" fill="currentColor"/>
  </symbol>
  <symbol id="icon-alert-warning" viewBox="0 0 24 24">
    <path fill-rule="evenodd" clip-rule="evenodd" d="M3.6501 12.0001C3.6501 7.38852 7.38852 3.6501 12.0001 3.6501C16.6117 3.6501 20.3501 7.38852 20.3501 12.0001C20.3501 16.6117 16.6117 20.3501 12.0001 20.3501C7.38852 20.3501 3.6501 16.6117 3.6501 12.0001ZM12.0001 1.8501C6.39441 1.8501 1.8501 6.39441 1.8501 12.0001C1.8501 17.6058 6.39441 22.1501 12.0001 22.1501C17.6058 22.1501 22.1501 17.6058 22.1501 12.0001C22.1501 6.39441 17.6058 1.8501 12.0001 1.8501ZM10.9992 7.52517C10.9992 8.07746 11.4469 8.52517 11.9992 8.52517H12.0002C12.5525 8.52517 13.0002 8.07746 13.0002 7.52517C13.0002 6.97289 12.5525 6.52517 12.0002 6.52517H11.9992C11.4469 6.52517 10.9992 6.97289 10.9992 7.52517ZM12.0002 17.3715C11.586 17.3715 11.2502 17.0357 11.2502 16.6215V10.945C11.2502 10.5308 11.586 10.195 12.0002 10.195C12.4144 10.195 12.7502 10.5308 12.7502 10.945V16.6215C12.7502 17.0357 12.4144 17.3715 12.0002 17.3715Z" fill="currentColor"/>
  </symbol>
  <symbol id="icon-alert-info" viewBox="0 0 24 24">
    <path fill-rule="evenodd" clip-rule="evenodd" d="M3.6501 11.9996C3.6501 7.38803 7.38852 3.64961 12.0001 3.64961C16.6117 3.64961 20.3501 7.38803 20.3501 11.9996C20.3501 16.6112 16.6117 20.3496 12.0001 20.3496C7.38852 20.3496 3.6501 16.6112 3.6501 11.9996ZM12.0001 1.84961C6.39441 1.84961 1.8501 6.39392 1.8501 11.9996C1.8501 17.6053 6.39441 22.1496 12.0001 22.1496C17.6058 22.1496 22.1501 17.6053 22.1501 11.9996C22.1501 6.39392 17.6058 1.84961 12.0001 1.84961ZM10.9992 7.52468C10.9992 8.07697 11.4469 8.52468 11.9992 8.52468H12.0002C12.5525 8.52468 13.0002 8.07697 13.0002 7.52468C13.0002 6.9724 12.5525 6.52468 12.0002 6.52468H11.9992C11.4469 6.52468 10.9992 6.9724 10.9992 7.52468ZM12.0002 17.371C11.586 17.371 11.2502 17.0352 11.2502 16.621V10.9445C11.2502 10.5303 11.586 10.1945 12.0002 10.1945C12.4144 10.1945 12.7502 10.5303 12.7502 10.9445V16.621C12.7502 17.0352 12.4144 17.371 12.0002 17.371Z" fill="currentColor"/>
  </symbol>

  <!-- ========== Modal alert icons (large, 38x38 viewBox) ========== -->
  <symbol id="icon-modal-success" viewBox="0 0 38 38">
    <path fill-rule="evenodd" clip-rule="evenodd" d="M5.9375 19.0004C5.9375 11.7854 11.7864 5.93652 19.0014 5.93652C26.2164 5.93652 32.0653 11.7854 32.0653 19.0004C32.0653 26.2154 26.2164 32.0643 19.0014 32.0643C11.7864 32.0643 5.9375 26.2154 5.9375 19.0004ZM19.0014 2.93652C10.1296 2.93652 2.9375 10.1286 2.9375 19.0004C2.9375 27.8723 10.1296 35.0643 19.0014 35.0643C27.8733 35.0643 35.0653 27.8723 35.0653 19.0004C35.0653 10.1286 27.8733 2.93652 19.0014 2.93652ZM24.7855 17.0575C25.3713 16.4717 25.3713 15.522 24.7855 14.9362C24.1997 14.3504 23.25 14.3504 22.6642 14.9362L17.7177 19.8827L15.3387 17.5037C14.7529 16.9179 13.8031 16.9179 13.2173 17.5037C12.6316 18.0894 12.6316 19.0392 13.2173 19.625L16.657 23.0647C16.9383 23.346 17.3199 23.504 17.7177 23.504C18.1155 23.504 18.4971 23.346 18.7784 23.0647L24.7855 17.0575Z" fill="currentColor"/>
  </symbol>
  <symbol id="icon-modal-error" viewBox="0 0 38 38">
    <path fill-rule="evenodd" clip-rule="evenodd" d="M5.85547 18.9998C5.85547 11.7396 11.7411 5.854 19.0013 5.854C26.2615 5.854 32.1471 11.7396 32.1471 18.9998C32.1471 26.2601 26.2615 32.1457 19.0013 32.1457C11.7411 32.1457 5.85547 26.2601 5.85547 18.9998ZM19.0013 2.854C10.0842 2.854 2.85547 10.0827 2.85547 18.9998C2.85547 27.9169 10.0842 35.1457 19.0013 35.1457C27.9184 35.1457 35.1471 27.9169 35.1471 18.9998C35.1471 10.0827 27.9184 2.854 19.0013 2.854ZM9.62684 11.7496C9.04105 11.1638 9.04105 10.2141 9.62684 9.6283C10.2126 9.04252 11.1624 9.04252 11.7482 9.6283L18.9985 16.8786L26.2485 9.62851C26.8343 9.04273 27.7841 9.04273 28.3699 9.62851C28.9556 10.2143 28.9556 11.164 28.3699 11.7498L21.1198 18.9999L28.3699 26.25C28.9556 26.8358 28.9556 27.7855 28.3699 28.3713C27.7841 28.9571 26.8343 28.9571 26.2485 28.3713L18.9985 21.1212L11.7482 28.3715C11.1624 28.9573 10.2126 28.9573 9.62684 28.3715C9.04105 27.7857 9.04105 26.836 9.62684 26.2502L16.8771 18.9999L9.62684 11.7496Z" fill="currentColor"/>
  </symbol>
  <symbol id="icon-modal-warning" viewBox="0 0 38 38">
    <path fill-rule="evenodd" clip-rule="evenodd" d="M32.1445 19.0002C32.1445 26.2604 26.2589 32.146 18.9987 32.146C11.7385 32.146 5.85287 26.2604 5.85287 19.0002C5.85287 11.7399 11.7385 5.85433 18.9987 5.85433C26.2589 5.85433 32.1445 11.7399 32.1445 19.0002ZM18.9987 35.146C27.9158 35.146 35.1445 27.9173 35.1445 19.0002C35.1445 10.0831 27.9158 2.85433 18.9987 2.85433C10.0816 2.85433 2.85287 10.0831 2.85287 19.0002C2.85287 27.9173 10.0816 35.146 18.9987 35.146ZM21.0001 26.0855C21.0001 24.9809 20.1047 24.0855 19.0001 24.0855L18.9985 24.0855C17.894 24.0855 16.9985 24.9809 16.9985 26.0855C16.9985 27.19 17.894 28.0855 18.9985 28.0855L19.0001 28.0855C20.1047 28.0855 21.0001 27.19 21.0001 26.0855ZM18.9986 10.1829C19.827 10.1829 20.4986 10.8545 20.4986 11.6829L20.4986 20.6707C20.4986 21.4992 19.827 22.1707 18.9986 22.1707C18.1701 22.1707 17.4986 21.4992 17.4986 20.6707L17.4986 11.6829C17.4986 10.8545 18.1701 10.1829 18.9986 10.1829Z" fill="currentColor"/>
  </symbol>
  <symbol id="icon-modal-info" viewBox="0 0 38 38">
    <path fill-rule="evenodd" clip-rule="evenodd" d="M5.85547 18.9998C5.85547 11.7396 11.7411 5.854 19.0013 5.854C26.2615 5.854 32.1471 11.7396 32.1471 18.9998C32.1471 26.2601 26.2615 32.1457 19.0013 32.1457C11.7411 32.1457 5.85547 26.2601 5.85547 18.9998ZM19.0013 2.854C10.0842 2.854 2.85547 10.0827 2.85547 18.9998C2.85547 27.9169 10.0842 35.1457 19.0013 35.1457C27.9184 35.1457 35.1471 27.9169 35.1471 18.9998C35.1471 10.0827 27.9184 2.854 19.0013 2.854ZM16.9999 11.9145C16.9999 13.0191 17.8953 13.9145 18.9999 13.9145H19.0015C20.106 13.9145 21.0015 13.0191 21.0015 11.9145C21.0015 10.81 20.106 9.91454 19.0015 9.91454H18.9999C17.8953 9.91454 16.9999 10.81 16.9999 11.9145ZM19.0014 27.8171C18.173 27.8171 17.5014 27.1455 17.5014 26.3171V17.3293C17.5014 16.5008 18.173 15.8293 19.0014 15.8293C19.8299 15.8293 20.5014 16.5008 20.5014 17.3293L20.5014 26.3171C20.5014 27.1455 19.8299 27.8171 19.0014 27.8171Z" fill="currentColor"/>
  </symbol>

  <!-- ========== Metric icons ========== -->
  <symbol id="icon-group" viewBox="0 0 24 24">
    <path fill-rule="evenodd" clip-rule="evenodd" d="M8.80443 5.60156C7.59109 5.60156 6.60749 6.58517 6.60749 7.79851C6.60749 9.01185 7.59109 9.99545 8.80443 9.99545C10.0178 9.99545 11.0014 9.01185 11.0014 7.79851C11.0014 6.58517 10.0178 5.60156 8.80443 5.60156ZM5.10749 7.79851C5.10749 5.75674 6.76267 4.10156 8.80443 4.10156C10.8462 4.10156 12.5014 5.75674 12.5014 7.79851C12.5014 9.84027 10.8462 11.4955 8.80443 11.4955C6.76267 11.4955 5.10749 9.84027 5.10749 7.79851ZM4.86252 15.3208C4.08769 16.0881 3.70377 17.0608 3.51705 17.8611C3.48384 18.0034 3.5211 18.1175 3.60712 18.2112C3.70161 18.3141 3.86659 18.3987 4.07591 18.3987H13.4249C13.6343 18.3987 13.7992 18.3141 13.8937 18.2112C13.9797 18.1175 14.017 18.0034 13.9838 17.8611C13.7971 17.0608 13.4132 16.0881 12.6383 15.3208C11.8821 14.572 10.6899 13.955 8.75042 13.955C6.81096 13.955 5.61877 14.572 4.86252 15.3208ZM3.8071 14.2549C4.87163 13.2009 6.45602 12.455 8.75042 12.455C11.0448 12.455 12.6292 13.2009 13.6937 14.2549C14.7397 15.2906 15.2207 16.5607 15.4446 17.5202C15.7658 18.8971 14.6071 19.8987 13.4249 19.8987H4.07591C2.89369 19.8987 1.73504 18.8971 2.05628 17.5202C2.28015 16.5607 2.76117 15.2906 3.8071 14.2549ZM15.3042 11.4955C14.4702 11.4955 13.7006 11.2193 13.0821 10.7533C13.3742 10.3314 13.6054 9.86419 13.7632 9.36432C14.1597 9.75463 14.7039 9.99545 15.3042 9.99545C16.5176 9.99545 17.5012 9.01185 17.5012 7.79851C17.5012 6.58517 16.5176 5.60156 15.3042 5.60156C14.7039 5.60156 14.1597 5.84239 13.7632 6.23271C13.6054 5.73284 13.3741 5.26561 13.082 4.84371C13.7006 4.37777 14.4702 4.10156 15.3042 4.10156C17.346 4.10156 19.0012 5.75674 19.0012 7.79851C19.0012 9.84027 17.346 11.4955 15.3042 11.4955ZM19.9248 19.8987H16.3901C16.7014 19.4736 16.9159 18.969 16.9827 18.3987H19.9248C20.1341 18.3987 20.2991 18.3141 20.3936 18.2112C20.4796 18.1175 20.5169 18.0034 20.4837 17.861C20.2969 17.0607 19.913 16.088 19.1382 15.3208C18.4047 14.5945 17.261 13.9921 15.4231 13.9566C15.2232 13.6945 14.9995 13.437 14.7491 13.1891C14.5144 12.9566 14.262 12.7384 13.9916 12.5362C14.3853 12.4831 14.8044 12.4549 15.2503 12.4549C17.5447 12.4549 19.1291 13.2008 20.1936 14.2549C21.2395 15.2906 21.7206 16.5607 21.9444 17.5202C22.2657 18.8971 21.107 19.8987 19.9248 19.8987Z" fill="currentColor"/>
  </symbol>
  <symbol id="icon-box-line" viewBox="0 0 24 24">
    <path fill-rule="evenodd" clip-rule="evenodd" d="M11.665 3.75621C11.8762 3.65064 12.1247 3.65064 12.3358 3.75621L18.7807 6.97856L12.3358 10.2009C12.1247 10.3065 11.8762 10.3065 11.665 10.2009L5.22014 6.97856L11.665 3.75621ZM4.29297 8.19203V16.0946C4.29297 16.3787 4.45347 16.6384 4.70757 16.7654L11.25 20.0366V11.6513C11.1631 11.6205 11.0777 11.5843 10.9942 11.5426L4.29297 8.19203ZM12.75 20.037L19.2933 16.7654C19.5474 16.6384 19.7079 16.3787 19.7079 16.0946V8.19202L13.0066 11.5426C12.9229 11.5844 12.8372 11.6208 12.75 11.6516V20.037ZM13.0066 2.41456C12.3732 2.09786 11.6277 2.09786 10.9942 2.41456L4.03676 5.89319C3.27449 6.27432 2.79297 7.05342 2.79297 7.90566V16.0946C2.79297 16.9469 3.27448 17.726 4.03676 18.1071L10.9942 21.5857L11.3296 20.9149L10.9942 21.5857C11.6277 21.9024 12.3732 21.9024 13.0066 21.5857L19.9641 18.1071C20.7264 17.726 21.2079 16.9469 21.2079 16.0946V7.90566C21.2079 7.05342 20.7264 6.27432 19.9641 5.89319L13.0066 2.41456Z" fill="currentColor"/>
  </symbol>
  <symbol id="icon-arrow-up" viewBox="0 0 13 12">
    <path fill-rule="evenodd" clip-rule="evenodd" d="M6.06462 1.62393C6.20193 1.47072 6.40135 1.37432 6.62329 1.37432C6.6236 1.37432 6.62391 1.37432 6.62422 1.37432C6.81631 1.37415 7.00845 1.44731 7.15505 1.5938L10.1551 4.5918C10.4481 4.88459 10.4483 5.35946 10.1555 5.65246C9.86273 5.94546 9.38785 5.94562 9.09486 5.65283L7.37329 3.93247L7.37329 10.125C7.37329 10.5392 7.03751 10.875 6.62329 10.875C6.20908 10.875 5.87329 10.5392 5.87329 10.125L5.87329 3.93578L4.15516 5.65281C3.86218 5.94561 3.3873 5.94546 3.0945 5.65248C2.8017 5.35949 2.80185 4.88462 3.09484 4.59182L6.06462 1.62393Z" fill="currentColor"/>
  </symbol>
  <symbol id="icon-arrow-down" viewBox="0 0 12 12">
    <path fill-rule="evenodd" clip-rule="evenodd" d="M5.31462 10.3761C5.45194 10.5293 5.65136 10.6257 5.87329 10.6257C5.8736 10.6257 5.8739 10.6257 5.87421 10.6257C6.0663 10.6259 6.25845 10.5527 6.40505 10.4062L9.40514 7.4082C9.69814 7.11541 9.69831 6.64054 9.40552 6.34754C9.11273 6.05454 8.63785 6.05438 8.34486 6.34717L6.62329 8.06753L6.62329 1.875C6.62329 1.46079 6.28751 1.125 5.87329 1.125C5.45908 1.125 5.12329 1.46079 5.12329 1.875L5.12329 8.06422L3.40516 6.34719C3.11218 6.05439 2.6373 6.05454 2.3445 6.34752C2.0517 6.64051 2.05185 7.11538 2.34484 7.40818L5.31462 10.3761Z" fill="currentColor"/>
  </symbol>

  <!-- ========== Theme ========== -->
  <symbol id="icon-sun" viewBox="0 0 24 24">
    <circle cx="12" cy="12" r="4" stroke="currentColor" stroke-width="2" fill="none"/>
    <path d="M12 2v2" stroke="currentColor" stroke-width="2" stroke-linecap="round" stroke-linejoin="round" fill="none"/>
    <path d="M12 20v2" stroke="currentColor" stroke-width="2" stroke-linecap="round" stroke-linejoin="round" fill="none"/>
    <path d="m4.93 4.93 1.41 1.41" stroke="currentColor" stroke-width="2" stroke-linecap="round" stroke-linejoin="round" fill="none"/>
    <path d="m17.66 17.66 1.41 1.41" stroke="currentColor" stroke-width="2" stroke-linecap="round" stroke-linejoin="round" fill="none"/>
    <path d="M2 12h2" stroke="currentColor" stroke-width="2" stroke-linecap="round" stroke-linejoin="round" fill="none"/>
    <path d="M20 12h2" stroke="currentColor" stroke-width="2" stroke-linecap="round" stroke-linejoin="round" fill="none"/>
    <path d="m6.34 17.66-1.41 1.41" stroke="currentColor" stroke-width="2" stroke-linecap="round" stroke-linejoin="round" fill="none"/>
    <path d="m19.07 4.93-1.41 1.41" stroke="currentColor" stroke-width="2" stroke-linecap="round" stroke-linejoin="round" fill="none"/>
  </symbol>
  <symbol id="icon-moon" viewBox="0 0 24 24">
    <path d="M12 3a6 6 0 0 0 9 9 9 9 0 1 1-9-9Z" stroke="currentColor" stroke-width="2" stroke-linecap="round" stroke-linejoin="round" fill="none"/>
  </symbol>

  <!-- ========== Header / layout ========== -->
  <symbol id="icon-sidebar-toggle" viewBox="0 0 24 24">
    <rect width="18" height="18" x="3" y="3" rx="2" stroke="currentColor" stroke-width="2" fill="none"/>
    <path d="M9 3v18" stroke="currentColor" stroke-width="2" fill="none"/>
  </symbol>
  <symbol id="icon-bell" viewBox="0 0 24 24">
    <path d="M6 8a6 6 0 0 1 12 0c0 7 3 9 3 9H3s3-2 3-9" stroke="currentColor" stroke-width="2" stroke-linecap="round" stroke-linejoin="round" fill="none"/>
    <path d="M10.3 21a1.94 1.94 0 0 0 3.4 0" stroke="currentColor" stroke-width="2" stroke-linecap="round" stroke-linejoin="round" fill="none"/>
  </symbol>
  <symbol id="icon-user" viewBox="0 0 24 24">
    <path d="M19 21v-2a4 4 0 0 0-4-4H9a4 4 0 0 0-4 4v2" stroke="currentColor" stroke-width="2" stroke-linecap="round" stroke-linejoin="round" fill="none"/>
    <circle cx="12" cy="7" r="4" stroke="currentColor" stroke-width="2" fill="none"/>
  </symbol>
  <symbol id="icon-billing" viewBox="0 0 24 24">
    <rect width="20" height="14" x="2" y="5" rx="2" stroke="currentColor" stroke-width="2" fill="none"/>
    <path d="M2 10h20" stroke="currentColor" stroke-width="2" fill="none"/>
  </symbol>
  <symbol id="icon-settings" viewBox="0 0 24 24">
    <path d="M12.22 2h-.44a2 2 0 0 0-2 2v.18a2 2 0 0 1-1 1.73l-.43.25a2 2 0 0 1-2 0l-.15-.08a2 2 0 0 0-2.73.73l-.22.38a2 2 0 0 0 .73 2.73l.15.1a2 2 0 0 1 1 1.72v.51a2 2 0 0 1-1 1.74l-.15.09a2 2 0 0 0-.73 2.73l.22.38a2 2 0 0 0 2.73.73l.15-.08a2 2 0 0 1 2 0l.43.25a2 2 0 0 1 1 1.73V20a2 2 0 0 0 2 2h.44a2 2 0 0 0 2-2v-.18a2 2 0 0 1 1-1.73l.43-.25a2 2 0 0 1 2 0l.15.08a2 2 0 0 0 2.73-.73l.22-.39a2 2 0 0 0-.73-2.73l-.15-.08a2 2 0 0 1-1-1.74v-.5a2 2 0 0 1 1-1.74l.15-.09a2 2 0 0 0 .73-2.73l-.22-.38a2 2 0 0 0-2.73-.73l-.15.08a2 2 0 0 1-2 0l-.43-.25a2 2 0 0 1-1-1.73V4a2 2 0 0 0-2-2z" stroke="currentColor" stroke-width="2" stroke-linecap="round" stroke-linejoin="round" fill="none"/>
    <circle cx="12" cy="12" r="3" stroke="currentColor" stroke-width="2" fill="none"/>
  </symbol>
  <symbol id="icon-sign-out" viewBox="0 0 24 24">
    <path d="M9 21H5a2 2 0 0 1-2-2V5a2 2 0 0 1 2-2h4" stroke="currentColor" stroke-width="2" stroke-linecap="round" stroke-linejoin="round" fill="none"/>
    <polyline points="16 17 21 12 16 7" stroke="currentColor" stroke-width="2" stroke-linecap="round" stroke-linejoin="round" fill="none"/>
    <line x1="21" x2="9" y1="12" y2="12" stroke="currentColor" stroke-width="2" stroke-linecap="round" stroke-linejoin="round" fill="none"/>
  </symbol>
  <symbol id="icon-star" viewBox="0 0 24 24">
    <polygon points="12 2 15.09 8.26 22 9.27 17 14.14 18.18 21.02 12 17.77 5.82 21.02 7 14.14 2 9.27 8.91 8.26 12 2" stroke="currentColor" stroke-width="2" stroke-linecap="round" stroke-linejoin="round" fill="none"/>
  </symbol>
  <symbol id="icon-hamburger" viewBox="0 0 24 24">
    <path d="M4 6L20 6M4 18L20 18M4 12L20 12" stroke="currentColor" stroke-width="2" stroke-linecap="round" stroke-linejoin="round" fill="none"/>
  </symbol>

  <!-- ========== Form icons ========== -->
  <symbol id="icon-eye" viewBox="0 0 20 20">
    <path fill-rule="evenodd" clip-rule="evenodd" d="M10.0002 13.8619C7.23361 13.8619 4.86803 12.1372 3.92328 9.70241C4.86804 7.26761 7.23361 5.54297 10.0002 5.54297C12.7667 5.54297 15.1323 7.26762 16.0771 9.70243C15.1323 12.1372 12.7667 13.8619 10.0002 13.8619ZM10.0002 4.04297C6.48191 4.04297 3.49489 6.30917 2.4155 9.4593C2.3615 9.61687 2.3615 9.78794 2.41549 9.94552C3.49488 13.0957 6.48191 15.3619 10.0002 15.3619C13.5184 15.3619 16.5055 13.0957 17.5849 9.94555C17.6389 9.78797 17.6389 9.6169 17.5849 9.45932C16.5055 6.30919 13.5184 4.04297 10.0002 4.04297ZM9.99151 7.84413C8.96527 7.84413 8.13333 8.67606 8.13333 9.70231C8.13333 10.7286 8.96527 11.5605 9.99151 11.5605H10.0064C11.0326 11.5605 11.8646 10.7286 11.8646 9.70231C11.8646 8.67606 11.0326 7.84413 10.0064 7.84413H9.99151Z" fill="currentColor"/>
  </symbol>
  <symbol id="icon-eye-off" viewBox="0 0 20 20">
    <path fill-rule="evenodd" clip-rule="evenodd" d="M4.63803 3.57709C4.34513 3.2842 3.87026 3.2842 3.57737 3.57709C3.28447 3.86999 3.28447 4.34486 3.57737 4.63775L4.85323 5.91362C3.74609 6.84199 2.89363 8.06395 2.4155 9.45936C2.3615 9.61694 2.3615 9.78801 2.41549 9.94558C3.49488 13.0957 6.48191 15.3619 10.0002 15.3619C11.255 15.3619 12.4422 15.0737 13.4994 14.5598L15.3625 16.4229C15.6554 16.7158 16.1302 16.7158 16.4231 16.4229C16.716 16.13 16.716 15.6551 16.4231 15.3622L4.63803 3.57709ZM12.3608 13.4212L10.4475 11.5079C10.3061 11.5423 10.1584 11.5606 10.0064 11.5606H9.99151C8.96527 11.5606 8.13333 10.7286 8.13333 9.70237C8.13333 9.5461 8.15262 9.39434 8.18895 9.24933L5.91885 6.97923C5.03505 7.69015 4.34057 8.62704 3.92328 9.70247C4.86803 12.1373 7.23361 13.8619 10.0002 13.8619C10.8326 13.8619 11.6287 13.7058 12.3608 13.4212ZM16.0771 9.70249C15.7843 10.4569 15.3552 11.1432 14.8199 11.7311L15.8813 12.7925C16.6329 11.9813 17.2187 11.0143 17.5849 9.94561C17.6389 9.78803 17.6389 9.61696 17.5849 9.45938C16.5055 6.30925 13.5184 4.04303 10.0002 4.04303C9.13525 4.04303 8.30244 4.17999 7.52218 4.43338L8.75139 5.66259C9.1556 5.58413 9.57311 5.54303 10.0002 5.54303C12.7667 5.54303 15.1323 7.26768 16.0771 9.70249Z" fill="currentColor"/>
  </symbol>
  <symbol id="icon-calendar-input" viewBox="0 0 20 20">
    <path fill-rule="evenodd" clip-rule="evenodd" d="M6.66699 1.5415C7.08121 1.5415 7.41699 1.87729 7.41699 2.2915V3.04199H12.5837V2.2915C12.5837 1.87729 12.9195 1.5415 13.3337 1.5415C13.7479 1.5415 14.0837 1.87729 14.0837 2.2915V3.04199H15.417C16.6596 3.04199 17.667 4.04935 17.667 5.29199V7.50033V15.4163C17.667 16.659 16.6596 17.6663 15.417 17.6663H4.58366C3.34102 17.6663 2.33366 16.659 2.33366 15.4163V7.50033V5.29199C2.33366 4.04935 3.34102 3.04199 4.58366 3.04199H5.91699V2.2915C5.91699 1.87729 6.25278 1.5415 6.66699 1.5415ZM5.91699 4.54199H4.58366C4.16944 4.54199 3.83366 4.87778 3.83366 5.29199V6.75033H16.167V5.29199C16.167 4.87778 15.8312 4.54199 15.417 4.54199H14.0837H6.66699H5.91699ZM16.167 8.25033H3.83366V15.4163C3.83366 15.8306 4.16944 16.1663 4.58366 16.1663H15.417C15.8312 16.1663 16.167 15.8306 16.167 15.4163V8.25033Z" fill="currentColor"/>
  </symbol>
  <symbol id="icon-clock" viewBox="0 0 20 20">
    <path fill-rule="evenodd" clip-rule="evenodd" d="M3.04175 9.99984C3.04175 6.15686 6.1571 3.0415 10.0001 3.0415C13.8431 3.0415 16.9584 6.15686 16.9584 9.99984C16.9584 13.8428 13.8431 16.9582 10.0001 16.9582C6.1571 16.9582 3.04175 13.8428 3.04175 9.99984ZM10.0001 1.5415C5.32867 1.5415 1.54175 5.32843 1.54175 9.99984C1.54175 14.6712 5.32867 18.4582 10.0001 18.4582C14.6715 18.4582 18.4584 14.6712 18.4584 9.99984C18.4584 5.32843 14.6715 1.5415 10.0001 1.5415ZM9.99998 10.7498C9.58577 10.7498 9.24998 10.4141 9.24998 9.99984V5.4165C9.24998 5.00229 9.58577 4.6665 9.99998 4.6665C10.4142 4.6665 10.75 5.00229 10.75 5.4165V9.24984H13.3334C13.7476 9.24984 14.0834 9.58562 14.0834 9.99984C14.0834 10.4141 13.7476 10.7498 13.3334 10.7498H10.0001H9.99998Z" fill="currentColor"/>
  </symbol>

  <!-- ========== Chat ========== -->
  <symbol id="icon-send" viewBox="0 0 24 24">
    <path d="M14.536 21.686a.5.5 0 0 0 .937-.024l6.5-19a.496.496 0 0 0-.635-.635l-19 6.5a.5.5 0 0 0-.024.937l7.93 3.18a2 2 0 0 1 1.112 1.11z" stroke="currentColor" stroke-width="2" stroke-linecap="round" stroke-linejoin="round" fill="none"/>
    <path d="m21.854 2.147-10.94 10.939" stroke="currentColor" stroke-width="2" stroke-linecap="round" stroke-linejoin="round" fill="none"/>
  </symbol>
  <symbol id="icon-paperclip" viewBox="0 0 24 24">
    <path d="m21.44 11.05-9.19 9.19a6 6 0 0 1-8.49-8.49l8.57-8.57A4 4 0 1 1 18 8.84l-8.59 8.57a2 2 0 0 1-2.83-2.83l8.49-8.48" stroke="currentColor" stroke-width="2" stroke-linecap="round" stroke-linejoin="round" fill="none"/>
  </symbol>
  <symbol id="icon-arrow-up-send" viewBox="0 0 20 20">
    <path d="M9.99674 3.33252L9.99675 16.667M5 8.32918L9.99984 3.33252L15 8.32918" stroke="currentColor" stroke-width="1.5" stroke-linecap="round" stroke-linejoin="round" fill="none"/>
  </symbol>
  <symbol id="icon-chevron-left" viewBox="0 0 24 24">
    <path d="m12 19-7-7 7-7" stroke="currentColor" stroke-width="2" stroke-linecap="round" stroke-linejoin="round" fill="none"/>
    <path d="M19 12H5" stroke="currentColor" stroke-width="2" stroke-linecap="round" stroke-linejoin="round" fill="none"/>
  </symbol>

  <!-- ========== Social / Auth ========== -->
  <symbol id="icon-facebook" viewBox="0 0 20 20">
    <path d="M11.6666 11.2503H13.7499L14.5833 7.91699H11.6666V6.25033C11.6666 5.39251 11.6666 4.58366 13.3333 4.58366H14.5833V1.78374C14.3118 1.7477 13.2858 1.66699 12.2023 1.66699C9.94025 1.66699 8.33325 3.04771 8.33325 5.58342V7.91699H5.83325V11.2503H8.33325V18.3337H11.6666V11.2503Z" fill="currentColor"/>
  </symbol>
  <symbol id="icon-x-twitter" viewBox="0 0 20 20">
    <path d="M15.1708 1.875H17.9274L11.9049 8.75833L18.9899 18.125H13.4424L9.09742 12.4442L4.12578 18.125H1.36745L7.80912 10.7625L1.01245 1.875H6.70078L10.6283 7.0675L15.1708 1.875ZM14.2033 16.475H15.7308L5.87078 3.43833H4.23162L14.2033 16.475Z" fill="currentColor"/>
  </symbol>
  <symbol id="icon-github" viewBox="0 0 20 20">
    <path fill-rule="evenodd" clip-rule="evenodd" d="M10 0c-5.523 0-10 4.477-10 10 0 4.418 2.865 8.167 6.839 9.489.5.092.661-.217.661-.482 0-.237-.009-.866-.013-1.7-2.782.604-3.369-1.342-3.369-1.342-.454-1.155-1.11-1.462-1.11-1.462-.908-.62.069-.608.069-.608 1.004.07 1.532 1.031 1.532 1.031.892 1.528 2.341 1.087 2.91.832.092-.647.35-1.088.636-1.338-2.22-.253-4.555-1.113-4.555-4.951 0-1.093.39-1.988 1.029-2.688-.103-.253-.446-1.272.098-2.65 0 0 .84-.27 2.75 1.026A9.564 9.564 0 0110 4.844c.85.004 1.705.114 2.504.337 1.909-1.296 2.748-1.026 2.748-1.026.546 1.378.203 2.397.1 2.65.64.7 1.028 1.595 1.028 2.688 0 3.848-2.339 4.695-4.566 4.943.359.309.678.92.678 1.855 0 1.338-.012 2.419-.012 2.747 0 .268.18.58.688.482A10.019 10.019 0 0020 10c0-5.523-4.477-10-10-10z" fill="currentColor"/>
  </symbol>

  <!-- ========== Cards & misc ========== -->
  <symbol id="icon-link" viewBox="0 0 16 16">
    <path fill-rule="evenodd" clip-rule="evenodd" d="M6.88029 3.10905C8.54002 1.44932 11.231 1.44933 12.8907 3.10906C14.5504 4.76878 14.5504 7.45973 12.8907 9.11946L12.0654 9.94479L11.0047 8.88413L11.83 8.0588C12.904 6.98486 12.904 5.24366 11.83 4.16972C10.7561 3.09577 9.01489 3.09577 7.94095 4.16971L7.11562 4.99504L6.05496 3.93438L6.88029 3.10905ZM8.88339 11.0055L9.94405 12.0661L9.11946 12.8907C7.45973 14.5504 4.76878 14.5504 3.10905 12.8907C1.44933 11.231 1.44933 8.54002 3.10905 6.88029L3.93364 6.0557L4.9943 7.11636L4.16971 7.94095C3.09577 9.01489 3.09577 10.7561 4.16971 11.83C5.24366 12.904 6.98486 12.904 8.0588 11.83L8.88339 11.0055ZM9.94422 7.11599C10.2371 6.8231 10.2371 6.34823 9.94422 6.05533C9.65132 5.76244 9.17645 5.76244 8.88356 6.05533L6.05513 8.88376C5.76224 9.17665 5.76224 9.65153 6.05513 9.94442C6.34802 10.2373 6.8229 10.2373 7.11579 9.94442L9.94422 7.11599Z" fill="currentColor"/>
  </symbol>
  <symbol id="icon-mail" viewBox="0 0 20 20">
    <path fill-rule="evenodd" clip-rule="evenodd" d="M3.04175 7.06206V14.375C3.04175 14.6511 3.26561 14.875 3.54175 14.875H16.4584C16.7346 14.875 16.9584 14.6511 16.9584 14.375V7.06245L11.1443 11.1168C10.457 11.5961 9.54373 11.5961 8.85638 11.1168L3.04175 7.06206ZM16.9584 5.19262C16.9584 5.19341 16.9584 5.1942 16.9584 5.19498V5.20026C16.9572 5.22216 16.946 5.24239 16.9279 5.25501L10.2864 9.88638C10.1145 10.0062 9.8862 10.0062 9.71437 9.88638L3.07255 5.25485C3.05342 5.24151 3.04202 5.21967 3.04202 5.19636C3.042 5.15695 3.07394 5.125 3.11335 5.125H16.8871C16.9253 5.125 16.9564 5.15494 16.9584 5.19262ZM18.4584 5.21428V14.375C18.4584 15.4796 17.563 16.375 16.4584 16.375H3.54175C2.43718 16.375 1.54175 15.4796 1.54175 14.375V5.19498C1.54175 5.1852 1.54194 5.17546 1.54231 5.16577C1.55858 4.31209 2.25571 3.625 3.11335 3.625H16.8871C17.7549 3.625 18.4584 4.32843 18.4585 5.19622C18.4585 5.20225 18.4585 5.20826 18.4584 5.21428Z" fill="currentColor"/>
  </symbol>

  <!-- ========== FAQs ========== -->
  <symbol id="icon-faq-plus" viewBox="0 0 24 24">
    <path d="M12 5v14M5 12h14" stroke="currentColor" stroke-width="2" stroke-linecap="round" stroke-linejoin="round" fill="none"/>
  </symbol>
  <symbol id="icon-faq-minus" viewBox="0 0 24 24">
    <path d="M5 12h14" stroke="currentColor" stroke-width="2" stroke-linecap="round" stroke-linejoin="round" fill="none"/>
  </symbol>

  <!-- ========== Dropzone ========== -->
  <symbol id="icon-dropzone-upload" viewBox="0 0 24 24">
    <path d="M20.0004 16V18.5C20.0004 19.3284 19.3288 20 18.5004 20H5.49951C4.67108 20 3.99951 19.3284 3.99951 18.5V16M12.0015 4L12.0015 16M7.37454 8.6246L11.9994 4.00269L16.6245 8.6246" stroke="currentColor" stroke-width="1.5" stroke-linecap="round" stroke-linejoin="round" fill="none"/>
  </symbol>

  <!-- ========== Multi-select ========== -->
  <symbol id="icon-close-sm" viewBox="0 0 14 14">
    <path fill-rule="evenodd" clip-rule="evenodd" d="M3.40717 4.46881C3.11428 4.17591 3.11428 3.70104 3.40717 3.40815C3.70006 3.11525 4.17494 3.11525 4.46783 3.40815L6.99943 5.93975L9.53095 3.40822C9.82385 3.11533 10.2987 3.11533 10.5916 3.40822C10.8845 3.70112 10.8845 4.17599 10.5916 4.46888L8.06009 7.00041L10.5916 9.53193C10.8845 9.82482 10.8845 10.2997 10.5916 10.5926C10.2987 10.8855 9.82385 10.8855 9.53095 10.5926L6.99943 8.06107L4.46783 10.5927C4.17494 10.8856 3.70006 10.8856 3.40717 10.5927C3.11428 10.2998 3.11428 9.8249 3.40717 9.53201L5.93877 7.00041L3.40717 4.46881Z" fill="currentColor"/>
  </symbol>

  <!-- ========== Card icons ========== -->
  <symbol id="icon-card-box" viewBox="0 0 28 28">
    <path fill-rule="evenodd" clip-rule="evenodd" d="M13.6147 4.39464C13.8572 4.2734 14.1426 4.2734 14.385 4.39464L21.8797 8.14188L14.3973 11.883C14.1471 12.0081 13.8526 12.0081 13.6024 11.883L6.11997 8.14188L13.6147 4.39464ZM5.02148 9.57978V18.7772C5.02148 19.1035 5.20581 19.4017 5.49762 19.5476L13.1109 23.3542V13.6016C13.0079 13.5652 12.9066 13.5222 12.8076 13.4727L5.02148 9.57978ZM14.8883 23.3544L22.5021 19.5476C22.7939 19.4017 22.9782 19.1035 22.9782 18.7772V9.57978L15.1921 13.4727C15.0929 13.5223 14.9915 13.5653 14.8883 13.6018L14.8883 23.3544ZM14.7825 3.59978L15.1799 2.80493C14.437 2.43351 13.5627 2.43351 12.8198 2.80493L4.70279 6.86333C3.80884 7.3103 3.24414 8.22398 3.24414 9.22344V18.7772C3.24414 19.7767 3.80883 20.6904 4.70279 21.1373L12.8198 25.1958L13.2172 24.4009L12.8198 25.1958C13.5627 25.5672 14.437 25.5672 15.1799 25.1958L23.2969 21.1373C24.1909 20.6904 24.7556 19.7767 24.7556 18.7772V9.22344C24.7556 8.22398 24.1909 7.3103 23.2969 6.86333L15.1799 2.80493L14.7825 3.59978Z" fill="currentColor"/>
  </symbol>
  <symbol id="icon-arrow-right-small" viewBox="0 0 16 16">
    <path fill-rule="evenodd" clip-rule="evenodd" d="M14.0836 7.99888C14.0838 8.19107 14.0107 8.38334 13.8641 8.53001L9.86678 12.5301C9.57399 12.8231 9.09911 12.8233 8.80612 12.5305C8.51312 12.2377 8.51296 11.7629 8.80575 11.4699L11.526 8.74772L2.66602 8.74772C2.2518 8.74772 1.91602 8.41194 1.91602 7.99772C1.91602 7.58351 2.2518 7.24772 2.66602 7.24772L11.5216 7.24772L8.80576 4.53016C8.51296 4.23718 8.51311 3.7623 8.8061 3.4695C9.09909 3.1767 9.57396 3.17685 9.86676 3.46984L13.8292 7.43478C13.9852 7.57222 14.0836 7.77348 14.0836 7.99772C14.0836 7.99811 14.0836 7.9985 14.0836 7.99888Z" fill="currentColor"/>
  </symbol>

  <!-- ========== Badge / Button icons ========== -->
  <symbol id="icon-badge-plus" viewBox="0 0 12 12">
    <path fill-rule="evenodd" clip-rule="evenodd" d="M5.25012 3C5.25012 2.58579 5.58591 2.25 6.00012 2.25C6.41433 2.25 6.75012 2.58579 6.75012 3V5.25012L9.00034 5.25012C9.41455 5.25012 9.75034 5.58591 9.75034 6.00012C9.75034 6.41433 9.41455 6.75012 9.00034 6.75012H6.75012V9.00034C6.75012 9.41455 6.41433 9.75034 6.00012 9.75034C5.58591 9.75034 5.25012 9.41455 5.25012 9.00034L5.25012 6.75012H3C2.58579 6.75012 2.25 6.41433 2.25 6.00012C2.25 5.58591 2.58579 5.25012 3 5.25012H5.25012V3Z" fill="currentColor"/>
  </symbol>
  <symbol id="icon-button-box" viewBox="0 0 20 20">
    <path fill-rule="evenodd" clip-rule="evenodd" d="M9.77692 3.24224C9.91768 3.17186 10.0834 3.17186 10.2241 3.24224L15.3713 5.81573L10.3359 8.33331C10.1248 8.43888 9.87626 8.43888 9.66512 8.33331L4.6298 5.81573L9.77692 3.24224ZM3.70264 7.0292V13.4124C3.70264 13.6018 3.80964 13.775 3.97903 13.8597L9.25016 16.4952V9.7837C9.16327 9.75296 9.07782 9.71671 8.99432 9.67496L3.70264 7.0292ZM10.7502 16.4955V9.78396C10.8373 9.75316 10.923 9.71683 11.0067 9.67496L16.2984 7.0292V13.4124C16.2984 13.6018 16.1914 13.775 16.022 13.8597L10.7502 16.4955ZM9.41463 17.4831L9.10612 18.1002C9.66916 18.3817 10.3319 18.3817 10.8949 18.1002L16.6928 15.2013C17.3704 14.8625 17.7984 14.17 17.7984 13.4124V6.58831C17.7984 5.83076 17.3704 5.13823 16.6928 4.79945L10.8949 1.90059C10.3319 1.61908 9.66916 1.61907 9.10612 1.90059L9.44152 2.57141L9.10612 1.90059L3.30823 4.79945C2.63065 5.13823 2.20264 5.83076 2.20264 6.58831V13.4124C2.20264 14.17 2.63065 14.8625 3.30823 15.2013L9.10612 18.1002L9.41463 17.4831Z" fill="currentColor"/>
  </symbol>

  <!-- ========== Auth (Lucide 24x24) ========== -->
  <symbol id="icon-eye-auth" viewBox="0 0 24 24">
    <path d="M2.062 12.348a1 1 0 0 1 0-.696 10.75 10.75 0 0 1 19.876 0 1 1 0 0 1 0 .696 10.75 10.75 0 0 1-19.876 0" stroke="currentColor" stroke-width="2" stroke-linecap="round" stroke-linejoin="round" fill="none"/>
    <circle cx="12" cy="12" r="3" stroke="currentColor" stroke-width="2" fill="none"/>
  </symbol>
  <symbol id="icon-eye-off-auth" viewBox="0 0 24 24">
    <path d="M10.733 5.076a10.744 10.744 0 0 1 11.205 6.575 1 1 0 0 1 0 .696 10.747 10.747 0 0 1-1.444 2.49" stroke="currentColor" stroke-width="2" stroke-linecap="round" stroke-linejoin="round" fill="none"/>
    <path d="M14.084 14.158a3 3 0 0 1-4.242-4.242" stroke="currentColor" stroke-width="2" stroke-linecap="round" stroke-linejoin="round" fill="none"/>
    <path d="M17.479 17.499a10.75 10.75 0 0 1-15.417-5.151 1 1 0 0 1 0-.696 10.75 10.75 0 0 1 4.446-5.143" stroke="currentColor" stroke-width="2" stroke-linecap="round" stroke-linejoin="round" fill="none"/>
    <path d="m2 2 20 20" stroke="currentColor" stroke-width="2" stroke-linecap="round" stroke-linejoin="round" fill="none"/>
  </symbol>
  <symbol id="icon-sign-in" viewBox="0 0 24 24">
    <path d="M15 3h4a2 2 0 0 1 2 2v14a2 2 0 0 1-2 2h-4" stroke="currentColor" stroke-width="2" stroke-linecap="round" stroke-linejoin="round" fill="none"/>
    <polyline points="10 17 15 12 10 7" stroke="currentColor" stroke-width="2" stroke-linecap="round" stroke-linejoin="round" fill="none"/>
    <line x1="15" x2="3" y1="12" y2="12" stroke="currentColor" stroke-width="2" stroke-linecap="round" stroke-linejoin="round" fill="none"/>
  </symbol>
  <symbol id="icon-github-24" viewBox="0 0 24 24">
    <path d="M12 0c-6.626 0-12 5.373-12 12 0 5.302 3.438 9.8 8.207 11.387.599.111.793-.261.793-.577v-2.234c-3.338.726-4.033-1.416-4.033-1.416-.546-1.387-1.333-1.756-1.333-1.756-1.089-.745.083-.729.083-.729 1.205.084 1.839 1.237 1.839 1.237 1.07 1.834 2.807 1.304 3.492.997.107-.775.418-1.305.762-1.604-2.665-.305-5.467-1.334-5.467-5.931 0-1.311.469-2.381 1.236-3.221-.124-.303-.535-1.524.117-3.176 0 0 1.008-.322 3.301 1.23.957-.266 1.983-.399 3.003-.404 1.02.005 2.047.138 3.006.404 2.291-1.552 3.297-1.23 3.297-1.23.653 1.653.242 2.874.118 3.176.77.84 1.235 1.911 1.235 3.221 0 4.609-2.807 5.624-5.479 5.921.43.372.823 1.102.823 2.222v3.293c0 .319.192.694.801.576 4.765-1.589 8.199-6.086 8.199-11.386 0-6.627-5.373-12-12-12z" fill="currentColor"/>
  </symbol>
  <symbol id="icon-facebook-24" viewBox="0 0 24 24">
    <path d="M22.675 0h-21.35c-.732 0-1.325.593-1.325 1.325v21.351c0 .731.593 1.324 1.325 1.324h11.495v-9.294h-3.128v-3.622h3.128v-2.671c0-3.1 1.893-4.788 4.659-4.788 1.325 0 2.463.099 2.795.143v3.24l-1.918.001c-1.504 0-1.795.715-1.795 1.763v2.313h3.587l-.467 3.622h-3.12v9.293h6.116c.73 0 1.323-.593 1.323-1.325v-21.35c0-.732-.593-1.325-1.325-1.325z" fill="currentColor"/>
  </symbol>

  <!-- ========== Chat extras ========== -->
  <symbol id="icon-chat-compose" viewBox="0 0 24 24">
    <path d="M21.174 6.812a1 1 0 0 0-3.986-3.987L3.842 16.174a2 2 0 0 0-.5.83l-1.321 4.352a.5.5 0 0 0 .623.622l4.353-1.32a2 2 0 0 0 .83-.497z" stroke="currentColor" stroke-width="2" stroke-linecap="round" stroke-linejoin="round" fill="none"/>
  </symbol>
  <symbol id="icon-chat-badge" viewBox="0 0 24 24">
    <path d="m16 2 2 2 2-2" stroke="currentColor" stroke-width="2" stroke-linecap="round" stroke-linejoin="round" fill="none"/>
    <path d="M11.11 7.664a1 1 0 0 1 1.78 0l.396.792a1 1 0 0 0 .722.545l.875.145a1 1 0 0 1 .555 1.706l-.618.618a1 1 0 0 0-.272.886l.117.87a1 1 0 0 1-1.453 1.054l-.791-.395a1 1 0 0 0-.894 0l-.791.395A1 1 0 0 1 9.28 12.66l.117-.87a1 1 0 0 0-.272-.886l-.618-.618a1 1 0 0 1 .555-1.706l.875-.145a1 1 0 0 0 .722-.545z" stroke="currentColor" stroke-width="2" stroke-linecap="round" stroke-linejoin="round" fill="none"/>
    <rect width="18" height="18" x="3" y="4" rx="2" stroke="currentColor" stroke-width="2" fill="none"/>
  </symbol>
  <symbol id="icon-phone" viewBox="0 0 24 24">
    <path d="M22 16.92v3a2 2 0 0 1-2.18 2 19.79 19.79 0 0 1-8.63-3.07 19.5 19.5 0 0 1-6-6 19.79 19.79 0 0 1-3.07-8.67A2 2 0 0 1 4.11 2h3a2 2 0 0 1 2 1.72 12.84 12.84 0 0 0 .7 2.81 2 2 0 0 1-.45 2.11L8.09 9.91a16 16 0 0 0 6 6l1.27-1.27a2 2 0 0 1 2.11-.45 12.84 12.84 0 0 0 2.81.7A2 2 0 0 1 22 16.92z" stroke="currentColor" stroke-width="2" stroke-linecap="round" stroke-linejoin="round" fill="none"/>
  </symbol>
  <symbol id="icon-dots-vertical" viewBox="0 0 24 24">
    <circle cx="12" cy="12" r="1" stroke="currentColor" stroke-width="2" fill="none"/>
    <circle cx="12" cy="5" r="1" stroke="currentColor" stroke-width="2" fill="none"/>
    <circle cx="12" cy="19" r="1" stroke="currentColor" stroke-width="2" fill="none"/>
  </symbol>
  <symbol id="icon-image-plus" viewBox="0 0 24 24">
    <path d="M21 12v7a2 2 0 0 1-2 2H5a2 2 0 0 1-2-2V5a2 2 0 0 1 2-2h7" stroke="currentColor" stroke-width="2" stroke-linecap="round" stroke-linejoin="round" fill="none"/>
    <line x1="16" x2="22" y1="5" y2="5" stroke="currentColor" stroke-width="2" stroke-linecap="round" stroke-linejoin="round" fill="none"/>
    <line x1="19" x2="19" y1="2" y2="8" stroke="currentColor" stroke-width="2" stroke-linecap="round" stroke-linejoin="round" fill="none"/>
    <circle cx="9" cy="9" r="2" stroke="currentColor" stroke-width="2" fill="none"/>
    <path d="m21 15-3.086-3.086a2 2 0 0 0-2.828 0L6 21" stroke="currentColor" stroke-width="2" stroke-linecap="round" stroke-linejoin="round" fill="none"/>
  </symbol>

  <!-- ========== Ecommerce ========== -->
  <symbol id="icon-calendar-stroke" viewBox="0 0 24 24">
    <path d="M8 2v4" stroke="currentColor" stroke-width="2" stroke-linecap="round" stroke-linejoin="round" fill="none"/>
    <path d="M16 2v4" stroke="currentColor" stroke-width="2" stroke-linecap="round" stroke-linejoin="round" fill="none"/>
    <rect width="18" height="18" x="3" y="4" rx="2" stroke="currentColor" stroke-width="2" fill="none"/>
    <path d="M3 10h18" stroke="currentColor" stroke-width="2" stroke-linecap="round" stroke-linejoin="round" fill="none"/>
  </symbol>
  <symbol id="icon-filter-lines" viewBox="0 0 20 20">
    <path d="M2.29004 5.90393H17.7067" stroke="currentColor" stroke-width="1.5" stroke-linecap="round" stroke-linejoin="round" fill="none"/>
    <path d="M17.7075 14.0961H2.29085" stroke="currentColor" stroke-width="1.5" stroke-linecap="round" stroke-linejoin="round" fill="none"/>
    <path d="M12.0826 3.33331C13.5024 3.33331 14.6534 4.48431 14.6534 5.90414C14.6534 7.32398 13.5024 8.47498 12.0826 8.47498C10.6627 8.47498 9.51172 7.32398 9.51172 5.90415C9.51172 4.48432 10.6627 3.33331 12.0826 3.33331Z" stroke="currentColor" stroke-width="1.5" fill="none"/>
    <path d="M7.91745 11.525C6.49762 11.525 5.34662 12.676 5.34662 14.0959C5.34661 15.5157 6.49762 16.6667 7.91745 16.6667C9.33728 16.6667 10.4883 15.5157 10.4883 14.0959C10.4883 12.676 9.33728 11.525 7.91745 11.525Z" stroke="currentColor" stroke-width="1.5" fill="none"/>
  </symbol>
  <symbol id="icon-edit-pencil" viewBox="0 0 21 20">
    <path d="M12.8861 5.08135L15.4182 7.61345M16.1437 3.59219L16.908 4.35652C17.3962 4.84468 17.3962 5.63613 16.908 6.12429L8.33547 14.6968C8.19039 14.8419 8.01182 14.9491 7.81554 15.0088L4.47461 16.0256L5.49141 12.6847C5.55115 12.4884 5.65829 12.3098 5.80337 12.1647L14.3759 3.59219C14.8641 3.10404 15.6555 3.10404 16.1437 3.59219Z" stroke="currentColor" stroke-width="1.5" stroke-linecap="round" stroke-linejoin="round" fill="none"/>
  </symbol>
  <symbol id="icon-pdf-file" viewBox="0 0 21 24">
    <path d="M4.8125 0.625C4.03047 0.625 3.39062 1.26484 3.39062 2.04688V21.9531C3.39062 22.7352 4.03047 23.375 4.8125 23.375H19.0312C19.8133 23.375 20.4531 22.7352 20.4531 21.9531V6.3125L14.7656 0.625H4.8125Z" fill="#E2E5E7"/>
    <path d="M16.1875 6.3125H20.4531L14.7656 0.625V4.89062C14.7656 5.67266 15.4055 6.3125 16.1875 6.3125Z" fill="#B0B7BD"/>
    <path d="M20.4531 10.5781L16.1875 6.3125H20.4531V10.5781Z" fill="#CAD1D8"/>
    <path d="M17.6094 19.1094C17.6094 19.5004 17.2895 19.8203 16.8984 19.8203H1.25781C0.866797 19.8203 0.546875 19.5004 0.546875 19.1094V12C0.546875 11.609 0.866797 11.2891 1.25781 11.2891H16.8984C17.2895 11.2891 17.6094 11.609 17.6094 12V19.1094Z" fill="#F15642"/>
    <path d="M3.64648 14.0956C3.64648 13.9079 3.79436 13.7031 4.03252 13.7031H5.34562C6.085 13.7031 6.75044 14.1979 6.75044 15.1463C6.75044 16.045 6.085 16.5455 5.34562 16.5455H4.39652V17.2962C4.39652 17.5465 4.23727 17.6879 4.03252 17.6879C3.84484 17.6879 3.64648 17.5465 3.64648 17.2962V14.0956ZM4.39652 14.419V15.8352H5.34562C5.72669 15.8352 6.02812 15.499 6.02812 15.1463C6.02812 14.7489 5.72669 14.419 5.34562 14.419H4.39652Z" fill="white"/>
    <path d="M7.86314 17.6875C7.67545 17.6875 7.4707 17.5851 7.4707 17.3356V14.1065C7.4707 13.9025 7.67545 13.7539 7.86314 13.7539H9.16487C11.7626 13.7539 11.7058 17.6875 9.21605 17.6875H7.86314ZM8.22145 14.4478V16.9944H9.16487C10.6998 16.9944 10.768 14.4478 9.16487 14.4478H8.22145Z" fill="white"/>
    <path d="M12.6284 14.494V15.3976H14.078C14.2828 15.3976 14.4875 15.6023 14.4875 15.8007C14.4875 15.9884 14.2828 16.1419 14.078 16.1419H12.6284V17.3356C12.6284 17.5347 12.4869 17.6875 12.2879 17.6875C12.0376 17.6875 11.8848 17.5347 11.8848 17.3356V14.1065C11.8848 13.9025 12.0383 13.7539 12.2879 13.7539H14.2835C14.5337 13.7539 14.6816 13.9025 14.6816 14.1065C14.6816 14.2885 14.5337 14.4933 14.2835 14.4933H12.6284V14.494Z" fill="white"/>
    <path d="M16.8984 19.8203H3.39062V20.5312H16.8984C17.2895 20.5312 17.6094 20.2113 17.6094 19.8203V19.1094C17.6094 19.5004 17.2895 19.8203 16.8984 19.8203Z" fill="#CAD1D8"/>
  </symbol>
  <symbol id="icon-eye-stroke" viewBox="0 0 21 20">
    <path d="M2.96487 10.7925C2.73306 10.2899 2.73306 9.71023 2.96487 9.20764C4.28084 6.35442 7.15966 4.375 10.4993 4.375C13.8389 4.375 16.7178 6.35442 18.0337 9.20765C18.2655 9.71024 18.2655 10.2899 18.0337 10.7925C16.7178 13.6458 13.8389 15.6252 10.4993 15.6252C7.15966 15.6252 4.28084 13.6458 2.96487 10.7925Z" stroke="currentColor" stroke-width="1.5" stroke-linecap="round" stroke-linejoin="round" fill="none"/>
    <path d="M13.5202 10C13.5202 11.6684 12.1677 13.0208 10.4993 13.0208C8.83099 13.0208 7.47852 11.6684 7.47852 10C7.47852 8.33164 8.83099 6.97917 10.4993 6.97917C12.1677 6.97917 13.5202 8.33164 13.5202 10Z" stroke="currentColor" stroke-width="1.5" stroke-linecap="round" stroke-linejoin="round" fill="none"/>
  </symbol>
  <symbol id="icon-minus-line" viewBox="0 0 25 24">
    <path d="M6.66699 12H18.6677" stroke="currentColor" stroke-width="1.5" stroke-linecap="round" stroke-linejoin="round" fill="none"/>
  </symbol>
  <symbol id="icon-plus-line" viewBox="0 0 25 24">
    <path d="M6.66699 12.0002H18.6677M12.6672 6V18.0007" stroke="currentColor" stroke-width="1.5" stroke-linecap="round" stroke-linejoin="round" fill="none"/>
  </symbol>
  <symbol id="icon-info-circle" viewBox="0 0 20 20">
    <path d="M10 7.22485H10.0007" stroke="currentColor" stroke-width="1.8" stroke-linecap="round" stroke-linejoin="round" fill="none"/>
    <path d="M10.0004 9.34575V12.8661M17.7087 10.0001C17.7087 14.2573 14.2575 17.7084 10.0003 17.7084C5.74313 17.7084 2.29199 14.2573 2.29199 10.0001C2.29199 5.74289 5.74313 2.29175 10.0003 2.29175C14.2575 2.29175 17.7087 5.74289 17.7087 10.0001Z" stroke="currentColor" stroke-width="1.5" stroke-linecap="round" stroke-linejoin="round" fill="none"/>
  </symbol>
  <symbol id="icon-dollar-sign" viewBox="0 0 24 24">
    <path d="M12 2v20M17 5H9.5a3.5 3.5 0 0 0 0 7h5a3.5 3.5 0 0 1 0 7H6" stroke="currentColor" stroke-width="2" stroke-linecap="round" stroke-linejoin="round" fill="none"/>
  </symbol>
  <symbol id="icon-users-group" viewBox="0 0 24 24">
    <path d="M16 21v-2a4 4 0 0 0-4-4H6a4 4 0 0 0-4 4v2" stroke="currentColor" stroke-width="2" stroke-linecap="round" stroke-linejoin="round" fill="none"/>
    <circle cx="9" cy="7" r="4" stroke="currentColor" stroke-width="2" fill="none"/>
    <path d="M22 21v-2a4 4 0 0 0-3-3.87M16 3.13a4 4 0 0 1 0 7.75" stroke="currentColor" stroke-width="2" stroke-linecap="round" stroke-linejoin="round" fill="none"/>
  </symbol>
  <symbol id="icon-activity" viewBox="0 0 24 24">
    <path d="M22 12h-4l-3 9L9 3l-3 9H2" stroke="currentColor" stroke-width="2" stroke-linecap="round" stroke-linejoin="round" fill="none"/>
  </symbol>

</svg>
