<svg xmlns="http://www.w3.org/2000/svg" xmlns:xlink="http://www.w3.org/1999/xlink" width="40" zoomAndPan="magnify" viewBox="0 0 30 30.000001" height="40" preserveAspectRatio="xMidYMid meet" version="1.0"><defs><clipPath id="904ce86137"><path d="M 0.484375 0 L 29.515625 0 L 29.515625 29.03125 L 0.484375 29.03125 Z M 0.484375 0 " clip-rule="nonzero"/></clipPath><clipPath id="6adf460ab4"><path d="M 3.386719 7.617188 L 28.789062 7.617188 L 28.789062 20.683594 L 3.386719 20.683594 Z M 3.386719 7.617188 " clip-rule="nonzero"/></clipPath></defs><g clip-path="url(#904ce86137)"><path fill="#ffffff" d="M 0.484375 0 L 29.515625 0 L 29.515625 29.03125 L 0.484375 29.03125 Z M 0.484375 0 " fill-opacity="1" fill-rule="nonzero"/><path fill="#000000" d="M 0.484375 0 L 29.515625 0 L 29.515625 29.03125 L 0.484375 29.03125 Z M 0.484375 0 " fill-opacity="1" fill-rule="nonzero"/></g><g clip-path="url(#6adf460ab4)"><path fill="#ffffff" d="M 4.226562 17.628906 C 4.257812 17.621094 4.324219 17.644531 4.367188 17.621094 L 4.367188 17.597656 C 4.351562 17.636719 4.242188 17.570312 4.226562 17.628906 Z M 4.949219 17.425781 C 4.980469 17.332031 4.996094 17.367188 5.023438 17.269531 C 5.070312 17.242188 5.09375 17.253906 5.097656 17.308594 C 5.105469 17.285156 5.15625 17.316406 5.171875 17.261719 C 5.101562 17.191406 5.039062 17.199219 4.988281 17.285156 C 4.972656 17.269531 4.980469 17.242188 4.980469 17.226562 C 4.921875 17.285156 4.910156 17.351562 4.949219 17.425781 Z M 5.429688 16.28125 C 5.417969 16.25 5.414062 16.21875 5.410156 16.183594 C 5.421875 16.257812 5.402344 16.265625 5.429688 16.28125 Z M 5.222656 17.277344 L 5.222656 17.359375 L 5.269531 17.324219 C 5.277344 17.300781 5.261719 17.261719 5.222656 17.277344 Z M 6.117188 18.886719 L 6.160156 18.835938 L 6.101562 18.804688 Z M 7.644531 15.90625 L 7.675781 15.886719 L 7.644531 15.886719 Z M 5.335938 16.390625 Z M 5.304688 16.152344 C 5.3125 16.171875 5.324219 16.191406 5.335938 16.207031 C 5.324219 16.191406 5.3125 16.171875 5.304688 16.152344 Z M 5.269531 17.121094 Z M 8.78125 18.863281 C 8.824219 18.808594 8.8125 18.769531 8.75 18.746094 C 8.765625 18.789062 8.757812 18.84375 8.78125 18.863281 Z M 6.308594 15.804688 L 6.308594 15.824219 L 6.332031 15.824219 L 6.316406 15.804688 Z M 7.039062 15.566406 L 7.054688 15.566406 L 7.039062 15.542969 Z M 5.976562 19.648438 L 6 19.714844 C 6.007812 19.683594 6.019531 19.65625 5.976562 19.648438 Z M 5.636719 19.164062 Z M 4.90625 17.414062 L 4.871094 17.449219 C 4.882812 17.441406 4.898438 17.441406 4.90625 17.414062 Z M 9.082031 15.765625 L 9.082031 15.75 C 8.839844 15.757812 8.683594 15.878906 8.464844 15.9375 C 8.316406 15.839844 7.992188 15.9375 7.769531 15.894531 C 7.785156 15.90625 7.785156 15.921875 7.777344 15.945312 L 7.761719 15.96875 L 7.742188 15.988281 C 7.734375 15.980469 7.71875 16.003906 7.703125 16.011719 C 7.6875 16.019531 7.6875 16.019531 7.703125 15.96875 C 7.707031 15.945312 7.710938 15.921875 7.710938 15.894531 L 7.695312 15.894531 L 7.578125 16.019531 C 7.585938 15.980469 7.601562 15.941406 7.621094 15.90625 C 7.621094 15.882812 7.613281 15.863281 7.601562 15.847656 L 7.601562 15.707031 C 7.613281 15.65625 7.636719 15.617188 7.675781 15.585938 C 7.652344 15.535156 7.660156 15.46875 7.628906 15.410156 L 7.703125 15.410156 C 7.730469 15.28125 7.746094 15.152344 7.742188 15.019531 L 7.792969 15.058594 C 7.800781 14.960938 7.601562 14.917969 7.601562 14.820312 L 7.710938 14.804688 C 7.726562 14.632812 7.835938 14.460938 7.753906 14.277344 C 7.769531 14.277344 7.800781 14.285156 7.800781 14.320312 C 7.800781 14.351562 7.808594 14.277344 7.808594 14.253906 L 8.117188 12.898438 L 7.203125 14.058594 C 7.136719 14.140625 7.046875 14.253906 7.164062 14.285156 C 7.082031 14.246094 7.0625 14.441406 7.046875 14.550781 L 6.996094 14.5 C 7.03125 14.617188 7.046875 14.625 7.015625 14.738281 C 6.980469 14.851562 6.964844 14.738281 6.980469 14.714844 C 6.996094 14.6875 7.003906 14.804688 6.921875 14.871094 L 6.90625 14.820312 C 6.855469 14.894531 6.882812 14.902344 6.898438 14.96875 C 6.878906 15.058594 6.824219 15.097656 6.730469 15.089844 C 6.757812 15.117188 6.78125 15.191406 6.738281 15.222656 C 6.699219 15.253906 6.707031 15.199219 6.707031 15.183594 C 6.589844 15.289062 6.664062 15.421875 6.550781 15.476562 L 6.507812 15.476562 C 6.566406 15.371094 6.625 15.289062 6.625 15.304688 C 6.625 15.320312 6.507812 15.347656 6.464844 15.238281 C 6.472656 15.328125 6.492188 15.503906 6.417969 15.566406 L 6.390625 15.566406 L 6.390625 15.550781 C 6.375 15.566406 6.367188 15.585938 6.367188 15.609375 C 6.339844 15.632812 6.324219 15.640625 6.316406 15.667969 C 6.308594 15.691406 6.234375 15.757812 6.199219 15.789062 C 6.167969 15.824219 6.226562 15.871094 6.308594 15.855469 C 6.390625 15.839844 6.300781 15.839844 6.316406 15.804688 L 6.316406 15.789062 L 6.375 15.683594 C 6.382812 15.730469 6.390625 15.78125 6.332031 15.804688 C 6.355469 15.84375 6.375 15.882812 6.390625 15.921875 L 6.308594 15.9375 L 6.226562 15.960938 C 6.191406 15.972656 6.160156 15.964844 6.132812 15.9375 C 6.132812 15.972656 6.117188 16.003906 6.09375 16.027344 C 6.066406 16.0625 6.035156 16.078125 5.984375 16.132812 C 5.933594 16.191406 5.96875 16.078125 5.96875 16.0625 C 5.96875 16.042969 6 16.0625 6.007812 16.042969 L 5.910156 16.042969 C 5.859375 16.027344 5.808594 16.019531 5.777344 16.050781 C 5.742188 16.085938 5.777344 15.996094 5.785156 15.988281 L 5.742188 15.953125 L 5.785156 15.953125 C 5.753906 15.910156 5.71875 15.875 5.675781 15.839844 L 5.628906 15.789062 L 5.570312 15.742188 L 5.46875 15.667969 L 5.371094 15.601562 L 5.289062 15.535156 L 5.238281 15.484375 L 5.1875 15.4375 C 5.152344 15.390625 5.117188 15.34375 5.089844 15.296875 L 5.023438 15.191406 L 4.929688 15.027344 C 4.90625 15.015625 4.886719 15 4.871094 14.976562 L 4.824219 14.902344 L 4.871094 14.992188 L 4.824219 14.960938 L 4.78125 14.9375 L 4.75 14.9375 L 4.722656 14.917969 C 4.695312 14.898438 4.671875 14.875 4.65625 14.84375 C 4.683594 15.109375 4.699219 15.320312 4.648438 15.445312 C 4.597656 15.566406 4.691406 15.625 4.757812 15.75 L 4.671875 15.691406 C 4.707031 15.765625 4.75 15.839844 4.789062 15.914062 C 4.832031 15.988281 4.796875 16.050781 4.773438 16.125 C 4.761719 16.167969 4.757812 16.214844 4.765625 16.257812 C 4.773438 16.328125 4.800781 16.386719 4.847656 16.4375 L 4.890625 16.40625 C 4.902344 16.460938 4.917969 16.515625 4.9375 16.570312 C 4.964844 16.628906 4.964844 16.660156 4.9375 16.660156 C 4.914062 16.660156 4.996094 16.667969 4.980469 16.703125 L 4.949219 16.71875 L 5.070312 16.855469 C 5.097656 16.988281 4.914062 16.890625 4.988281 17.078125 C 5.0625 17.269531 5.179688 17.226562 5.195312 17.1875 C 5.171875 17.148438 5.175781 17.113281 5.210938 17.085938 L 5.261719 17.144531 C 5.371094 17.105469 5.503906 17.085938 5.511719 16.921875 L 5.402344 16.855469 L 5.4375 16.800781 L 5.476562 16.882812 C 5.503906 16.816406 5.445312 16.800781 5.402344 16.785156 C 5.429688 16.769531 5.441406 16.746094 5.445312 16.71875 L 5.304688 16.660156 C 5.34375 16.636719 5.402344 16.675781 5.402344 16.601562 C 5.402344 16.527344 5.328125 16.675781 5.261719 16.621094 C 5.195312 16.5625 5.34375 16.546875 5.289062 16.511719 C 5.308594 16.492188 5.332031 16.492188 5.355469 16.511719 L 5.328125 16.496094 L 5.320312 16.496094 L 5.304688 16.480469 C 5.296875 16.472656 5.289062 16.464844 5.246094 16.453125 C 5.203125 16.445312 5.269531 16.429688 5.269531 16.414062 C 5.269531 16.398438 5.269531 16.390625 5.335938 16.421875 L 5.269531 16.371094 L 5.210938 16.316406 C 5.304688 16.382812 5.296875 16.363281 5.304688 16.355469 C 5.3125 16.347656 5.304688 16.332031 5.402344 16.421875 C 5.320312 16.347656 5.296875 16.316406 5.289062 16.28125 C 5.269531 16.234375 5.246094 16.1875 5.222656 16.144531 C 5.230469 16.164062 5.242188 16.183594 5.253906 16.199219 C 5.292969 16.238281 5.324219 16.277344 5.355469 16.324219 C 5.242188 16.15625 5.148438 15.976562 5.070312 15.789062 C 5.132812 15.882812 5.183594 15.976562 5.230469 16.078125 L 5.386719 16.371094 C 5.328125 16.265625 5.296875 16.199219 5.269531 16.144531 C 5.246094 16.085938 5.210938 16.011719 5.164062 15.921875 L 5.238281 16.042969 L 5.304688 16.183594 L 5.238281 16.042969 L 5.203125 15.980469 C 5.3125 16.183594 5.371094 16.316406 5.328125 16.226562 C 5.394531 16.371094 5.4375 16.445312 5.4375 16.445312 C 5.371094 16.324219 5.3125 16.199219 5.261719 16.070312 L 5.402344 16.382812 C 5.390625 16.335938 5.371094 16.292969 5.355469 16.25 C 5.335938 16.199219 5.320312 16.167969 5.328125 16.175781 C 5.34375 16.203125 5.355469 16.230469 5.363281 16.257812 C 5.359375 16.246094 5.355469 16.230469 5.355469 16.214844 C 5.355469 16.199219 5.371094 16.214844 5.378906 16.226562 C 5.386719 16.234375 5.394531 16.226562 5.402344 16.183594 C 5.410156 16.144531 5.410156 16.207031 5.410156 16.214844 C 5.410156 16.226562 5.386719 16.078125 5.378906 16.035156 C 5.371094 15.996094 5.429688 16.003906 5.4375 16.09375 C 5.445312 16.183594 5.421875 16.101562 5.421875 16.125 L 5.4375 16.109375 C 5.460938 16.234375 5.410156 16.117188 5.421875 16.207031 L 5.476562 16.183594 C 5.507812 16.183594 5.535156 16.195312 5.554688 16.214844 C 5.519531 16.300781 5.46875 16.191406 5.488281 16.300781 L 5.453125 16.234375 C 5.460938 16.40625 5.4375 16.207031 5.445312 16.390625 C 5.453125 16.414062 5.453125 16.40625 5.460938 16.398438 L 5.488281 16.398438 L 5.503906 16.414062 L 5.542969 16.445312 C 5.601562 16.429688 5.578125 16.390625 5.636719 16.363281 C 5.695312 16.339844 5.726562 16.398438 5.742188 16.429688 C 5.769531 16.464844 5.792969 16.5 5.808594 16.535156 C 5.824219 16.574219 5.847656 16.601562 5.875 16.628906 C 5.925781 16.65625 5.972656 16.660156 6.027344 16.644531 C 6.054688 16.617188 6.082031 16.585938 6.109375 16.554688 C 6.15625 16.519531 6.210938 16.507812 6.265625 16.511719 L 6.242188 16.621094 C 6.320312 16.605469 6.367188 16.5625 6.382812 16.488281 C 6.398438 16.445312 6.40625 16.414062 6.507812 16.347656 C 6.503906 16.386719 6.484375 16.417969 6.457031 16.445312 C 6.433594 16.480469 6.417969 16.496094 6.433594 16.488281 C 6.449219 16.480469 6.53125 16.429688 6.523438 16.398438 C 6.515625 16.351562 6.523438 16.3125 6.550781 16.273438 L 6.632812 16.300781 C 6.640625 16.289062 6.648438 16.273438 6.648438 16.257812 L 6.664062 16.234375 L 6.691406 16.175781 C 6.699219 16.132812 6.714844 16.09375 6.722656 16.050781 C 6.75 15.972656 6.777344 15.890625 6.816406 15.8125 C 6.832031 15.832031 6.839844 15.871094 6.882812 15.847656 C 6.925781 15.730469 6.988281 15.621094 7.070312 15.527344 C 7.097656 15.550781 7.128906 15.585938 7.128906 15.617188 L 7.054688 15.617188 L 7.128906 15.714844 L 7.03125 15.757812 C 7.039062 15.777344 7.042969 15.800781 7.046875 15.824219 C 7.054688 15.789062 7.089844 15.765625 7.105469 15.773438 C 7.113281 15.785156 7.113281 15.800781 7.113281 15.8125 C 7.113281 15.824219 7.105469 15.855469 7.105469 15.871094 L 7.070312 16.003906 C 7.039062 16.078125 7.023438 16.152344 6.996094 16.160156 C 7.03125 16.277344 7.101562 16.375 7.203125 16.445312 C 7.171875 16.453125 7.144531 16.445312 7.121094 16.421875 C 7.171875 16.453125 7.164062 16.472656 7.15625 16.488281 C 7.148438 16.503906 7.148438 16.511719 7.15625 16.519531 C 7.179688 16.539062 7.207031 16.550781 7.238281 16.554688 C 7.230469 16.527344 7.28125 16.527344 7.289062 16.511719 C 7.328125 16.566406 7.386719 16.59375 7.453125 16.59375 C 7.546875 16.605469 7.636719 16.601562 7.726562 16.578125 L 7.695312 16.628906 L 7.886719 16.628906 L 7.992188 16.609375 C 7.949219 16.628906 7.917969 16.660156 7.894531 16.703125 L 7.902344 16.703125 L 7.875 16.71875 L 7.867188 16.71875 L 7.851562 16.734375 L 7.785156 16.785156 L 7.660156 16.875 C 7.59375 16.90625 7.601562 16.890625 7.609375 16.867188 C 7.621094 16.839844 7.644531 16.816406 7.570312 16.824219 C 7.457031 16.917969 7.335938 16.984375 7.195312 17.03125 C 7.253906 17.164062 7.335938 17.285156 7.4375 17.390625 C 7.429688 17.425781 7.429688 17.457031 7.4375 17.488281 C 7.441406 17.53125 7.457031 17.570312 7.476562 17.605469 C 7.496094 17.648438 7.519531 17.695312 7.542969 17.734375 L 7.59375 17.808594 C 7.652344 17.882812 7.699219 17.960938 7.734375 18.046875 L 7.734375 18.023438 L 7.710938 18 C 7.71875 18.03125 7.730469 18.058594 7.742188 18.089844 L 7.753906 18.089844 L 7.753906 18.113281 C 7.746094 18.105469 7.742188 18.097656 7.742188 18.089844 C 7.714844 18.09375 7.691406 18.085938 7.667969 18.066406 L 7.59375 17.992188 C 7.535156 17.933594 7.488281 17.890625 7.453125 17.941406 C 7.421875 17.992188 7.429688 17.816406 7.335938 17.761719 C 7.269531 17.71875 7.195312 17.695312 7.113281 17.6875 C 7.148438 17.664062 7.023438 17.597656 7.054688 17.5625 C 7.007812 17.535156 6.953125 17.515625 6.898438 17.507812 C 6.855469 17.507812 6.855469 17.53125 6.871094 17.570312 L 6.855469 17.570312 C 6.789062 17.605469 6.757812 17.777344 6.730469 17.902344 C 6.707031 18.023438 6.691406 18.113281 6.597656 18.121094 L 6.558594 18.277344 L 6.558594 18.386719 C 6.550781 18.441406 6.53125 18.5 6.523438 18.550781 C 6.515625 18.597656 6.472656 18.761719 6.441406 18.871094 C 6.339844 18.8125 6.523438 18.648438 6.417969 18.605469 C 6.375 18.8125 6.417969 18.953125 6.300781 19.125 C 6.265625 19.164062 6.265625 19.074219 6.257812 19.050781 C 6.21875 19.214844 6.117188 19.347656 6.066406 19.484375 C 6.066406 19.417969 6.074219 19.347656 6.027344 19.3125 C 6.046875 19.328125 6.074219 19.335938 6.101562 19.328125 L 6.042969 19.289062 C 6.066406 19.246094 6.074219 19.246094 6.117188 19.253906 C 6.140625 19.132812 6 19.28125 6.058594 19.140625 C 6.066406 19.15625 6.074219 19.148438 6.085938 19.171875 C 6.117188 19.035156 6.066406 18.894531 6.101562 18.761719 C 6.132812 18.632812 6.117188 18.878906 6.199219 18.835938 C 6.195312 18.734375 6.179688 18.632812 6.152344 18.53125 C 6.140625 18.484375 6.136719 18.433594 6.132812 18.386719 C 6.125 18.359375 6.125 18.332031 6.125 18.304688 C 6.125 18.273438 6.125 18.242188 6.132812 18.210938 L 6.117188 18.253906 C 6.050781 18.253906 6.066406 18.210938 6.09375 18.148438 C 6.117188 18.082031 6.152344 17.992188 6.125 17.957031 C 6.101562 17.925781 6.191406 17.941406 6.183594 17.949219 L 6.183594 17.777344 C 6.175781 17.753906 6.175781 17.726562 6.167969 17.703125 C 6.167969 17.6875 6.164062 17.675781 6.160156 17.664062 L 6.160156 17.644531 L 6.140625 17.644531 L 5.828125 17.785156 L 5.875 17.746094 C 5.816406 17.742188 5.753906 17.75 5.695312 17.761719 C 5.628906 17.777344 5.5625 17.789062 5.496094 17.792969 C 5.476562 17.828125 5.4375 17.835938 5.46875 17.875 C 5.328125 17.800781 5.230469 17.84375 5.113281 17.875 C 4.996094 17.910156 4.890625 17.957031 4.78125 17.875 C 4.816406 17.875 4.847656 17.84375 4.824219 17.84375 L 4.640625 17.875 C 4.65625 17.933594 4.664062 17.910156 4.707031 17.957031 C 4.671875 17.996094 4.628906 18.015625 4.574219 18.007812 C 4.664062 17.972656 4.582031 17.917969 4.550781 17.882812 C 4.515625 17.851562 4.539062 17.917969 4.539062 17.941406 C 4.449219 17.828125 4.515625 18.054688 4.390625 17.972656 L 4.390625 17.941406 C 4.34375 17.96875 4.289062 17.980469 4.234375 17.972656 C 4.21875 17.910156 4.292969 17.949219 4.300781 17.890625 C 4.308594 17.835938 4.132812 18 4.074219 17.925781 C 4.019531 17.851562 4.160156 17.917969 4.191406 17.902344 C 4.226562 17.882812 4.117188 17.835938 4.066406 17.808594 L 4.074219 17.808594 L 3.992188 17.769531 C 4.007812 17.761719 4.019531 17.746094 4.027344 17.734375 C 4.035156 17.726562 4.140625 17.554688 4.265625 17.464844 C 4.390625 17.375 4.257812 17.5625 4.257812 17.5625 C 4.332031 17.570312 4.398438 17.550781 4.457031 17.507812 C 4.449219 17.523438 4.464844 17.539062 4.492188 17.554688 C 4.515625 17.570312 4.507812 17.464844 4.589844 17.472656 C 4.585938 17.515625 4.574219 17.550781 4.558594 17.589844 C 4.617188 17.546875 4.671875 17.480469 4.730469 17.449219 C 4.789062 17.414062 4.707031 17.515625 4.691406 17.546875 C 4.671875 17.582031 4.882812 17.464844 4.890625 17.390625 L 4.847656 17.390625 C 4.855469 17.40625 4.855469 17.449219 4.839844 17.457031 C 4.824219 17.464844 4.738281 17.464844 4.730469 17.441406 L 4.773438 17.40625 C 4.691406 17.285156 4.589844 17.480469 4.492188 17.507812 L 4.492188 17.390625 L 4.417969 17.507812 C 4.390625 17.488281 4.359375 17.441406 4.398438 17.40625 C 4.441406 17.375 4.351562 17.464844 4.273438 17.425781 C 4.199219 17.382812 4.265625 17.414062 4.265625 17.40625 L 4.207031 17.464844 C 4.21875 17.441406 4.175781 17.398438 4.226562 17.398438 C 4.074219 17.382812 4.050781 17.539062 3.976562 17.480469 L 3.984375 17.480469 C 3.835938 17.582031 4 17.554688 3.910156 17.6875 L 3.753906 17.546875 L 3.769531 17.628906 C 3.742188 17.628906 3.710938 17.636719 3.703125 17.613281 C 3.695312 17.589844 3.726562 17.636719 3.710938 17.695312 L 3.660156 17.695312 C 3.652344 17.679688 3.644531 17.664062 3.652344 17.652344 C 3.660156 17.644531 3.601562 17.664062 3.578125 17.644531 L 3.652344 17.621094 C 3.621094 17.613281 3.578125 17.589844 3.628906 17.554688 C 3.46875 17.554688 3.636719 17.589844 3.570312 17.636719 C 3.554688 17.628906 3.539062 17.621094 3.519531 17.621094 L 3.519531 17.753906 C 3.476562 17.785156 3.449219 17.777344 3.429688 17.726562 C 3.421875 17.792969 3.519531 17.726562 3.453125 17.808594 C 3.445312 17.796875 3.433594 17.785156 3.421875 17.777344 L 3.386719 17.761719 L 3.429688 17.875 C 3.445312 17.917969 3.488281 17.890625 3.535156 17.890625 L 3.535156 17.957031 C 3.527344 17.957031 3.519531 17.964844 3.535156 17.984375 L 3.535156 18 C 3.558594 17.96875 3.585938 17.957031 3.621094 17.972656 L 3.621094 17.992188 L 3.628906 17.992188 C 3.667969 18.015625 3.710938 18.074219 3.753906 18.066406 C 3.792969 18.054688 3.910156 18.066406 4.027344 18.054688 C 4.140625 18.046875 4.242188 18.128906 4.351562 18.179688 L 4.339844 18.179688 C 4.375 18.089844 4.484375 18.121094 4.566406 18.105469 C 4.5625 18.152344 4.539062 18.183594 4.5 18.203125 L 4.574219 18.203125 C 4.589844 18.171875 4.617188 18.164062 4.664062 18.15625 L 4.648438 18.222656 C 4.75 18.222656 4.855469 18.136719 4.988281 18.179688 C 4.988281 18.113281 4.882812 18.007812 5.003906 17.957031 C 5.128906 17.910156 5.023438 18.046875 4.988281 18.066406 C 4.957031 18.082031 5.03125 18.039062 5.054688 18.046875 L 5.003906 18.113281 C 5.0625 18.128906 5.03125 18.054688 5.082031 18.066406 C 5.128906 18.074219 5.113281 18.089844 5.113281 18.128906 C 5.113281 18.171875 5.070312 18.113281 5.054688 18.136719 C 5.113281 18.140625 5.164062 18.15625 5.203125 18.195312 C 5.195312 18.171875 5.195312 18.128906 5.238281 18.121094 C 5.277344 18.113281 5.277344 18.179688 5.335938 18.195312 C 5.394531 18.210938 5.429688 18.179688 5.421875 18.105469 C 5.410156 18.03125 5.460938 18.136719 5.476562 18.15625 L 5.5625 18.113281 C 5.585938 18.097656 5.621094 18.082031 5.601562 18.039062 L 5.59375 18.039062 C 5.601562 18.039062 5.601562 18.039062 5.601562 18.03125 C 5.644531 18.007812 5.6875 17.992188 5.734375 17.984375 L 5.84375 17.984375 C 5.851562 17.972656 5.84375 18.007812 5.84375 18.015625 L 5.84375 18.054688 C 5.839844 18.078125 5.839844 18.101562 5.84375 18.121094 L 5.820312 18.148438 C 5.835938 18.164062 5.835938 18.203125 5.84375 18.238281 C 5.851562 18.273438 5.867188 18.308594 5.894531 18.335938 C 5.894531 18.34375 5.875 18.359375 5.859375 18.367188 C 5.847656 18.382812 5.828125 18.386719 5.808594 18.386719 C 5.828125 18.457031 5.859375 18.46875 5.808594 18.574219 C 5.777344 18.5 5.777344 18.597656 5.785156 18.492188 C 5.761719 18.589844 5.71875 18.613281 5.785156 18.722656 C 5.71875 18.679688 5.703125 18.789062 5.71875 18.835938 L 5.769531 18.769531 C 5.769531 18.816406 5.761719 18.863281 5.753906 18.910156 L 5.675781 18.886719 C 5.5625 19.066406 5.820312 19.253906 5.636719 19.386719 C 5.6875 19.445312 5.6875 19.28125 5.742188 19.335938 C 5.800781 19.394531 5.59375 19.511719 5.59375 19.535156 C 5.59375 19.558594 5.703125 19.667969 5.652344 19.789062 C 5.675781 19.78125 5.761719 19.773438 5.777344 19.878906 C 5.792969 19.988281 5.636719 19.96875 5.621094 19.914062 C 5.601562 19.855469 5.636719 19.878906 5.644531 19.878906 C 5.652344 19.878906 5.628906 19.804688 5.59375 19.839844 L 5.621094 19.855469 C 5.585938 19.894531 5.570312 20.019531 5.527344 19.988281 C 5.488281 19.953125 5.570312 20.019531 5.59375 19.96875 C 5.527344 20.085938 5.5625 20.152344 5.511719 20.265625 C 5.527344 20.25 5.570312 20.242188 5.5625 20.257812 C 5.496094 20.421875 5.601562 20.347656 5.59375 20.460938 L 5.570312 20.480469 L 5.261719 20.617188 L 5.835938 20.585938 C 5.886719 20.585938 5.886719 20.660156 5.917969 20.546875 C 5.953125 20.429688 5.992188 20.578125 6 20.609375 C 6.019531 20.488281 6.140625 20.453125 6.191406 20.40625 L 6.175781 20.472656 C 6.183594 20.4375 6.195312 20.40625 6.21875 20.378906 L 6.175781 20.378906 C 6.199219 20.355469 6.21875 20.332031 6.242188 20.339844 C 6.265625 20.347656 6.140625 20.316406 6.132812 20.226562 C 6.125 20.132812 6.175781 20.085938 6.25 20.109375 C 6.160156 20.226562 6.332031 20.132812 6.273438 20.25 C 6.285156 20.222656 6.300781 20.195312 6.324219 20.175781 C 6.332031 20.175781 6.332031 20.191406 6.332031 20.199219 C 6.464844 20.109375 6.292969 20.101562 6.367188 19.96875 C 6.398438 20.011719 6.457031 19.988281 6.457031 19.960938 C 6.457031 19.9375 6.382812 19.945312 6.382812 19.878906 C 6.382812 19.8125 6.40625 19.78125 6.433594 19.738281 L 6.390625 19.78125 C 6.367188 19.75 6.390625 19.707031 6.40625 19.640625 C 6.425781 19.574219 6.425781 19.65625 6.425781 19.667969 C 6.425781 19.675781 6.574219 19.574219 6.574219 19.46875 C 6.574219 19.363281 6.648438 19.5 6.691406 19.476562 C 6.730469 19.453125 6.796875 19.394531 6.804688 19.265625 C 6.738281 19.273438 6.75 19.28125 6.730469 19.183594 L 6.691406 19.378906 L 6.664062 19.222656 C 6.640625 19.28125 6.640625 19.355469 6.617188 19.378906 C 6.589844 19.402344 6.617188 19.320312 6.558594 19.320312 C 6.671875 19.289062 6.582031 19.15625 6.671875 19.097656 L 6.804688 19.164062 C 6.921875 19.058594 6.839844 18.902344 6.949219 18.753906 L 6.898438 18.796875 C 6.855469 18.746094 6.9375 18.6875 6.9375 18.625 C 6.9375 18.558594 7.015625 18.625 7.054688 18.605469 C 7.097656 18.589844 7.039062 18.597656 7.046875 18.582031 C 7.046875 18.570312 7.050781 18.558594 7.054688 18.550781 C 7.054688 18.523438 7.046875 18.5 7.003906 18.46875 L 7.082031 18.46875 C 7.097656 18.449219 7.082031 18.410156 7.0625 18.34375 C 7.039062 18.289062 7.035156 18.230469 7.054688 18.171875 C 7.0625 18.207031 7.074219 18.242188 7.089844 18.277344 L 7.113281 18.386719 C 7.128906 18.367188 7.128906 18.347656 7.113281 18.328125 L 7.113281 18.230469 C 7.113281 18.238281 7.121094 18.238281 7.121094 18.222656 L 7.121094 18.203125 C 7.128906 18.1875 7.148438 18.179688 7.164062 18.210938 C 7.179688 18.246094 7.164062 18.121094 7.195312 18.148438 L 7.195312 18.179688 C 7.195312 18.148438 7.246094 18.164062 7.222656 18.082031 C 7.234375 18.128906 7.257812 18.171875 7.289062 18.210938 C 7.304688 18.242188 7.328125 18.265625 7.355469 18.285156 L 7.394531 18.3125 L 7.4375 18.359375 C 7.46875 18.394531 7.480469 18.4375 7.476562 18.484375 C 7.5625 18.546875 7.640625 18.613281 7.710938 18.6875 C 7.695312 18.695312 7.695312 18.707031 7.6875 18.6875 C 7.734375 18.8125 7.84375 18.65625 7.902344 18.796875 C 7.960938 18.933594 7.820312 18.769531 7.828125 18.820312 C 7.835938 18.871094 7.808594 18.910156 7.859375 18.945312 C 7.910156 18.976562 7.96875 19.007812 7.96875 19.082031 L 7.941406 19.066406 C 7.960938 19.117188 8 19.140625 8.058594 19.164062 C 8.121094 19.183594 8.179688 19.210938 8.234375 19.246094 C 8.222656 19.253906 8.21875 19.261719 8.21875 19.273438 C 8.316406 19.273438 8.414062 19.289062 8.507812 19.320312 C 8.519531 19.34375 8.523438 19.371094 8.515625 19.394531 L 8.574219 19.335938 L 8.625 19.335938 C 8.566406 19.386719 8.558594 19.347656 8.558594 19.417969 C 8.558594 19.492188 8.582031 19.320312 8.699219 19.335938 C 8.816406 19.355469 8.738281 19.386719 8.757812 19.417969 L 8.816406 19.492188 L 8.890625 19.265625 C 8.890625 19.234375 8.90625 19.207031 8.929688 19.191406 L 8.957031 19.230469 L 9.136719 19.59375 L 8.738281 19.484375 L 8.683594 19.46875 C 8.6875 19.5 8.703125 19.515625 8.730469 19.527344 L 9.179688 19.675781 L 8.988281 19.214844 C 8.980469 19.171875 8.921875 19.148438 8.914062 19.109375 L 8.957031 19.109375 C 8.929688 19.0625 8.890625 19.027344 8.847656 19 L 8.847656 18.984375 L 8.832031 18.984375 C 8.785156 18.953125 8.75 18.914062 8.730469 18.863281 L 8.714844 18.894531 C 8.589844 18.851562 8.730469 18.804688 8.625 18.753906 L 8.699219 18.679688 C 8.613281 18.613281 8.535156 18.539062 8.457031 18.457031 C 8.550781 18.476562 8.640625 18.574219 8.714844 18.625 C 8.789062 18.671875 8.617188 18.441406 8.558594 18.441406 C 8.5 18.441406 8.617188 18.476562 8.617188 18.5 C 8.507812 18.46875 8.429688 18.402344 8.382812 18.304688 C 8.558594 18.230469 8.285156 18.007812 8.367188 17.867188 C 8.292969 17.789062 8.238281 17.699219 8.199219 17.597656 C 8.183594 17.546875 8.167969 17.496094 8.140625 17.441406 L 8.101562 17.367188 L 8.101562 17.324219 C 7.984375 17.425781 8.074219 17.300781 7.933594 17.351562 C 7.792969 17.398438 7.894531 17.308594 7.902344 17.300781 C 7.914062 17.269531 7.9375 17.25 7.96875 17.234375 C 8.019531 17.234375 8.019531 17.261719 8.058594 17.261719 C 8.101562 17.261719 8.085938 17.25 8.109375 17.25 L 8.191406 17.277344 L 8.132812 17.261719 C 8.101562 17.242188 8.101562 17.242188 8.125 17.242188 L 8.019531 17.21875 C 7.984375 17.1875 8.042969 17.195312 8.085938 17.210938 C 8.125 17.226562 8.160156 17.25 8.140625 17.210938 L 8.167969 17.25 L 8.167969 17.234375 L 8.183594 17.234375 L 8.207031 17.21875 C 8.28125 17.179688 8.332031 17.117188 8.359375 17.039062 C 8.375 17.046875 8.417969 17.070312 8.382812 17.105469 C 8.589844 17.011719 8.75 16.75 8.929688 16.726562 L 8.929688 16.765625 C 8.964844 16.734375 8.957031 16.667969 9.023438 16.667969 C 9.089844 16.667969 9.03125 16.710938 9.046875 16.703125 C 9.0625 16.691406 9.097656 16.585938 9.15625 16.578125 L 9.136719 16.636719 C 9.289062 16.578125 9.328125 16.472656 9.386719 16.363281 C 9.410156 16.324219 9.4375 16.285156 9.46875 16.25 L 9.496094 16.265625 L 9.347656 15.894531 C 9.296875 15.789062 9.15625 15.773438 9.082031 15.765625 Z M 6.273438 15.730469 L 6.285156 15.730469 L 6.257812 15.707031 C 6.265625 15.675781 6.285156 15.667969 6.300781 15.675781 Z M 6.773438 15.804688 L 6.796875 15.757812 Z M 6.847656 15.660156 C 6.824219 15.648438 6.804688 15.632812 6.824219 15.617188 C 6.839844 15.601562 6.863281 15.601562 6.898438 15.585938 C 6.878906 15.605469 6.859375 15.632812 6.847656 15.660156 Z M 3.820312 17.777344 C 3.871094 17.769531 3.917969 17.75 3.960938 17.71875 C 3.925781 17.765625 3.878906 17.785156 3.820312 17.777344 Z M 6.019531 19.5 Z M 6 19.722656 L 6 19.738281 C 5.976562 19.757812 5.960938 19.773438 5.925781 19.75 C 5.9375 19.710938 5.957031 19.683594 5.984375 19.65625 C 5.945312 19.609375 5.941406 19.558594 5.96875 19.5 L 6 19.5 C 5.984375 19.527344 5.984375 19.542969 6.007812 19.550781 L 6.007812 19.519531 C 6.101562 19.5 6.074219 19.714844 6.101562 19.738281 C 6.125 19.765625 6.035156 19.699219 6 19.722656 Z M 7.753906 18.066406 L 7.777344 18.03125 C 7.828125 18.046875 7.800781 18.082031 7.792969 18.113281 Z M 7.953125 18.261719 L 7.953125 18.277344 C 7.917969 18.214844 7.871094 18.164062 7.808594 18.121094 C 7.828125 18.097656 7.820312 18.074219 7.84375 18.082031 Z M 8.382812 16.453125 L 8.273438 16.480469 C 8.257812 16.464844 8.253906 16.445312 8.257812 16.421875 C 8.261719 16.402344 8.277344 16.386719 8.300781 16.382812 L 8.332031 16.464844 C 8.367188 16.40625 8.265625 16.4375 8.339844 16.363281 C 8.417969 16.289062 8.398438 16.414062 8.382812 16.453125 Z M 4.855469 17.457031 Z M 4.855469 17.464844 C 4.847656 17.464844 4.855469 17.457031 4.855469 17.457031 L 4.839844 17.472656 Z M 5.644531 17.972656 L 5.675781 18 C 5.695312 17.964844 5.667969 17.972656 5.644531 17.972656 Z M 5.808594 18.328125 L 5.753906 18.328125 C 5.761719 18.367188 5.777344 18.320312 5.808594 18.328125 Z M 6.425781 19.609375 L 6.425781 19.585938 C 6.425781 19.601562 6.40625 19.617188 6.425781 19.609375 Z M 6.433594 19.65625 L 6.457031 19.632812 Z M 6.332031 20.117188 C 6.324219 20.140625 6.332031 20.132812 6.332031 20.117188 Z M 7.164062 18.222656 L 7.171875 18.222656 L 7.171875 18.203125 Z M 7.089844 18.523438 Z M 5.636719 17.972656 C 5.628906 17.964844 5.628906 17.964844 5.628906 17.957031 L 5.636719 17.957031 Z M 5.527344 20.207031 C 5.527344 20.199219 5.53125 20.191406 5.535156 20.183594 C 5.527344 20.191406 5.519531 20.199219 5.527344 20.207031 Z M 5.675781 19.832031 C 5.6875 19.804688 5.675781 19.796875 5.667969 19.796875 C 5.660156 19.796875 5.667969 19.832031 5.675781 19.832031 Z M 7.976562 17.308594 L 8.050781 17.292969 L 7.96875 17.292969 C 7.941406 17.285156 7.910156 17.269531 7.886719 17.300781 Z M 7.363281 18.457031 L 7.402344 18.394531 C 7.371094 18.375 7.304688 18.433594 7.363281 18.457031 Z M 7.046875 15.824219 Z M 3.660156 17.964844 C 3.585938 17.964844 3.644531 18.007812 3.644531 18.023438 C 3.644531 18.039062 3.703125 18.007812 3.660156 17.964844 Z M 8.523438 19.410156 L 8.523438 19.394531 Z M 8.484375 19.453125 L 8.515625 19.402344 L 8.433594 19.402344 Z M 7.488281 18.5 L 7.488281 18.484375 L 7.46875 18.46875 Z M 4.523438 17.808594 C 4.523438 17.800781 4.519531 17.792969 4.507812 17.792969 Z M 7.046875 17.507812 Z M 4.050781 17.734375 L 3.992188 17.703125 C 4.019531 17.71875 4.035156 17.734375 4.050781 17.734375 Z M 5.230469 18.121094 C 5.230469 18.128906 5.230469 18.148438 5.238281 18.148438 C 5.246094 18.148438 5.230469 18.128906 5.230469 18.121094 Z M 4.5 17.546875 L 4.515625 17.546875 C 4.515625 17.53125 4.515625 17.523438 4.507812 17.523438 C 4.5 17.523438 4.507812 17.539062 4.5 17.546875 Z M 7.0625 17.515625 L 7.230469 17.613281 Z M 7.121094 16.382812 L 7.089844 16.355469 Z M 4.5 17.546875 Z M 4.257812 17.332031 L 4.285156 17.316406 Z M 4.617188 18.128906 L 4.597656 18.128906 C 4.585938 18.136719 4.582031 18.148438 4.582031 18.164062 Z M 3.777344 18.03125 C 3.792969 18.039062 3.820312 17.972656 3.828125 17.949219 C 3.816406 17.96875 3.800781 17.980469 3.777344 17.984375 Z M 4.515625 17.546875 C 4.53125 17.542969 4.539062 17.535156 4.539062 17.523438 L 4.515625 17.539062 Z M 4.816406 17.316406 Z M 25.667969 7.816406 L 25.621094 7.789062 C 25.621094 7.816406 25.652344 7.808594 25.667969 7.816406 Z M 25.023438 7.742188 C 24.980469 7.75 25.023438 7.765625 25.023438 7.796875 Z M 27.578125 7.722656 C 27.453125 7.640625 27.605469 7.78125 27.472656 7.773438 L 27.570312 7.789062 C 27.554688 7.765625 27.527344 7.722656 27.578125 7.722656 Z M 27.179688 7.734375 C 27.230469 7.714844 27.179688 7.691406 27.179688 7.675781 C 27.179688 7.660156 27.140625 7.707031 27.179688 7.734375 Z M 19.28125 8.808594 C 19.246094 8.777344 19.195312 8.769531 19.179688 8.808594 C 19.164062 8.851562 19.261719 8.824219 19.28125 8.808594 Z M 24.375 7.734375 L 24.308594 7.757812 L 24.359375 7.742188 Z M 14.855469 10.304688 L 14.816406 10.351562 L 14.839844 10.351562 Z M 20.773438 8.339844 L 20.796875 8.414062 C 20.824219 8.390625 20.808594 8.308594 20.773438 8.339844 Z M 28.175781 8.128906 C 28.1875 8.128906 28.195312 8.117188 28.199219 8.101562 L 28.175781 8.101562 Z M 25.695312 7.824219 Z M 23.867188 7.914062 C 23.878906 7.90625 23.886719 7.898438 23.886719 7.890625 C 23.886719 7.878906 23.859375 7.90625 23.867188 7.914062 Z M 26.464844 7.714844 L 26.484375 7.714844 C 26.492188 7.707031 26.492188 7.691406 26.5 7.683594 Z M 27.054688 7.796875 C 27.0625 7.765625 27.082031 7.75 27.089844 7.75 C 27.089844 7.730469 27.085938 7.714844 27.082031 7.699219 C 27.074219 7.699219 27.0625 7.765625 27.054688 7.796875 Z M 23.546875 7.855469 L 23.5625 7.855469 C 23.554688 7.855469 23.554688 7.847656 23.546875 7.855469 Z M 26.027344 7.707031 Z M 21.703125 8.144531 C 21.703125 8.136719 21.695312 8.128906 21.6875 8.109375 C 21.6875 8.125 21.691406 8.136719 21.703125 8.144531 Z M 21.195312 8.300781 L 21.179688 8.300781 Z M 22.664062 8.035156 Z M 22.972656 7.847656 C 22.988281 7.839844 22.980469 7.847656 22.972656 7.847656 Z M 28.582031 8.003906 C 28.578125 7.984375 28.578125 7.964844 28.582031 7.945312 C 28.535156 7.996094 28.515625 8.058594 28.523438 8.128906 C 28.558594 8.054688 28.566406 8.085938 28.609375 7.996094 C 28.648438 7.90625 28.65625 8.019531 28.65625 8.054688 C 28.65625 8.085938 28.699219 8.070312 28.714844 8.019531 C 28.730469 7.972656 28.632812 7.953125 28.582031 8.003906 Z M 28.441406 8.136719 Z M 28.441406 8.144531 Z M 11.679688 12.816406 L 11.628906 12.785156 C 11.660156 12.816406 11.601562 12.875 11.679688 12.816406 Z M 28.757812 8.042969 L 28.730469 8.128906 L 28.773438 8.101562 C 28.789062 8.085938 28.78125 8.035156 28.757812 8.042969 Z M 28.492188 8.109375 L 28.457031 8.128906 C 28.464844 8.128906 28.484375 8.136719 28.492188 8.109375 Z M 12.300781 11.839844 C 12.292969 11.839844 12.292969 11.839844 12.292969 11.847656 L 12.308594 11.847656 L 12.308594 11.832031 Z M 28.308594 8.109375 C 28.367188 8.09375 28.464844 8.078125 28.484375 8.011719 L 28.457031 7.996094 C 28.460938 8.019531 28.457031 8.042969 28.441406 8.0625 C 28.382812 8.109375 28.367188 8.035156 28.367188 8.011719 L 28.398438 7.996094 C 28.375 7.855469 28.25 8.011719 28.175781 8.003906 L 28.210938 7.898438 L 28.125 7.980469 C 28.117188 7.953125 28.109375 7.898438 28.144531 7.878906 C 28.175781 7.863281 28.09375 7.914062 28.050781 7.855469 C 28.011719 7.796875 28.042969 7.847656 28.050781 7.839844 L 27.992188 7.871094 C 28.011719 7.847656 27.992188 7.796875 28.027344 7.816406 C 27.925781 7.75 27.867188 7.878906 27.835938 7.808594 L 27.84375 7.808594 C 27.703125 7.832031 27.828125 7.878906 27.71875 7.960938 L 27.660156 7.773438 L 27.644531 7.847656 C 27.628906 7.847656 27.605469 7.839844 27.613281 7.816406 C 27.621094 7.789062 27.621094 7.847656 27.585938 7.890625 C 27.554688 7.929688 27.40625 7.921875 27.394531 7.796875 C 27.371094 7.855469 27.453125 7.847656 27.386719 7.890625 C 27.363281 7.757812 27.304688 7.90625 27.246094 7.847656 C 27.1875 7.789062 27.320312 7.816406 27.253906 7.757812 C 27.222656 7.871094 27.140625 7.734375 27.089844 7.757812 C 27.039062 7.78125 26.980469 7.789062 26.890625 7.824219 C 26.796875 7.855469 26.730469 7.773438 26.648438 7.742188 C 26.640625 7.832031 26.558594 7.816406 26.5 7.832031 C 26.441406 7.847656 26.507812 7.757812 26.542969 7.734375 L 26.484375 7.734375 C 26.476562 7.757812 26.457031 7.773438 26.417969 7.789062 L 26.433594 7.714844 C 26.359375 7.722656 26.285156 7.796875 26.183594 7.757812 C 26.085938 7.714844 26.265625 7.929688 26.167969 7.980469 C 26.066406 8.027344 26.152344 7.878906 26.183594 7.863281 C 26.21875 7.847656 26.152344 7.898438 26.132812 7.878906 L 26.167969 7.824219 C 26.125 7.796875 26.152344 7.871094 26.117188 7.871094 C 26.085938 7.871094 26.085938 7.839844 26.09375 7.796875 C 26.101562 7.757812 26.125 7.816406 26.132812 7.796875 C 26.085938 7.792969 26.050781 7.765625 26.027344 7.722656 C 26.035156 7.757812 26.035156 7.789062 26 7.796875 C 25.96875 7.808594 25.976562 7.742188 25.925781 7.722656 C 25.878906 7.707031 25.859375 7.722656 25.867188 7.796875 C 25.878906 7.871094 25.835938 7.765625 25.828125 7.742188 C 25.820312 7.714844 25.644531 7.765625 25.695312 7.839844 L 25.703125 7.839844 C 25.578125 7.914062 25.4375 7.808594 25.3125 7.847656 L 25.3125 7.824219 C 25.238281 7.855469 25.140625 7.847656 25.089844 7.90625 C 25.054688 7.890625 25.039062 7.867188 25.046875 7.832031 C 24.988281 7.855469 24.980469 7.878906 24.898438 7.847656 C 24.957031 7.796875 24.875 7.816406 24.957031 7.816406 C 24.882812 7.796875 24.855469 7.757812 24.78125 7.832031 C 24.808594 7.773438 24.722656 7.765625 24.691406 7.78125 L 24.742188 7.824219 C 24.703125 7.835938 24.667969 7.835938 24.632812 7.832031 L 24.632812 7.75 C 24.476562 7.667969 24.375 7.945312 24.242188 7.789062 C 24.210938 7.855469 24.332031 7.824219 24.300781 7.898438 C 24.265625 7.972656 24.144531 7.78125 24.125 7.78125 C 24.109375 7.78125 24.042969 7.914062 23.945312 7.890625 C 23.984375 7.945312 23.972656 7.992188 23.910156 8.027344 C 23.835938 8.019531 23.8125 7.914062 23.851562 7.890625 C 23.894531 7.863281 23.878906 7.890625 23.878906 7.898438 C 23.878906 7.90625 23.925781 7.871094 23.894531 7.847656 L 23.894531 7.871094 C 23.859375 7.847656 23.761719 7.863281 23.777344 7.808594 C 23.792969 7.75 23.761719 7.863281 23.800781 7.871094 C 23.703125 7.839844 23.660156 7.878906 23.5625 7.871094 C 23.460938 7.863281 23.601562 7.914062 23.585938 7.914062 C 23.570312 7.914062 23.527344 7.980469 23.445312 8.003906 C 23.363281 8.027344 23.445312 7.898438 23.363281 7.945312 C 23.28125 7.996094 23.335938 7.871094 23.355469 7.847656 C 23.371094 7.824219 23.195312 7.832031 23.148438 7.832031 L 23.1875 7.796875 C 23.167969 7.8125 23.140625 7.824219 23.113281 7.824219 L 23.148438 7.878906 C 23.121094 7.871094 23.097656 7.871094 23.097656 7.847656 C 23.097656 7.824219 23.128906 7.945312 23.089844 8.003906 C 23.046875 8.0625 22.988281 8.054688 22.964844 7.972656 C 23.074219 7.988281 22.941406 7.898438 23.03125 7.871094 C 23.011719 7.886719 22.988281 7.890625 22.964844 7.878906 C 22.957031 7.871094 22.964844 7.863281 22.972656 7.855469 C 22.980469 7.847656 22.941406 7.953125 22.824219 7.972656 C 22.832031 7.921875 22.789062 7.890625 22.773438 7.90625 C 22.757812 7.921875 22.808594 7.972656 22.773438 8.011719 C 22.742188 8.054688 22.699219 8.042969 22.664062 8.042969 L 22.707031 8.042969 C 22.699219 8.09375 22.664062 8.09375 22.617188 8.109375 C 22.613281 8.101562 22.617188 8.09375 22.625 8.085938 C 22.582031 8.128906 22.5 8.019531 22.433594 8.070312 C 22.367188 8.117188 22.417969 7.996094 22.382812 7.980469 C 22.351562 7.960938 22.285156 7.9375 22.199219 7.996094 C 22.242188 8.054688 22.242188 8.035156 22.191406 8.101562 L 22.324219 8.035156 L 22.25 8.136719 C 22.292969 8.128906 22.332031 8.085938 22.367188 8.085938 C 22.398438 8.085938 22.324219 8.128906 22.359375 8.167969 C 22.390625 8.210938 22.25 8.242188 22.167969 8.199219 L 22.152344 8.054688 C 22.035156 8.011719 21.976562 8.167969 21.835938 8.152344 L 21.886719 8.167969 C 21.878906 8.234375 21.800781 8.191406 21.761719 8.226562 C 21.71875 8.257812 21.726562 8.167969 21.703125 8.144531 C 21.679688 8.117188 21.601562 8.152344 21.613281 8.25 L 21.535156 8.199219 C 21.429688 8.199219 21.445312 8.363281 21.335938 8.363281 C 21.230469 8.363281 21.304688 8.28125 21.363281 8.234375 C 21.421875 8.183594 21.296875 8.234375 21.304688 8.265625 C 21.3125 8.300781 21.222656 8.347656 21.179688 8.316406 C 21.136719 8.28125 21.171875 8.390625 21.136719 8.390625 C 21.132812 8.382812 21.128906 8.375 21.128906 8.363281 C 21.136719 8.390625 21.074219 8.414062 21.121094 8.457031 C 20.980469 8.332031 20.832031 8.539062 20.707031 8.429688 C 20.632812 8.464844 20.558594 8.496094 20.484375 8.519531 C 20.484375 8.503906 20.476562 8.496094 20.492188 8.503906 C 20.507812 8.511719 20.464844 8.652344 20.351562 8.628906 C 20.234375 8.601562 20.390625 8.570312 20.351562 8.554688 C 20.300781 8.398438 20.234375 8.601562 20.132812 8.53125 L 20.152344 8.53125 C 20.085938 8.488281 20.035156 8.621094 19.933594 8.628906 L 19.933594 8.601562 C 19.894531 8.695312 19.785156 8.75 19.703125 8.800781 C 19.621094 8.851562 19.734375 8.757812 19.703125 8.703125 C 19.667969 8.644531 19.746094 8.800781 19.667969 8.832031 C 19.59375 8.867188 19.570312 8.800781 19.546875 8.734375 L 19.621094 8.710938 C 19.554688 8.636719 19.527344 8.742188 19.480469 8.734375 L 19.480469 8.695312 C 19.371094 8.742188 19.394531 8.832031 19.269531 8.867188 L 19.296875 8.890625 C 19.253906 8.996094 19.222656 8.851562 19.179688 8.941406 L 19.128906 8.851562 C 19.074219 8.914062 19.011719 8.972656 18.9375 9.023438 C 18.976562 8.945312 19.023438 8.878906 19.089844 8.824219 C 19.039062 8.832031 18.9375 8.875 18.929688 8.921875 C 18.921875 8.972656 18.964844 8.882812 18.980469 8.890625 C 18.960938 8.980469 18.902344 9.035156 18.816406 9.054688 C 18.773438 8.875 18.582031 9.070312 18.476562 8.957031 C 18.351562 9.070312 18.167969 9.03125 18 9.097656 C 18.109375 9.21875 17.953125 9.121094 18.011719 9.261719 C 18.066406 9.398438 17.960938 9.285156 17.953125 9.277344 L 17.800781 9.226562 C 17.761719 9.195312 17.828125 9.1875 17.8125 9.152344 C 17.792969 9.121094 17.753906 9.105469 17.6875 9.089844 C 17.621094 9.070312 17.679688 9.171875 17.621094 9.171875 L 17.71875 9.210938 C 17.621094 9.324219 17.570312 9.128906 17.46875 9.242188 L 17.496094 9.1875 C 17.46875 9.210938 17.402344 9.226562 17.355469 9.261719 C 17.289062 9.289062 17.25 9.339844 17.238281 9.410156 C 17.222656 9.390625 17.195312 9.359375 17.222656 9.34375 C 17.0625 9.382812 16.929688 9.589844 16.789062 9.5625 L 16.789062 9.523438 C 16.765625 9.546875 16.765625 9.613281 16.714844 9.589844 C 16.664062 9.5625 16.714844 9.546875 16.699219 9.554688 C 16.683594 9.5625 16.648438 9.636719 16.605469 9.636719 L 16.625 9.589844 C 16.457031 9.597656 16.433594 9.769531 16.324219 9.835938 C 16.285156 9.738281 16.152344 9.746094 16.09375 9.753906 L 16.085938 9.753906 C 15.910156 9.8125 15.835938 9.957031 15.703125 10.066406 C 15.5625 10 15.355469 10.164062 15.179688 10.171875 C 15.203125 10.179688 15.203125 10.246094 15.1875 10.269531 C 15.171875 10.296875 15.121094 10.386719 15.082031 10.285156 L 15.097656 10.285156 C 15.023438 10.214844 14.964844 10.261719 14.90625 10.285156 L 14.949219 10.410156 C 14.722656 10.3125 14.589844 10.664062 14.441406 10.558594 C 14.417969 10.597656 14.375 10.625 14.351562 10.671875 L 14.324219 10.605469 C 14.222656 10.632812 14.128906 10.671875 14.042969 10.730469 L 14.042969 10.671875 C 13.96875 10.707031 14.042969 10.894531 13.984375 10.9375 L 13.917969 10.855469 C 13.792969 10.910156 13.636719 10.902344 13.5625 11.042969 C 13.5625 11.035156 13.546875 11 13.5625 10.984375 C 13.578125 10.96875 13.3125 11.042969 13.402344 11.15625 C 13.355469 11.082031 13.28125 11.222656 13.238281 11.289062 L 13.214844 11.222656 C 13.203125 11.328125 13.214844 11.355469 13.148438 11.414062 C 13.082031 11.46875 13.113281 11.386719 13.128906 11.378906 C 13.148438 11.371094 13.121094 11.460938 13.039062 11.46875 L 13.039062 11.414062 C 12.980469 11.445312 12.996094 11.460938 12.988281 11.527344 C 12.933594 11.582031 12.878906 11.582031 12.824219 11.527344 C 12.832031 11.558594 12.824219 11.625 12.78125 11.625 C 12.769531 11.613281 12.769531 11.601562 12.773438 11.585938 C 12.648438 11.601562 12.664062 11.742188 12.566406 11.722656 L 12.53125 11.691406 C 12.578125 11.660156 12.625 11.636719 12.671875 11.617188 C 12.640625 11.566406 12.566406 11.59375 12.574219 11.484375 C 12.550781 11.558594 12.515625 11.707031 12.441406 11.714844 L 12.417969 11.714844 L 12.417969 11.699219 C 12.390625 11.707031 12.382812 11.714844 12.382812 11.734375 L 12.316406 11.75 C 12.285156 11.707031 12.234375 11.773438 12.199219 11.789062 C 12.167969 11.804688 12.191406 11.863281 12.257812 11.886719 C 12.324219 11.914062 12.257812 11.871094 12.285156 11.863281 L 12.285156 11.824219 L 12.359375 11.765625 C 12.351562 11.816406 12.339844 11.855469 12.285156 11.839844 C 12.292969 11.878906 12.296875 11.921875 12.300781 11.960938 C 12.207031 11.914062 12.09375 11.914062 12.050781 11.871094 C 11.976562 11.960938 11.835938 12.035156 11.851562 12.183594 C 11.867188 12.332031 11.792969 12.167969 11.777344 12.160156 C 11.761719 12.152344 11.800781 12.125 11.800781 12.109375 C 11.800781 12.09375 11.644531 12.21875 11.6875 12.308594 C 11.59375 12.316406 11.679688 12.207031 11.59375 12.28125 L 11.59375 12.25 C 11.328125 12.25 11.4375 12.644531 11.128906 12.628906 L 11.171875 12.628906 C 11.039062 12.683594 10.917969 12.757812 10.816406 12.859375 C 10.710938 12.960938 10.589844 13.03125 10.449219 13.070312 C 10.367188 13.097656 10.398438 13.144531 10.382812 13.210938 L 10.324219 13.160156 L 10.324219 13.277344 C 10.265625 13.398438 10.050781 13.25 10.007812 13.433594 L 10.058594 13.464844 C 10.007812 13.488281 9.941406 13.589844 9.910156 13.53125 C 9.875 13.472656 9.933594 13.589844 9.902344 13.582031 L 9.875 13.546875 L 9.808594 13.679688 C 9.71875 13.71875 9.726562 13.546875 9.613281 13.628906 C 9.496094 13.710938 9.5625 13.808594 9.585938 13.820312 C 9.621094 13.800781 9.652344 13.804688 9.679688 13.835938 L 9.652344 13.875 C 9.710938 13.976562 9.761719 14.089844 9.902344 14.082031 L 9.925781 13.976562 L 9.984375 14 L 9.925781 14.046875 C 9.992188 14.066406 9.984375 14.007812 9.984375 13.964844 C 10.003906 13.984375 10.023438 13.996094 10.050781 14 L 10.050781 13.875 C 10.085938 13.910156 10.074219 13.964844 10.132812 13.957031 C 10.191406 13.949219 10.042969 13.902344 10.074219 13.835938 C 10.109375 13.769531 10.160156 13.890625 10.167969 13.828125 C 10.1875 13.84375 10.195312 13.867188 10.183594 13.890625 C 10.199219 13.835938 10.265625 13.808594 10.242188 13.753906 C 10.21875 13.695312 10.339844 13.65625 10.40625 13.746094 C 10.402344 13.695312 10.414062 13.648438 10.441406 13.605469 C 10.464844 13.753906 10.558594 13.523438 10.632812 13.644531 C 10.597656 13.523438 10.75 13.488281 10.78125 13.382812 C 10.816406 13.277344 10.78125 13.417969 10.773438 13.417969 C 10.765625 13.417969 10.855469 13.40625 10.898438 13.40625 C 10.9375 13.40625 10.898438 13.269531 10.898438 13.195312 C 10.898438 13.121094 10.929688 13.308594 10.996094 13.367188 C 11.0625 13.425781 11.046875 13.242188 10.988281 13.203125 C 11.0625 13.21875 11.039062 13.203125 11.105469 13.25 C 11.046875 13.152344 11.128906 13.210938 11.121094 13.128906 C 11.113281 13.046875 11.203125 13.210938 11.246094 13.136719 C 11.289062 13.0625 11.261719 13.21875 11.261719 13.21875 C 11.261719 13.21875 11.246094 13.128906 11.230469 13.070312 C 11.214844 13.015625 11.304688 13.105469 11.355469 13.128906 C 11.402344 13.152344 11.378906 12.980469 11.414062 12.957031 C 11.445312 12.929688 11.4375 12.964844 11.4375 12.988281 C 11.4375 13.015625 11.585938 12.882812 11.59375 12.765625 L 11.613281 12.785156 C 11.582031 12.753906 11.558594 12.71875 11.535156 12.683594 C 11.5625 12.660156 11.554688 12.59375 11.601562 12.644531 C 11.652344 12.695312 11.59375 12.667969 11.59375 12.695312 L 11.613281 12.652344 C 11.6875 12.703125 11.585938 12.703125 11.621094 12.757812 C 11.667969 12.695312 11.695312 12.585938 11.753906 12.578125 C 11.8125 12.570312 11.660156 12.667969 11.769531 12.695312 L 11.679688 12.710938 C 11.8125 12.785156 11.628906 12.734375 11.761719 12.816406 C 11.894531 12.898438 11.835938 12.710938 11.945312 12.667969 C 12.050781 12.628906 11.902344 12.621094 11.894531 12.570312 C 11.886719 12.519531 12.117188 12.675781 12.152344 12.519531 C 12.183594 12.363281 12.101562 12.363281 12.199219 12.363281 L 12.234375 12.464844 C 12.324219 12.414062 12.207031 12.316406 12.339844 12.308594 C 12.339844 12.347656 12.285156 12.382812 12.308594 12.382812 C 12.332031 12.382812 12.316406 12.308594 12.367188 12.28125 L 12.425781 12.347656 C 12.515625 12.273438 12.589844 12.152344 12.691406 12.078125 C 12.789062 12.003906 12.691406 12.136719 12.730469 12.144531 C 12.789062 12.082031 12.859375 12.035156 12.9375 12.003906 C 13.019531 11.976562 13.101562 11.953125 13.1875 11.9375 L 13.203125 11.847656 C 13.222656 11.839844 13.246094 11.863281 13.238281 11.878906 C 13.230469 11.898438 13.222656 11.839844 13.230469 11.804688 C 13.238281 11.773438 13.289062 11.816406 13.28125 11.847656 C 13.347656 11.742188 13.480469 11.585938 13.621094 11.59375 L 13.621094 11.625 C 13.710938 11.609375 13.628906 11.445312 13.734375 11.46875 L 13.734375 11.484375 C 13.917969 11.421875 14.066406 11.257812 14.25 11.296875 C 14.226562 11.191406 14.441406 11.257812 14.382812 11.117188 C 14.515625 11.132812 14.5 11.175781 14.65625 11.148438 C 14.816406 11.125 14.671875 11.035156 14.707031 11 L 14.75 11.066406 L 14.773438 10.96875 L 14.847656 11.035156 L 14.882812 10.992188 C 14.851562 11 14.832031 10.988281 14.824219 10.960938 C 14.890625 10.902344 14.957031 10.902344 15.023438 10.960938 L 15.15625 10.828125 C 15.164062 10.84375 15.148438 10.871094 15.136719 10.886719 C 15.128906 10.902344 15.179688 10.960938 15.222656 10.871094 C 15.261719 10.78125 15.214844 10.828125 15.203125 10.8125 C 15.285156 10.828125 15.355469 10.804688 15.414062 10.746094 L 15.414062 10.804688 C 15.542969 10.746094 15.664062 10.679688 15.785156 10.605469 C 15.726562 10.605469 15.703125 10.523438 15.734375 10.5 L 15.785156 10.566406 C 15.785156 10.507812 15.726562 10.550781 15.753906 10.476562 C 15.777344 10.402344 15.828125 10.542969 15.8125 10.582031 L 15.859375 10.523438 C 15.867188 10.550781 15.859375 10.566406 15.867188 10.597656 C 15.878906 10.632812 16.011719 10.625 16.011719 10.523438 L 16.027344 10.550781 C 16.125 10.5 16.21875 10.445312 16.308594 10.386719 C 16.285156 10.320312 16.332031 10.320312 16.34375 10.253906 C 16.351562 10.1875 16.550781 10.253906 16.640625 10.214844 C 16.730469 10.171875 16.640625 10.148438 16.65625 10.097656 C 16.671875 10.050781 16.78125 10.113281 16.75 10.171875 C 16.847656 10.128906 16.941406 10.070312 17.023438 10 C 16.996094 9.984375 16.972656 9.984375 16.972656 9.957031 C 16.972656 9.933594 17.046875 9.957031 17.054688 9.984375 L 17.046875 9.984375 C 17.179688 9.835938 17.496094 10.007812 17.585938 9.835938 L 17.578125 9.835938 L 17.695312 9.730469 C 17.761719 9.710938 17.679688 9.785156 17.734375 9.800781 C 17.851562 9.65625 17.976562 9.738281 18.078125 9.628906 C 18.234375 9.769531 18.417969 9.5 18.582031 9.574219 L 18.566406 9.53125 C 18.582031 9.480469 18.609375 9.539062 18.640625 9.539062 C 18.675781 9.539062 18.589844 9.515625 18.609375 9.492188 C 18.746094 9.414062 18.890625 9.375 19.046875 9.367188 C 19.203125 9.351562 19.371094 9.351562 19.519531 9.324219 C 19.667969 9.300781 19.519531 9.089844 19.6875 9.144531 L 19.667969 9.234375 C 19.765625 9.167969 19.871094 9.121094 19.984375 9.097656 C 20.101562 9.085938 20.210938 9.050781 20.308594 8.988281 C 20.300781 9.003906 20.308594 9.03125 20.292969 9.039062 C 20.277344 9.046875 20.457031 8.996094 20.449219 8.957031 C 20.441406 8.914062 20.464844 8.988281 20.492188 9.015625 C 20.515625 9.039062 20.589844 8.90625 20.625 8.964844 C 20.65625 9.023438 20.617188 8.980469 20.609375 8.988281 C 20.597656 8.996094 20.75 8.964844 20.707031 8.90625 C 20.796875 8.914062 20.855469 8.839844 20.929688 8.859375 C 21.007812 8.875 21.082031 8.867188 21.0625 8.757812 C 21.089844 8.867188 21.230469 8.808594 21.269531 8.75 C 21.3125 8.695312 21.320312 8.777344 21.3125 8.824219 C 21.304688 8.875 21.421875 8.785156 21.394531 8.726562 C 21.535156 8.832031 21.59375 8.578125 21.695312 8.734375 C 21.847656 8.648438 22.003906 8.574219 22.167969 8.511719 C 22.175781 8.628906 21.992188 8.5625 22.019531 8.667969 C 22.160156 8.59375 22.234375 8.488281 22.382812 8.488281 C 22.53125 8.488281 22.367188 8.539062 22.359375 8.5625 C 22.5 8.480469 22.65625 8.519531 22.78125 8.4375 C 22.90625 8.355469 22.765625 8.464844 22.757812 8.480469 C 22.75 8.496094 22.816406 8.480469 22.808594 8.429688 L 22.78125 8.457031 C 22.730469 8.382812 22.863281 8.28125 22.863281 8.25 C 22.839844 8.398438 23.007812 8.265625 22.957031 8.457031 C 22.980469 8.4375 22.992188 8.414062 22.988281 8.382812 C 23.015625 8.390625 23.023438 8.40625 23.007812 8.449219 C 22.988281 8.488281 23.054688 8.355469 23.140625 8.347656 C 23.136719 8.371094 23.128906 8.394531 23.121094 8.414062 C 23.15625 8.355469 23.195312 8.308594 23.273438 8.316406 C 23.347656 8.324219 23.28125 8.347656 23.253906 8.347656 C 23.378906 8.324219 23.453125 8.191406 23.59375 8.21875 C 23.570312 8.332031 23.652344 8.25 23.667969 8.339844 L 23.734375 8.300781 L 23.703125 8.257812 C 23.769531 8.257812 23.820312 8.183594 23.878906 8.210938 L 23.835938 8.25 L 23.953125 8.226562 L 23.878906 8.191406 C 23.945312 8.144531 23.859375 8.078125 23.953125 8.09375 C 24.042969 8.109375 24.019531 8.09375 24.058594 8.144531 L 24.050781 8.144531 C 24.085938 8.109375 24.117188 8.078125 24.167969 8.09375 C 24.21875 8.109375 24.167969 8.191406 24.175781 8.21875 C 24.183594 8.242188 24.324219 8.175781 24.359375 8.09375 C 24.351562 8.117188 24.351562 8.144531 24.359375 8.167969 L 24.375 8.101562 C 24.410156 8.117188 24.417969 8.128906 24.417969 8.167969 C 24.417969 8.210938 24.375 8.054688 24.484375 8.09375 C 24.589844 8.136719 24.484375 8.109375 24.464844 8.117188 C 24.449219 8.128906 24.675781 8.0625 24.773438 8.085938 C 24.875 8.109375 24.691406 8.109375 24.730469 8.183594 C 24.804688 8.164062 24.878906 8.140625 24.949219 8.109375 C 25.011719 8.078125 25.082031 8.0625 25.15625 8.0625 L 25.128906 8.0625 C 25.140625 7.929688 25.238281 8.128906 25.304688 8.0625 C 25.371094 7.996094 25.289062 8.136719 25.296875 8.117188 C 25.304688 8.101562 25.488281 8.078125 25.628906 8.027344 L 25.613281 8.0625 C 25.679688 8.074219 25.75 8.082031 25.820312 8.085938 C 25.835938 8.042969 25.867188 8.054688 25.851562 8.003906 C 26.042969 8.183594 26.199219 7.878906 26.375 8.035156 C 26.359375 8.035156 26.324219 8.070312 26.34375 8.070312 L 26.484375 8.035156 C 26.476562 7.980469 26.464844 8.003906 26.433594 7.960938 C 26.449219 7.921875 26.480469 7.902344 26.523438 7.898438 C 26.464844 7.9375 26.53125 7.988281 26.558594 8.019531 C 26.582031 8.054688 26.566406 7.988281 26.558594 7.972656 C 26.550781 7.953125 26.566406 7.855469 26.675781 7.921875 L 26.675781 7.945312 C 26.714844 7.9375 26.75 7.898438 26.789062 7.90625 C 26.832031 7.914062 26.75 7.929688 26.75 7.988281 C 26.75 8.042969 26.855469 7.863281 26.914062 7.929688 L 26.832031 7.960938 C 26.882812 8.042969 26.890625 8.019531 26.929688 8.035156 L 27.03125 8.070312 L 27.007812 8.042969 C 27.074219 7.871094 27.148438 8.011719 27.246094 7.90625 C 27.148438 8.011719 27.230469 7.960938 27.222656 8.035156 C 27.214844 8.109375 27.28125 8.078125 27.273438 8.101562 C 27.261719 8.128906 27.347656 8.152344 27.414062 8.0625 C 27.480469 7.972656 27.460938 8.0625 27.453125 8.128906 C 27.445312 8.191406 27.4375 8.078125 27.445312 8.054688 C 27.453125 8.027344 27.652344 8.160156 27.785156 8.054688 C 27.917969 7.945312 27.925781 7.929688 28.035156 7.890625 C 28.144531 7.847656 28 7.980469 28 7.980469 C 28.054688 8.011719 28.105469 8.015625 28.160156 7.988281 C 28.144531 8.003906 28.160156 8.019531 28.167969 8.054688 C 28.175781 8.085938 28.199219 7.960938 28.257812 8.003906 C 28.25 8.039062 28.234375 8.066406 28.210938 8.09375 C 28.265625 8.070312 28.316406 8.042969 28.367188 8.011719 C 28.375 8.070312 28.324219 8.085938 28.308594 8.109375 Z M 12.292969 11.765625 C 12.292969 11.75 12.285156 11.742188 12.285156 11.722656 C 12.296875 11.703125 12.3125 11.703125 12.324219 11.722656 Z M 12.65625 12.078125 L 12.691406 12.054688 Z M 12.757812 12.003906 C 12.738281 11.988281 12.730469 11.960938 12.75 11.953125 C 12.765625 11.945312 12.789062 11.96875 12.816406 11.96875 Z M 22.640625 8.070312 L 22.625 8.085938 C 22.632812 8.078125 22.648438 8.078125 22.640625 8.070312 Z M 28.449219 7.988281 Z M 20.699219 8.421875 Z M 26.921875 8.042969 L 26.980469 8.070312 Z M 23.953125 8.199219 C 23.976562 8.210938 23.996094 8.207031 24.019531 8.191406 C 23.992188 8.191406 23.976562 8.183594 23.953125 8.199219 Z M 28.175781 8.085938 C 28.175781 8.101562 28.171875 8.109375 28.160156 8.117188 C 28.167969 8.117188 28.175781 8.117188 28.175781 8.109375 C 28.1875 8.101562 28.1875 8.09375 28.175781 8.085938 Z M 26.558594 8.027344 C 26.558594 8.035156 26.5625 8.039062 26.566406 8.042969 Z M 27.207031 8.078125 C 27.210938 8.066406 27.214844 8.054688 27.214844 8.042969 Z M 24.683594 8.199219 L 24.683594 8.136719 L 24.632812 8.160156 Z M 28.058594 8.09375 L 28.058594 8.117188 C 28.058594 8.109375 28.058594 8.101562 28.058594 8.09375 Z M 17.910156 9.121094 C 17.984375 9.160156 17.84375 9.226562 17.953125 9.269531 C 18.058594 9.308594 17.992188 9.136719 17.910156 9.121094 Z M 27.945312 8.101562 C 27.96875 8.101562 28.011719 8.152344 28.042969 8.144531 L 28.042969 8.117188 C 28.035156 8.160156 27.96875 8.054688 27.945312 8.101562 Z M 28.160156 8.117188 Z M 14.75 11.082031 L 14.75 11.09375 Z M 24.019531 8.191406 C 24.042969 8.199219 24.058594 8.191406 24.050781 8.160156 Z M 10.425781 13.753906 Z M 9.652344 13.902344 L 9.660156 13.902344 L 9.636719 13.875 Z M 14.882812 10.976562 L 14.882812 10.992188 C 14.882812 10.992188 14.882812 10.984375 14.882812 10.976562 Z M 22.757812 8.496094 L 22.75 8.496094 C 22.722656 8.511719 22.742188 8.503906 22.757812 8.496094 Z M 21.3125 8.839844 Z M 20.988281 8.914062 L 20.929688 8.875 C 20.929688 8.882812 20.921875 8.890625 20.921875 8.898438 Z M 21.304688 8.839844 Z M 21.304688 8.839844 " fill-opacity="1" fill-rule="nonzero"/></g></svg>