<svg xmlns="http://www.w3.org/2000/svg" xmlns:xlink="http://www.w3.org/1999/xlink" width="40" zoomAndPan="magnify" viewBox="0 0 30 30.000001" height="40" preserveAspectRatio="xMidYMid meet" version="1.0"><defs><clipPath id="aacce67d09"><path d="M 0.484375 0 L 29.515625 0 L 29.515625 29.03125 L 0.484375 29.03125 Z M 0.484375 0 " clip-rule="nonzero"/></clipPath><clipPath id="3c33f43bed"><path d="M 3.386719 7.617188 L 28.789062 7.617188 L 28.789062 20.683594 L 3.386719 20.683594 Z M 3.386719 7.617188 " clip-rule="nonzero"/></clipPath></defs><g clip-path="url(#aacce67d09)"><path fill="#ffffff" d="M 0.484375 0 L 29.515625 0 L 29.515625 29.03125 L 0.484375 29.03125 Z M 0.484375 0 " fill-opacity="1" fill-rule="nonzero"/><path fill="#ffffff" d="M 0.484375 0 L 29.515625 0 L 29.515625 29.03125 L 0.484375 29.03125 Z M 0.484375 0 " fill-opacity="1" fill-rule="nonzero"/></g><g clip-path="url(#3c33f43bed)"><path fill="#000000" d="M 4.214844 17.601562 C 4.246094 17.59375 4.3125 17.621094 4.355469 17.59375 L 4.355469 17.570312 C 4.335938 17.613281 4.230469 17.546875 4.214844 17.601562 Z M 4.925781 17.398438 C 4.960938 17.308594 4.976562 17.339844 5 17.242188 C 5.046875 17.214844 5.074219 17.230469 5.074219 17.285156 C 5.082031 17.257812 5.132812 17.292969 5.148438 17.234375 C 5.078125 17.164062 5.015625 17.171875 4.96875 17.257812 C 4.953125 17.242188 4.960938 17.21875 4.960938 17.203125 C 4.902344 17.257812 4.890625 17.324219 4.925781 17.398438 Z M 5.402344 16.261719 C 5.394531 16.226562 5.386719 16.195312 5.386719 16.160156 C 5.394531 16.234375 5.378906 16.242188 5.402344 16.261719 Z M 5.199219 17.25 L 5.199219 17.332031 L 5.246094 17.300781 C 5.253906 17.277344 5.238281 17.234375 5.199219 17.25 Z M 6.082031 18.855469 L 6.125 18.808594 L 6.066406 18.773438 Z M 7.589844 15.882812 L 7.621094 15.867188 L 7.589844 15.867188 Z M 5.3125 16.367188 Z M 5.28125 16.128906 C 5.289062 16.148438 5.296875 16.167969 5.3125 16.1875 C 5.296875 16.167969 5.289062 16.148438 5.28125 16.128906 Z M 5.246094 17.09375 Z M 8.710938 18.832031 C 8.753906 18.777344 8.742188 18.742188 8.679688 18.71875 C 8.695312 18.757812 8.6875 18.816406 8.710938 18.832031 Z M 6.269531 15.785156 L 6.269531 15.800781 L 6.296875 15.800781 L 6.277344 15.785156 Z M 6.992188 15.546875 L 7.007812 15.546875 L 6.992188 15.523438 Z M 5.941406 19.617188 L 5.96875 19.683594 C 5.976562 19.652344 5.984375 19.625 5.941406 19.617188 Z M 5.605469 19.136719 Z M 4.886719 17.390625 L 4.851562 17.421875 C 4.863281 17.414062 4.878906 17.414062 4.886719 17.390625 Z M 9.007812 15.742188 L 9.007812 15.726562 C 8.769531 15.734375 8.613281 15.859375 8.398438 15.914062 C 8.253906 15.816406 7.933594 15.914062 7.710938 15.875 C 7.730469 15.882812 7.730469 15.898438 7.71875 15.925781 L 7.703125 15.949219 L 7.6875 15.964844 C 7.679688 15.957031 7.664062 15.980469 7.648438 15.988281 C 7.628906 15.996094 7.628906 15.996094 7.648438 15.949219 C 7.652344 15.925781 7.65625 15.898438 7.65625 15.875 L 7.636719 15.875 L 7.523438 15.996094 C 7.53125 15.957031 7.546875 15.917969 7.566406 15.882812 C 7.566406 15.863281 7.558594 15.84375 7.546875 15.824219 L 7.546875 15.6875 C 7.558594 15.636719 7.582031 15.59375 7.621094 15.5625 C 7.597656 15.515625 7.605469 15.449219 7.574219 15.390625 L 7.648438 15.390625 C 7.675781 15.261719 7.6875 15.132812 7.6875 15 L 7.738281 15.039062 C 7.746094 14.941406 7.546875 14.898438 7.546875 14.800781 L 7.65625 14.785156 C 7.671875 14.613281 7.777344 14.441406 7.695312 14.261719 C 7.710938 14.261719 7.746094 14.269531 7.746094 14.300781 C 7.746094 14.335938 7.753906 14.261719 7.753906 14.238281 L 8.054688 12.886719 L 7.15625 14.039062 C 7.089844 14.121094 7 14.238281 7.113281 14.269531 C 7.03125 14.226562 7.015625 14.425781 7 14.53125 L 6.949219 14.480469 C 6.984375 14.597656 7 14.605469 6.964844 14.71875 C 6.933594 14.835938 6.917969 14.71875 6.933594 14.695312 C 6.949219 14.671875 6.957031 14.785156 6.875 14.851562 L 6.859375 14.800781 C 6.8125 14.875 6.835938 14.882812 6.851562 14.949219 C 6.832031 15.039062 6.777344 15.078125 6.6875 15.070312 C 6.710938 15.097656 6.738281 15.171875 6.695312 15.203125 C 6.65625 15.234375 6.664062 15.179688 6.664062 15.164062 C 6.550781 15.269531 6.621094 15.398438 6.507812 15.457031 L 6.46875 15.457031 C 6.523438 15.351562 6.582031 15.269531 6.582031 15.285156 C 6.582031 15.300781 6.46875 15.324219 6.425781 15.21875 C 6.433594 15.308594 6.449219 15.480469 6.378906 15.546875 L 6.351562 15.546875 L 6.351562 15.53125 C 6.335938 15.546875 6.328125 15.566406 6.328125 15.589844 C 6.304688 15.613281 6.285156 15.621094 6.277344 15.644531 C 6.269531 15.671875 6.195312 15.734375 6.164062 15.769531 C 6.132812 15.800781 6.1875 15.851562 6.269531 15.832031 C 6.351562 15.816406 6.261719 15.816406 6.277344 15.785156 L 6.277344 15.769531 L 6.335938 15.660156 C 6.34375 15.710938 6.351562 15.761719 6.296875 15.785156 C 6.316406 15.820312 6.335938 15.859375 6.351562 15.898438 L 6.269531 15.914062 L 6.1875 15.941406 C 6.152344 15.949219 6.125 15.941406 6.097656 15.914062 C 6.097656 15.953125 6.082031 15.980469 6.058594 16.007812 C 6.03125 16.039062 6 16.054688 5.949219 16.113281 C 5.902344 16.167969 5.933594 16.054688 5.933594 16.039062 C 5.933594 16.023438 5.96875 16.039062 5.976562 16.023438 L 5.878906 16.023438 C 5.828125 16.007812 5.777344 15.996094 5.746094 16.03125 C 5.714844 16.0625 5.746094 15.972656 5.753906 15.964844 L 5.714844 15.933594 L 5.753906 15.933594 C 5.722656 15.890625 5.6875 15.851562 5.648438 15.816406 L 5.597656 15.769531 L 5.542969 15.71875 L 5.441406 15.644531 L 5.34375 15.578125 L 5.261719 15.515625 L 5.214844 15.464844 L 5.164062 15.417969 C 5.128906 15.371094 5.097656 15.324219 5.066406 15.277344 L 5 15.171875 L 4.910156 15.007812 C 4.886719 14.996094 4.867188 14.980469 4.851562 14.957031 L 4.804688 14.882812 L 4.851562 14.972656 L 4.804688 14.941406 L 4.761719 14.917969 L 4.730469 14.917969 L 4.707031 14.898438 C 4.675781 14.882812 4.65625 14.855469 4.640625 14.828125 C 4.664062 15.089844 4.679688 15.300781 4.632812 15.425781 C 4.582031 15.546875 4.671875 15.605469 4.738281 15.726562 L 4.65625 15.671875 C 4.691406 15.742188 4.730469 15.816406 4.769531 15.890625 C 4.8125 15.964844 4.78125 16.03125 4.753906 16.105469 C 4.742188 16.148438 4.742188 16.191406 4.746094 16.234375 C 4.757812 16.304688 4.785156 16.363281 4.828125 16.414062 L 4.871094 16.382812 C 4.882812 16.4375 4.898438 16.492188 4.917969 16.546875 C 4.945312 16.605469 4.945312 16.636719 4.917969 16.636719 C 4.894531 16.636719 4.976562 16.644531 4.960938 16.675781 L 4.925781 16.695312 L 5.050781 16.832031 C 5.074219 16.964844 4.894531 16.867188 4.96875 17.054688 C 5.042969 17.242188 5.15625 17.203125 5.171875 17.160156 C 5.148438 17.125 5.152344 17.089844 5.1875 17.0625 L 5.238281 17.121094 C 5.34375 17.078125 5.476562 17.0625 5.484375 16.898438 L 5.378906 16.832031 L 5.410156 16.777344 L 5.453125 16.859375 C 5.476562 16.792969 5.417969 16.777344 5.378906 16.757812 C 5.402344 16.746094 5.417969 16.722656 5.417969 16.695312 L 5.28125 16.636719 C 5.320312 16.613281 5.378906 16.652344 5.378906 16.578125 C 5.378906 16.503906 5.304688 16.652344 5.238281 16.597656 C 5.171875 16.539062 5.320312 16.523438 5.261719 16.488281 C 5.285156 16.46875 5.304688 16.46875 5.328125 16.488281 L 5.304688 16.472656 L 5.296875 16.472656 L 5.28125 16.457031 C 5.269531 16.449219 5.261719 16.441406 5.222656 16.433594 C 5.179688 16.421875 5.246094 16.40625 5.246094 16.390625 C 5.246094 16.375 5.246094 16.367188 5.3125 16.398438 L 5.246094 16.351562 L 5.1875 16.292969 C 5.28125 16.359375 5.269531 16.34375 5.28125 16.332031 C 5.289062 16.324219 5.28125 16.308594 5.378906 16.398438 C 5.296875 16.324219 5.269531 16.292969 5.261719 16.261719 C 5.242188 16.210938 5.222656 16.164062 5.199219 16.121094 C 5.207031 16.140625 5.21875 16.160156 5.230469 16.179688 C 5.269531 16.214844 5.300781 16.253906 5.328125 16.300781 C 5.21875 16.132812 5.125 15.957031 5.050781 15.769531 C 5.109375 15.859375 5.160156 15.957031 5.207031 16.054688 L 5.359375 16.351562 C 5.304688 16.242188 5.269531 16.179688 5.246094 16.121094 C 5.222656 16.0625 5.1875 15.988281 5.140625 15.898438 L 5.214844 16.023438 L 5.28125 16.160156 L 5.214844 16.023438 L 5.179688 15.957031 C 5.289062 16.160156 5.34375 16.292969 5.304688 16.203125 C 5.371094 16.351562 5.410156 16.421875 5.410156 16.421875 C 5.347656 16.300781 5.289062 16.175781 5.238281 16.046875 L 5.378906 16.359375 C 5.363281 16.3125 5.347656 16.269531 5.328125 16.226562 C 5.3125 16.179688 5.296875 16.144531 5.304688 16.152344 C 5.320312 16.179688 5.328125 16.207031 5.335938 16.234375 C 5.332031 16.222656 5.328125 16.207031 5.328125 16.195312 C 5.328125 16.179688 5.34375 16.195312 5.351562 16.203125 C 5.359375 16.210938 5.371094 16.203125 5.378906 16.160156 C 5.386719 16.121094 5.386719 16.1875 5.386719 16.195312 C 5.386719 16.203125 5.359375 16.054688 5.351562 16.015625 C 5.34375 15.972656 5.402344 15.980469 5.410156 16.070312 C 5.417969 16.160156 5.394531 16.078125 5.394531 16.105469 L 5.410156 16.089844 C 5.433594 16.210938 5.386719 16.097656 5.394531 16.1875 L 5.453125 16.160156 C 5.480469 16.160156 5.507812 16.171875 5.523438 16.195312 C 5.492188 16.277344 5.441406 16.167969 5.460938 16.277344 L 5.425781 16.210938 C 5.433594 16.382812 5.410156 16.1875 5.417969 16.367188 C 5.425781 16.390625 5.425781 16.382812 5.433594 16.375 L 5.460938 16.375 L 5.476562 16.390625 L 5.515625 16.421875 C 5.574219 16.40625 5.550781 16.367188 5.605469 16.34375 C 5.664062 16.316406 5.695312 16.375 5.714844 16.40625 C 5.738281 16.441406 5.761719 16.476562 5.777344 16.515625 C 5.792969 16.550781 5.816406 16.578125 5.84375 16.605469 C 5.890625 16.632812 5.941406 16.636719 5.992188 16.621094 C 6.023438 16.59375 6.050781 16.5625 6.074219 16.53125 C 6.121094 16.496094 6.171875 16.484375 6.230469 16.488281 L 6.203125 16.597656 C 6.28125 16.582031 6.328125 16.539062 6.34375 16.464844 C 6.359375 16.421875 6.367188 16.390625 6.46875 16.324219 C 6.460938 16.363281 6.445312 16.398438 6.417969 16.421875 C 6.394531 16.457031 6.378906 16.472656 6.394531 16.464844 C 6.410156 16.457031 6.492188 16.40625 6.484375 16.375 C 6.476562 16.332031 6.484375 16.289062 6.507812 16.25 L 6.589844 16.277344 C 6.601562 16.265625 6.605469 16.25 6.605469 16.234375 L 6.621094 16.210938 L 6.648438 16.152344 C 6.65625 16.113281 6.671875 16.070312 6.679688 16.03125 C 6.707031 15.949219 6.734375 15.871094 6.769531 15.792969 C 6.785156 15.808594 6.792969 15.851562 6.835938 15.824219 C 6.878906 15.707031 6.941406 15.601562 7.023438 15.507812 C 7.046875 15.53125 7.082031 15.5625 7.082031 15.597656 L 7.007812 15.597656 L 7.082031 15.695312 L 6.984375 15.734375 C 6.992188 15.757812 6.996094 15.777344 7 15.800781 C 7.007812 15.769531 7.039062 15.742188 7.058594 15.753906 C 7.0625 15.765625 7.066406 15.777344 7.066406 15.792969 C 7.066406 15.800781 7.058594 15.832031 7.058594 15.851562 L 7.023438 15.980469 C 6.992188 16.054688 6.976562 16.128906 6.949219 16.136719 C 6.984375 16.257812 7.054688 16.351562 7.15625 16.421875 C 7.125 16.429688 7.097656 16.421875 7.074219 16.398438 C 7.121094 16.433594 7.113281 16.449219 7.105469 16.464844 C 7.097656 16.480469 7.097656 16.488281 7.105469 16.496094 C 7.128906 16.515625 7.15625 16.527344 7.1875 16.53125 C 7.179688 16.503906 7.230469 16.503906 7.238281 16.488281 C 7.277344 16.542969 7.332031 16.570312 7.402344 16.570312 C 7.492188 16.582031 7.582031 16.578125 7.671875 16.554688 L 7.636719 16.605469 L 7.828125 16.605469 L 7.933594 16.585938 C 7.890625 16.605469 7.859375 16.636719 7.835938 16.675781 L 7.84375 16.675781 L 7.820312 16.695312 L 7.808594 16.695312 L 7.792969 16.710938 L 7.605469 16.851562 C 7.539062 16.882812 7.546875 16.867188 7.554688 16.839844 C 7.566406 16.816406 7.589844 16.792969 7.515625 16.800781 C 7.40625 16.894531 7.28125 16.960938 7.148438 17.003906 C 7.203125 17.140625 7.285156 17.257812 7.382812 17.367188 C 7.375 17.398438 7.375 17.429688 7.382812 17.464844 C 7.390625 17.503906 7.40625 17.542969 7.425781 17.578125 C 7.445312 17.625 7.464844 17.667969 7.492188 17.710938 L 7.539062 17.785156 C 7.597656 17.855469 7.644531 17.933594 7.679688 18.019531 L 7.679688 17.996094 L 7.65625 17.972656 C 7.664062 18.003906 7.675781 18.03125 7.6875 18.0625 L 7.695312 18.0625 L 7.695312 18.085938 C 7.691406 18.078125 7.6875 18.070312 7.6875 18.0625 C 7.660156 18.066406 7.632812 18.058594 7.613281 18.039062 L 7.539062 17.964844 C 7.484375 17.90625 7.433594 17.867188 7.402344 17.914062 C 7.367188 17.964844 7.375 17.792969 7.285156 17.734375 C 7.21875 17.691406 7.144531 17.667969 7.066406 17.660156 C 7.097656 17.636719 6.976562 17.570312 7.007812 17.539062 C 6.960938 17.507812 6.90625 17.488281 6.851562 17.480469 C 6.8125 17.480469 6.8125 17.503906 6.828125 17.546875 L 6.8125 17.546875 C 6.746094 17.578125 6.710938 17.75 6.6875 17.875 C 6.664062 17.996094 6.648438 18.085938 6.558594 18.09375 L 6.515625 18.25 L 6.515625 18.355469 C 6.507812 18.414062 6.492188 18.472656 6.484375 18.519531 C 6.476562 18.570312 6.433594 18.734375 6.402344 18.839844 C 6.304688 18.78125 6.484375 18.617188 6.378906 18.578125 C 6.335938 18.78125 6.378906 18.921875 6.261719 19.09375 C 6.230469 19.136719 6.230469 19.046875 6.222656 19.019531 C 6.179688 19.183594 6.082031 19.316406 6.03125 19.453125 C 6.03125 19.390625 6.042969 19.316406 5.992188 19.28125 C 6.015625 19.300781 6.039062 19.304688 6.066406 19.300781 L 6.007812 19.257812 C 6.03125 19.21875 6.042969 19.21875 6.082031 19.226562 C 6.105469 19.101562 5.96875 19.25 6.023438 19.109375 C 6.03125 19.128906 6.042969 19.117188 6.050781 19.144531 C 6.082031 19.003906 6.03125 18.863281 6.066406 18.734375 C 6.097656 18.601562 6.082031 18.847656 6.164062 18.808594 C 6.160156 18.703125 6.144531 18.605469 6.113281 18.503906 C 6.105469 18.457031 6.101562 18.40625 6.097656 18.355469 C 6.089844 18.332031 6.089844 18.304688 6.089844 18.273438 C 6.089844 18.246094 6.089844 18.214844 6.097656 18.183594 L 6.082031 18.226562 C 6.015625 18.226562 6.03125 18.183594 6.058594 18.121094 C 6.082031 18.054688 6.113281 17.964844 6.089844 17.929688 C 6.066406 17.898438 6.15625 17.914062 6.148438 17.921875 L 6.148438 17.75 C 6.140625 17.726562 6.140625 17.703125 6.132812 17.675781 C 6.132812 17.664062 6.128906 17.648438 6.125 17.636719 L 6.125 17.621094 L 6.105469 17.621094 L 5.796875 17.757812 L 5.84375 17.71875 C 5.785156 17.714844 5.722656 17.722656 5.664062 17.734375 C 5.601562 17.753906 5.535156 17.761719 5.46875 17.765625 C 5.453125 17.800781 5.410156 17.808594 5.441406 17.847656 C 5.304688 17.773438 5.207031 17.816406 5.089844 17.847656 C 4.976562 17.882812 4.871094 17.929688 4.761719 17.847656 C 4.796875 17.847656 4.828125 17.816406 4.804688 17.816406 L 4.625 17.847656 C 4.640625 17.90625 4.648438 17.882812 4.691406 17.929688 C 4.65625 17.972656 4.609375 17.988281 4.558594 17.980469 C 4.648438 17.949219 4.566406 17.890625 4.535156 17.855469 C 4.5 17.824219 4.527344 17.890625 4.527344 17.914062 C 4.4375 17.800781 4.5 18.027344 4.378906 17.949219 L 4.378906 17.914062 C 4.328125 17.941406 4.277344 17.953125 4.222656 17.949219 C 4.207031 17.882812 4.28125 17.921875 4.289062 17.867188 C 4.296875 17.808594 4.125 17.972656 4.066406 17.898438 C 4.007812 17.824219 4.148438 17.890625 4.183594 17.875 C 4.214844 17.855469 4.109375 17.808594 4.058594 17.785156 L 4.066406 17.785156 L 3.984375 17.742188 C 4 17.734375 4.007812 17.71875 4.019531 17.710938 C 4.027344 17.703125 4.132812 17.53125 4.253906 17.441406 C 4.378906 17.347656 4.246094 17.539062 4.246094 17.539062 C 4.320312 17.542969 4.386719 17.527344 4.445312 17.480469 C 4.4375 17.496094 4.453125 17.511719 4.476562 17.53125 C 4.5 17.546875 4.492188 17.441406 4.574219 17.449219 C 4.570312 17.488281 4.5625 17.527344 4.542969 17.5625 C 4.597656 17.519531 4.65625 17.457031 4.714844 17.421875 C 4.769531 17.390625 4.691406 17.488281 4.671875 17.519531 C 4.65625 17.554688 4.863281 17.441406 4.871094 17.367188 L 4.828125 17.367188 C 4.835938 17.382812 4.835938 17.421875 4.820312 17.429688 C 4.804688 17.441406 4.722656 17.441406 4.714844 17.414062 L 4.753906 17.382812 C 4.671875 17.257812 4.574219 17.457031 4.476562 17.480469 L 4.476562 17.367188 L 4.402344 17.480469 C 4.378906 17.464844 4.34375 17.414062 4.386719 17.382812 C 4.425781 17.347656 4.335938 17.441406 4.261719 17.398438 C 4.191406 17.359375 4.253906 17.390625 4.253906 17.382812 L 4.199219 17.441406 C 4.207031 17.414062 4.164062 17.375 4.214844 17.375 C 4.066406 17.359375 4.042969 17.511719 3.96875 17.457031 L 3.976562 17.457031 C 3.828125 17.554688 3.992188 17.53125 3.902344 17.660156 L 3.746094 17.519531 L 3.765625 17.601562 C 3.738281 17.601562 3.707031 17.613281 3.699219 17.585938 C 3.691406 17.5625 3.722656 17.613281 3.707031 17.667969 L 3.65625 17.667969 C 3.648438 17.652344 3.640625 17.636719 3.648438 17.628906 C 3.65625 17.621094 3.601562 17.636719 3.574219 17.621094 L 3.648438 17.59375 C 3.617188 17.585938 3.574219 17.5625 3.625 17.53125 C 3.46875 17.53125 3.632812 17.5625 3.566406 17.613281 C 3.550781 17.601562 3.535156 17.59375 3.519531 17.59375 L 3.519531 17.726562 C 3.476562 17.761719 3.445312 17.753906 3.429688 17.703125 C 3.417969 17.765625 3.519531 17.703125 3.453125 17.785156 C 3.445312 17.769531 3.433594 17.757812 3.417969 17.75 L 3.386719 17.734375 L 3.429688 17.847656 C 3.445312 17.890625 3.484375 17.867188 3.535156 17.867188 L 3.535156 17.929688 C 3.527344 17.929688 3.519531 17.9375 3.535156 17.957031 L 3.535156 17.972656 C 3.554688 17.941406 3.582031 17.933594 3.617188 17.949219 L 3.617188 17.964844 L 3.625 17.964844 C 3.664062 17.988281 3.707031 18.046875 3.746094 18.039062 C 3.789062 18.027344 3.902344 18.039062 4.019531 18.027344 C 4.132812 18.019531 4.230469 18.101562 4.335938 18.152344 L 4.328125 18.152344 C 4.363281 18.0625 4.46875 18.09375 4.550781 18.078125 C 4.546875 18.125 4.523438 18.15625 4.484375 18.175781 L 4.558594 18.175781 C 4.574219 18.144531 4.597656 18.136719 4.648438 18.128906 L 4.632812 18.191406 C 4.730469 18.191406 4.835938 18.109375 4.96875 18.152344 C 4.96875 18.085938 4.863281 17.980469 4.984375 17.929688 C 5.105469 17.882812 5 18.019531 4.96875 18.039062 C 4.933594 18.054688 5.007812 18.011719 5.035156 18.019531 L 4.984375 18.085938 C 5.042969 18.101562 5.007812 18.027344 5.058594 18.039062 C 5.105469 18.046875 5.089844 18.0625 5.089844 18.101562 C 5.089844 18.144531 5.050781 18.085938 5.035156 18.109375 C 5.089844 18.113281 5.140625 18.128906 5.179688 18.167969 C 5.171875 18.144531 5.171875 18.101562 5.214844 18.09375 C 5.253906 18.085938 5.253906 18.152344 5.3125 18.167969 C 5.371094 18.183594 5.402344 18.152344 5.394531 18.078125 C 5.386719 18.003906 5.433594 18.109375 5.453125 18.128906 L 5.535156 18.085938 C 5.558594 18.070312 5.589844 18.054688 5.574219 18.011719 L 5.566406 18.011719 C 5.570312 18.011719 5.574219 18.011719 5.574219 18.003906 C 5.613281 17.980469 5.660156 17.964844 5.707031 17.957031 L 5.8125 17.957031 C 5.820312 17.949219 5.8125 17.980469 5.8125 17.988281 L 5.8125 18.027344 C 5.808594 18.050781 5.808594 18.074219 5.8125 18.09375 L 5.789062 18.121094 C 5.804688 18.136719 5.804688 18.175781 5.8125 18.210938 C 5.816406 18.246094 5.835938 18.28125 5.859375 18.308594 C 5.859375 18.316406 5.84375 18.332031 5.828125 18.339844 C 5.816406 18.355469 5.796875 18.359375 5.777344 18.355469 C 5.796875 18.429688 5.828125 18.4375 5.777344 18.546875 C 5.746094 18.472656 5.746094 18.570312 5.753906 18.464844 C 5.730469 18.5625 5.6875 18.585938 5.753906 18.691406 C 5.6875 18.652344 5.671875 18.757812 5.6875 18.808594 L 5.738281 18.742188 C 5.738281 18.789062 5.730469 18.835938 5.722656 18.882812 L 5.648438 18.855469 C 5.535156 19.035156 5.789062 19.226562 5.605469 19.355469 C 5.65625 19.414062 5.65625 19.25 5.714844 19.308594 C 5.769531 19.363281 5.566406 19.480469 5.566406 19.503906 C 5.566406 19.527344 5.671875 19.636719 5.625 19.757812 C 5.648438 19.75 5.730469 19.742188 5.746094 19.847656 C 5.761719 19.953125 5.605469 19.9375 5.589844 19.878906 C 5.574219 19.824219 5.605469 19.847656 5.613281 19.847656 C 5.625 19.847656 5.597656 19.773438 5.566406 19.808594 L 5.589844 19.824219 C 5.558594 19.863281 5.542969 19.988281 5.5 19.953125 C 5.460938 19.921875 5.542969 19.988281 5.566406 19.9375 C 5.5 20.050781 5.535156 20.117188 5.484375 20.234375 C 5.5 20.214844 5.542969 20.207031 5.535156 20.226562 C 5.46875 20.386719 5.574219 20.316406 5.566406 20.429688 L 5.542969 20.445312 L 5.238281 20.585938 L 5.804688 20.550781 C 5.851562 20.550781 5.851562 20.625 5.886719 20.511719 C 5.917969 20.398438 5.960938 20.542969 5.96875 20.578125 C 5.984375 20.453125 6.105469 20.421875 6.15625 20.371094 L 6.140625 20.4375 C 6.144531 20.40625 6.160156 20.375 6.179688 20.347656 L 6.140625 20.347656 C 6.164062 20.324219 6.179688 20.296875 6.203125 20.304688 C 6.230469 20.316406 6.105469 20.28125 6.097656 20.191406 C 6.089844 20.101562 6.140625 20.050781 6.214844 20.078125 C 6.125 20.191406 6.296875 20.101562 6.238281 20.214844 C 6.25 20.1875 6.265625 20.164062 6.285156 20.144531 C 6.296875 20.144531 6.296875 20.160156 6.296875 20.167969 C 6.425781 20.078125 6.253906 20.070312 6.328125 19.9375 C 6.359375 19.980469 6.417969 19.953125 6.417969 19.929688 C 6.417969 19.90625 6.34375 19.914062 6.34375 19.847656 C 6.34375 19.78125 6.367188 19.75 6.394531 19.707031 L 6.351562 19.75 C 6.328125 19.714844 6.351562 19.675781 6.367188 19.609375 C 6.386719 19.542969 6.386719 19.625 6.386719 19.636719 C 6.386719 19.644531 6.53125 19.542969 6.53125 19.4375 C 6.53125 19.332031 6.605469 19.472656 6.648438 19.445312 C 6.6875 19.421875 6.753906 19.363281 6.761719 19.234375 C 6.695312 19.242188 6.703125 19.25 6.6875 19.152344 L 6.648438 19.347656 L 6.621094 19.191406 C 6.597656 19.25 6.597656 19.324219 6.574219 19.347656 C 6.550781 19.371094 6.574219 19.289062 6.515625 19.289062 C 6.632812 19.257812 6.539062 19.128906 6.632812 19.070312 L 6.761719 19.136719 C 6.875 19.027344 6.792969 18.871094 6.902344 18.726562 L 6.851562 18.765625 C 6.8125 18.71875 6.894531 18.660156 6.894531 18.59375 C 6.894531 18.527344 6.96875 18.59375 7.007812 18.578125 C 7.046875 18.5625 6.992188 18.570312 7 18.554688 C 7 18.542969 7.003906 18.53125 7.007812 18.519531 C 7.007812 18.496094 7 18.472656 6.957031 18.4375 L 7.03125 18.4375 C 7.046875 18.421875 7.03125 18.382812 7.015625 18.316406 C 6.992188 18.257812 6.988281 18.203125 7.007812 18.144531 C 7.015625 18.179688 7.023438 18.214844 7.039062 18.25 L 7.066406 18.355469 C 7.078125 18.335938 7.078125 18.320312 7.066406 18.300781 L 7.066406 18.203125 C 7.066406 18.210938 7.074219 18.210938 7.074219 18.191406 L 7.074219 18.175781 C 7.082031 18.160156 7.097656 18.152344 7.113281 18.183594 C 7.128906 18.21875 7.113281 18.09375 7.148438 18.121094 L 7.148438 18.152344 C 7.148438 18.121094 7.195312 18.136719 7.171875 18.054688 C 7.183594 18.101562 7.207031 18.144531 7.238281 18.183594 C 7.253906 18.214844 7.277344 18.238281 7.300781 18.257812 L 7.34375 18.285156 L 7.382812 18.332031 C 7.414062 18.367188 7.429688 18.410156 7.425781 18.457031 C 7.507812 18.515625 7.585938 18.585938 7.65625 18.660156 C 7.636719 18.667969 7.636719 18.675781 7.628906 18.660156 C 7.679688 18.78125 7.785156 18.628906 7.84375 18.765625 C 7.902344 18.90625 7.761719 18.742188 7.769531 18.792969 C 7.777344 18.839844 7.753906 18.882812 7.800781 18.914062 C 7.851562 18.945312 7.910156 18.980469 7.910156 19.054688 L 7.882812 19.035156 C 7.902344 19.085938 7.941406 19.109375 8 19.136719 C 8.0625 19.152344 8.117188 19.179688 8.171875 19.21875 C 8.160156 19.222656 8.15625 19.230469 8.15625 19.242188 C 8.253906 19.242188 8.347656 19.257812 8.441406 19.289062 C 8.453125 19.3125 8.457031 19.339844 8.449219 19.363281 L 8.507812 19.308594 L 8.554688 19.308594 C 8.5 19.355469 8.492188 19.316406 8.492188 19.390625 C 8.492188 19.460938 8.515625 19.289062 8.628906 19.308594 C 8.746094 19.324219 8.671875 19.355469 8.6875 19.390625 L 8.746094 19.460938 L 8.816406 19.234375 C 8.820312 19.203125 8.835938 19.179688 8.859375 19.160156 L 8.882812 19.199219 L 9.0625 19.5625 L 8.671875 19.453125 L 8.613281 19.4375 C 8.617188 19.46875 8.632812 19.484375 8.664062 19.496094 L 9.105469 19.644531 L 8.917969 19.183594 C 8.910156 19.144531 8.851562 19.117188 8.84375 19.078125 L 8.882812 19.078125 C 8.855469 19.035156 8.820312 19 8.777344 18.972656 L 8.777344 18.953125 L 8.761719 18.953125 C 8.714844 18.925781 8.683594 18.882812 8.664062 18.832031 L 8.644531 18.863281 C 8.523438 18.824219 8.664062 18.773438 8.554688 18.726562 L 8.628906 18.652344 C 8.546875 18.582031 8.464844 18.507812 8.390625 18.429688 C 8.480469 18.445312 8.574219 18.546875 8.644531 18.59375 C 8.71875 18.644531 8.546875 18.414062 8.492188 18.414062 C 8.433594 18.414062 8.546875 18.445312 8.546875 18.472656 C 8.441406 18.441406 8.367188 18.375 8.320312 18.273438 C 8.492188 18.203125 8.21875 17.980469 8.300781 17.839844 C 8.230469 17.761719 8.175781 17.671875 8.136719 17.570312 C 8.121094 17.519531 8.105469 17.472656 8.082031 17.414062 L 8.039062 17.339844 L 8.039062 17.300781 C 7.925781 17.398438 8.015625 17.277344 7.875 17.324219 C 7.738281 17.375 7.835938 17.285156 7.84375 17.277344 C 7.855469 17.246094 7.878906 17.222656 7.910156 17.210938 C 7.957031 17.210938 7.957031 17.234375 8 17.234375 C 8.039062 17.234375 8.023438 17.226562 8.046875 17.226562 L 8.128906 17.25 L 8.074219 17.234375 C 8.039062 17.21875 8.039062 17.21875 8.066406 17.21875 L 7.957031 17.195312 C 7.925781 17.160156 7.984375 17.167969 8.023438 17.1875 C 8.066406 17.203125 8.097656 17.226562 8.082031 17.1875 L 8.105469 17.226562 L 8.105469 17.210938 L 8.121094 17.210938 L 8.144531 17.195312 C 8.21875 17.152344 8.269531 17.09375 8.292969 17.011719 C 8.308594 17.023438 8.351562 17.046875 8.320312 17.078125 C 8.523438 16.988281 8.679688 16.726562 8.859375 16.703125 L 8.859375 16.742188 C 8.890625 16.710938 8.882812 16.644531 8.949219 16.644531 C 9.015625 16.644531 8.957031 16.6875 8.972656 16.675781 C 8.988281 16.667969 9.023438 16.5625 9.082031 16.554688 L 9.0625 16.613281 C 9.210938 16.554688 9.253906 16.449219 9.308594 16.34375 C 9.332031 16.300781 9.359375 16.261719 9.390625 16.226562 L 9.417969 16.242188 L 9.269531 15.875 C 9.21875 15.769531 9.082031 15.753906 9.007812 15.742188 Z M 6.238281 15.710938 L 6.246094 15.710938 L 6.222656 15.6875 C 6.230469 15.652344 6.246094 15.644531 6.261719 15.652344 Z M 6.730469 15.785156 L 6.753906 15.734375 Z M 6.804688 15.636719 C 6.777344 15.628906 6.761719 15.613281 6.777344 15.597656 C 6.792969 15.578125 6.820312 15.578125 6.851562 15.5625 C 6.832031 15.585938 6.816406 15.609375 6.804688 15.636719 Z M 3.8125 17.75 C 3.863281 17.742188 3.910156 17.726562 3.953125 17.695312 C 3.917969 17.738281 3.871094 17.757812 3.8125 17.75 Z M 5.984375 19.472656 Z M 5.96875 19.691406 L 5.96875 19.707031 C 5.941406 19.726562 5.925781 19.742188 5.894531 19.714844 C 5.902344 19.679688 5.921875 19.652344 5.949219 19.625 C 5.914062 19.578125 5.90625 19.527344 5.933594 19.472656 L 5.96875 19.472656 C 5.949219 19.496094 5.949219 19.511719 5.976562 19.519531 L 5.976562 19.488281 C 6.066406 19.472656 6.042969 19.683594 6.066406 19.707031 C 6.089844 19.734375 6 19.667969 5.96875 19.691406 Z M 7.695312 18.039062 L 7.71875 18.003906 C 7.769531 18.019531 7.746094 18.054688 7.738281 18.085938 Z M 7.890625 18.234375 L 7.890625 18.25 C 7.859375 18.1875 7.8125 18.136719 7.753906 18.09375 C 7.769531 18.070312 7.761719 18.046875 7.785156 18.054688 Z M 8.320312 16.433594 L 8.210938 16.457031 C 8.195312 16.441406 8.1875 16.421875 8.195312 16.398438 C 8.199219 16.378906 8.214844 16.363281 8.238281 16.359375 L 8.269531 16.441406 C 8.300781 16.382812 8.203125 16.414062 8.277344 16.34375 C 8.351562 16.269531 8.335938 16.390625 8.320312 16.433594 Z M 4.835938 17.429688 Z M 4.835938 17.441406 C 4.828125 17.441406 4.835938 17.429688 4.835938 17.429688 L 4.820312 17.449219 Z M 5.613281 17.949219 L 5.648438 17.972656 C 5.664062 17.9375 5.640625 17.949219 5.613281 17.949219 Z M 5.777344 18.300781 L 5.722656 18.300781 C 5.730469 18.339844 5.746094 18.292969 5.777344 18.300781 Z M 6.386719 19.578125 L 6.386719 19.554688 C 6.386719 19.570312 6.367188 19.585938 6.386719 19.578125 Z M 6.394531 19.625 L 6.417969 19.601562 Z M 6.296875 20.085938 C 6.285156 20.109375 6.296875 20.101562 6.296875 20.085938 Z M 7.113281 18.191406 L 7.121094 18.191406 L 7.121094 18.175781 Z M 7.039062 18.496094 Z M 5.605469 17.949219 C 5.597656 17.9375 5.597656 17.9375 5.597656 17.929688 L 5.605469 17.929688 Z M 5.5 20.175781 C 5.5 20.167969 5.503906 20.15625 5.507812 20.152344 C 5.5 20.160156 5.492188 20.167969 5.5 20.175781 Z M 5.648438 19.796875 C 5.65625 19.773438 5.648438 19.765625 5.640625 19.765625 C 5.632812 19.765625 5.640625 19.796875 5.648438 19.796875 Z M 7.917969 17.285156 L 7.992188 17.265625 L 7.910156 17.265625 C 7.882812 17.257812 7.851562 17.242188 7.828125 17.277344 Z M 7.3125 18.429688 L 7.351562 18.363281 C 7.320312 18.347656 7.253906 18.40625 7.3125 18.429688 Z M 7 15.800781 Z M 3.65625 17.9375 C 3.582031 17.9375 3.640625 17.980469 3.640625 17.996094 C 3.640625 18.011719 3.699219 17.980469 3.65625 17.9375 Z M 8.457031 19.382812 L 8.457031 19.363281 Z M 8.417969 19.421875 L 8.449219 19.371094 L 8.367188 19.371094 Z M 7.433594 18.472656 L 7.433594 18.457031 L 7.417969 18.4375 Z M 4.507812 17.785156 C 4.507812 17.773438 4.503906 17.765625 4.492188 17.765625 Z M 7 17.480469 Z M 4.042969 17.710938 L 3.984375 17.675781 C 4.007812 17.695312 4.027344 17.710938 4.042969 17.710938 Z M 5.207031 18.09375 C 5.207031 18.101562 5.207031 18.121094 5.214844 18.121094 C 5.222656 18.121094 5.207031 18.101562 5.207031 18.09375 Z M 4.484375 17.519531 L 4.5 17.519531 C 4.5 17.503906 4.5 17.496094 4.492188 17.496094 C 4.484375 17.496094 4.492188 17.511719 4.484375 17.519531 Z M 7.015625 17.488281 L 7.179688 17.585938 Z M 7.074219 16.359375 L 7.039062 16.332031 Z M 4.484375 17.519531 Z M 4.246094 17.308594 L 4.273438 17.292969 Z M 4.597656 18.101562 L 4.582031 18.101562 C 4.570312 18.109375 4.566406 18.121094 4.566406 18.136719 Z M 3.773438 18.003906 C 3.789062 18.011719 3.8125 17.949219 3.820312 17.921875 C 3.8125 17.945312 3.796875 17.953125 3.773438 17.957031 Z M 4.5 17.519531 C 4.515625 17.515625 4.527344 17.507812 4.527344 17.496094 L 4.5 17.511719 Z M 4.796875 17.292969 Z M 25.382812 7.8125 L 25.332031 7.789062 C 25.332031 7.8125 25.363281 7.804688 25.382812 7.8125 Z M 24.742188 7.742188 C 24.703125 7.75 24.742188 7.765625 24.742188 7.796875 Z M 27.265625 7.722656 C 27.144531 7.640625 27.289062 7.78125 27.160156 7.773438 L 27.257812 7.789062 C 27.242188 7.765625 27.214844 7.722656 27.265625 7.722656 Z M 26.871094 7.734375 C 26.921875 7.714844 26.871094 7.691406 26.871094 7.675781 C 26.871094 7.660156 26.832031 7.707031 26.871094 7.734375 Z M 19.074219 8.804688 C 19.042969 8.773438 18.992188 8.765625 18.976562 8.804688 C 18.960938 8.847656 19.058594 8.820312 19.074219 8.804688 Z M 24.105469 7.734375 L 24.039062 7.757812 L 24.085938 7.742188 Z M 14.707031 10.296875 L 14.667969 10.34375 L 14.691406 10.34375 Z M 20.546875 8.339844 L 20.574219 8.414062 C 20.597656 8.386719 20.582031 8.304688 20.546875 8.339844 Z M 27.855469 8.125 C 27.867188 8.125 27.875 8.117188 27.878906 8.101562 L 27.855469 8.101562 Z M 25.40625 7.824219 Z M 23.605469 7.914062 C 23.613281 7.90625 23.621094 7.894531 23.621094 7.886719 C 23.621094 7.878906 23.59375 7.90625 23.605469 7.914062 Z M 26.167969 7.714844 L 26.183594 7.714844 C 26.191406 7.707031 26.191406 7.691406 26.199219 7.683594 Z M 26.75 7.796875 C 26.757812 7.765625 26.773438 7.75 26.78125 7.75 C 26.785156 7.730469 26.78125 7.714844 26.773438 7.699219 C 26.765625 7.699219 26.757812 7.765625 26.75 7.796875 Z M 23.285156 7.855469 L 23.300781 7.855469 C 23.292969 7.855469 23.292969 7.847656 23.285156 7.855469 Z M 25.734375 7.707031 Z M 21.464844 8.140625 C 21.464844 8.132812 21.457031 8.125 21.449219 8.109375 C 21.449219 8.121094 21.453125 8.132812 21.464844 8.140625 Z M 20.964844 8.296875 L 20.949219 8.296875 Z M 22.417969 8.035156 Z M 22.71875 7.847656 C 22.734375 7.839844 22.726562 7.847656 22.71875 7.847656 Z M 28.257812 8.003906 C 28.253906 7.984375 28.253906 7.964844 28.257812 7.945312 C 28.210938 7.996094 28.191406 8.054688 28.199219 8.125 C 28.230469 8.050781 28.242188 8.085938 28.28125 7.996094 C 28.320312 7.90625 28.332031 8.019531 28.332031 8.050781 C 28.332031 8.085938 28.371094 8.070312 28.386719 8.019531 C 28.402344 7.96875 28.304688 7.953125 28.257812 8.003906 Z M 28.117188 8.132812 Z M 28.117188 8.140625 Z M 11.570312 12.804688 L 11.519531 12.769531 C 11.554688 12.804688 11.496094 12.859375 11.570312 12.804688 Z M 28.429688 8.042969 L 28.402344 8.125 L 28.445312 8.101562 C 28.460938 8.085938 28.453125 8.035156 28.429688 8.042969 Z M 28.167969 8.109375 L 28.132812 8.125 C 28.140625 8.125 28.160156 8.132812 28.167969 8.109375 Z M 12.183594 11.828125 C 12.175781 11.828125 12.175781 11.828125 12.175781 11.835938 L 12.191406 11.835938 L 12.191406 11.820312 Z M 27.988281 8.109375 C 28.042969 8.09375 28.140625 8.078125 28.160156 8.011719 L 28.132812 7.996094 C 28.136719 8.019531 28.132812 8.039062 28.117188 8.058594 C 28.058594 8.109375 28.042969 8.035156 28.042969 8.011719 L 28.078125 7.996094 C 28.050781 7.855469 27.929688 8.011719 27.855469 8.003906 L 27.886719 7.894531 L 27.804688 7.976562 C 27.796875 7.953125 27.789062 7.894531 27.824219 7.878906 C 27.855469 7.863281 27.773438 7.914062 27.730469 7.855469 C 27.691406 7.796875 27.722656 7.847656 27.730469 7.839844 L 27.675781 7.871094 C 27.691406 7.847656 27.675781 7.796875 27.707031 7.8125 C 27.609375 7.75 27.550781 7.878906 27.519531 7.804688 L 27.527344 7.804688 C 27.386719 7.832031 27.511719 7.878906 27.40625 7.960938 L 27.347656 7.773438 L 27.332031 7.847656 C 27.316406 7.847656 27.289062 7.839844 27.296875 7.8125 C 27.304688 7.789062 27.304688 7.847656 27.273438 7.886719 C 27.242188 7.929688 27.09375 7.921875 27.085938 7.796875 C 27.0625 7.855469 27.144531 7.847656 27.078125 7.886719 C 27.050781 7.757812 26.996094 7.90625 26.9375 7.847656 C 26.878906 7.789062 27.011719 7.8125 26.945312 7.757812 C 26.914062 7.871094 26.832031 7.734375 26.78125 7.757812 C 26.734375 7.78125 26.675781 7.789062 26.585938 7.824219 C 26.496094 7.855469 26.429688 7.773438 26.347656 7.742188 C 26.339844 7.832031 26.257812 7.8125 26.199219 7.832031 C 26.144531 7.847656 26.207031 7.757812 26.242188 7.734375 L 26.183594 7.734375 C 26.175781 7.757812 26.160156 7.773438 26.117188 7.789062 L 26.136719 7.714844 C 26.0625 7.722656 25.988281 7.796875 25.890625 7.757812 C 25.789062 7.714844 25.972656 7.929688 25.871094 7.976562 C 25.773438 8.027344 25.855469 7.878906 25.890625 7.863281 C 25.921875 7.847656 25.855469 7.894531 25.839844 7.878906 L 25.871094 7.824219 C 25.832031 7.796875 25.855469 7.871094 25.824219 7.871094 C 25.789062 7.871094 25.789062 7.839844 25.800781 7.796875 C 25.808594 7.757812 25.832031 7.8125 25.839844 7.796875 C 25.792969 7.789062 25.757812 7.765625 25.734375 7.722656 C 25.742188 7.757812 25.742188 7.789062 25.710938 7.796875 C 25.675781 7.804688 25.683594 7.742188 25.636719 7.722656 C 25.585938 7.707031 25.570312 7.722656 25.578125 7.796875 C 25.585938 7.871094 25.546875 7.765625 25.535156 7.742188 C 25.527344 7.714844 25.355469 7.765625 25.40625 7.839844 L 25.414062 7.839844 C 25.292969 7.914062 25.152344 7.804688 25.027344 7.847656 L 25.027344 7.824219 C 24.957031 7.855469 24.855469 7.847656 24.808594 7.90625 C 24.773438 7.890625 24.761719 7.867188 24.765625 7.832031 C 24.710938 7.855469 24.703125 7.878906 24.621094 7.847656 C 24.675781 7.796875 24.59375 7.8125 24.675781 7.8125 C 24.601562 7.796875 24.578125 7.757812 24.503906 7.832031 C 24.53125 7.773438 24.449219 7.765625 24.414062 7.78125 L 24.464844 7.824219 C 24.429688 7.832031 24.394531 7.835938 24.359375 7.832031 L 24.359375 7.75 C 24.203125 7.667969 24.105469 7.945312 23.972656 7.789062 C 23.941406 7.855469 24.0625 7.824219 24.03125 7.894531 C 23.996094 7.96875 23.875 7.78125 23.859375 7.78125 C 23.839844 7.78125 23.777344 7.914062 23.675781 7.886719 C 23.714844 7.945312 23.703125 7.992188 23.644531 8.027344 C 23.570312 8.019531 23.546875 7.914062 23.585938 7.886719 C 23.628906 7.863281 23.613281 7.886719 23.613281 7.894531 C 23.613281 7.90625 23.660156 7.871094 23.628906 7.847656 L 23.628906 7.871094 C 23.59375 7.847656 23.496094 7.863281 23.515625 7.804688 C 23.53125 7.75 23.496094 7.863281 23.539062 7.871094 C 23.441406 7.839844 23.398438 7.878906 23.300781 7.871094 C 23.203125 7.863281 23.339844 7.914062 23.324219 7.914062 C 23.308594 7.914062 23.269531 7.976562 23.1875 8.003906 C 23.105469 8.027344 23.1875 7.894531 23.105469 7.945312 C 23.023438 7.996094 23.078125 7.871094 23.097656 7.847656 C 23.113281 7.824219 22.941406 7.832031 22.890625 7.832031 L 22.933594 7.796875 C 22.910156 7.8125 22.886719 7.820312 22.859375 7.824219 L 22.890625 7.878906 C 22.867188 7.871094 22.84375 7.871094 22.84375 7.847656 C 22.84375 7.824219 22.875 7.945312 22.832031 8.003906 C 22.792969 8.058594 22.734375 8.050781 22.710938 7.96875 C 22.816406 7.988281 22.6875 7.894531 22.777344 7.871094 C 22.757812 7.886719 22.734375 7.890625 22.710938 7.878906 C 22.703125 7.871094 22.710938 7.863281 22.71875 7.855469 C 22.726562 7.847656 22.6875 7.953125 22.570312 7.96875 C 22.578125 7.921875 22.539062 7.886719 22.523438 7.90625 C 22.507812 7.921875 22.554688 7.96875 22.523438 8.011719 C 22.488281 8.050781 22.449219 8.042969 22.417969 8.042969 L 22.457031 8.042969 C 22.449219 8.09375 22.417969 8.09375 22.367188 8.109375 C 22.367188 8.101562 22.367188 8.089844 22.375 8.085938 C 22.335938 8.125 22.253906 8.019531 22.1875 8.070312 C 22.121094 8.117188 22.171875 7.996094 22.136719 7.976562 C 22.105469 7.960938 22.039062 7.9375 21.957031 7.996094 C 22 8.050781 22 8.035156 21.949219 8.101562 L 22.082031 8.035156 L 22.007812 8.132812 C 22.046875 8.125 22.089844 8.085938 22.121094 8.085938 C 22.152344 8.085938 22.082031 8.125 22.113281 8.167969 C 22.144531 8.207031 22.007812 8.242188 21.925781 8.199219 L 21.910156 8.050781 C 21.792969 8.011719 21.734375 8.167969 21.597656 8.148438 L 21.644531 8.167969 C 21.636719 8.230469 21.5625 8.191406 21.523438 8.222656 C 21.480469 8.257812 21.492188 8.167969 21.464844 8.140625 C 21.441406 8.117188 21.367188 8.148438 21.375 8.25 L 21.300781 8.199219 C 21.195312 8.199219 21.210938 8.363281 21.105469 8.363281 C 21 8.363281 21.074219 8.28125 21.128906 8.230469 C 21.1875 8.183594 21.066406 8.230469 21.074219 8.265625 C 21.082031 8.296875 20.992188 8.347656 20.949219 8.3125 C 20.910156 8.28125 20.941406 8.386719 20.910156 8.386719 C 20.902344 8.378906 20.902344 8.371094 20.902344 8.363281 C 20.910156 8.386719 20.84375 8.414062 20.890625 8.453125 C 20.753906 8.332031 20.605469 8.535156 20.484375 8.429688 C 20.410156 8.464844 20.335938 8.496094 20.261719 8.519531 C 20.261719 8.503906 20.253906 8.496094 20.269531 8.503906 C 20.285156 8.511719 20.246094 8.648438 20.128906 8.625 C 20.015625 8.601562 20.171875 8.566406 20.128906 8.550781 C 20.082031 8.394531 20.015625 8.601562 19.917969 8.527344 L 19.933594 8.527344 C 19.867188 8.484375 19.820312 8.617188 19.722656 8.625 L 19.722656 8.601562 C 19.679688 8.691406 19.574219 8.75 19.492188 8.796875 C 19.410156 8.847656 19.523438 8.757812 19.492188 8.699219 C 19.457031 8.640625 19.53125 8.796875 19.457031 8.832031 C 19.386719 8.863281 19.359375 8.796875 19.335938 8.730469 L 19.410156 8.707031 C 19.34375 8.632812 19.320312 8.738281 19.269531 8.730469 L 19.269531 8.691406 C 19.164062 8.738281 19.1875 8.832031 19.066406 8.863281 L 19.089844 8.886719 C 19.050781 8.992188 19.015625 8.847656 18.976562 8.9375 L 18.925781 8.847656 C 18.871094 8.910156 18.808594 8.96875 18.738281 9.019531 C 18.773438 8.941406 18.824219 8.878906 18.886719 8.820312 C 18.835938 8.832031 18.738281 8.871094 18.730469 8.921875 C 18.722656 8.96875 18.761719 8.878906 18.777344 8.886719 C 18.757812 8.976562 18.703125 9.03125 18.613281 9.050781 C 18.574219 8.871094 18.386719 9.066406 18.28125 8.953125 C 18.15625 9.066406 17.976562 9.027344 17.8125 9.09375 C 17.917969 9.214844 17.761719 9.117188 17.820312 9.257812 C 17.878906 9.394531 17.769531 9.28125 17.761719 9.273438 L 17.617188 9.222656 C 17.574219 9.191406 17.640625 9.183594 17.625 9.148438 C 17.609375 9.117188 17.566406 9.101562 17.5 9.085938 C 17.4375 9.066406 17.492188 9.167969 17.4375 9.167969 L 17.535156 9.207031 C 17.4375 9.320312 17.386719 9.125 17.289062 9.238281 L 17.3125 9.183594 C 17.289062 9.207031 17.222656 9.222656 17.171875 9.257812 C 17.109375 9.285156 17.070312 9.332031 17.058594 9.402344 C 17.042969 9.386719 17.019531 9.355469 17.042969 9.339844 C 16.886719 9.378906 16.753906 9.582031 16.617188 9.558594 L 16.617188 9.519531 C 16.59375 9.542969 16.59375 9.609375 16.542969 9.582031 C 16.492188 9.558594 16.542969 9.542969 16.527344 9.550781 C 16.511719 9.558594 16.476562 9.632812 16.4375 9.632812 L 16.453125 9.582031 C 16.289062 9.59375 16.265625 9.765625 16.15625 9.828125 C 16.117188 9.730469 15.984375 9.738281 15.929688 9.746094 L 15.921875 9.746094 C 15.75 9.804688 15.675781 9.953125 15.542969 10.058594 C 15.402344 9.992188 15.199219 10.15625 15.027344 10.164062 C 15.050781 10.171875 15.050781 10.238281 15.035156 10.265625 C 15.019531 10.289062 14.96875 10.378906 14.929688 10.28125 L 14.945312 10.28125 C 14.871094 10.207031 14.8125 10.253906 14.757812 10.28125 L 14.796875 10.402344 C 14.578125 10.304688 14.445312 10.65625 14.296875 10.550781 C 14.273438 10.589844 14.234375 10.617188 14.207031 10.664062 L 14.183594 10.597656 C 14.082031 10.625 13.992188 10.664062 13.90625 10.722656 L 13.90625 10.664062 C 13.832031 10.699219 13.90625 10.886719 13.847656 10.925781 L 13.78125 10.84375 C 13.660156 10.902344 13.503906 10.894531 13.429688 11.035156 C 13.429688 11.027344 13.414062 10.992188 13.429688 10.976562 C 13.445312 10.960938 13.183594 11.035156 13.273438 11.148438 C 13.226562 11.074219 13.152344 11.214844 13.109375 11.28125 L 13.085938 11.214844 C 13.078125 11.320312 13.085938 11.34375 13.019531 11.402344 C 12.953125 11.460938 12.988281 11.378906 13.003906 11.371094 C 13.019531 11.363281 12.996094 11.453125 12.914062 11.460938 L 12.914062 11.402344 C 12.855469 11.433594 12.871094 11.453125 12.863281 11.515625 C 12.808594 11.574219 12.753906 11.574219 12.699219 11.515625 C 12.710938 11.550781 12.699219 11.617188 12.660156 11.617188 C 12.648438 11.601562 12.644531 11.589844 12.652344 11.574219 C 12.527344 11.589844 12.546875 11.730469 12.445312 11.714844 L 12.414062 11.679688 C 12.457031 11.652344 12.503906 11.625 12.554688 11.605469 C 12.519531 11.558594 12.445312 11.582031 12.457031 11.476562 C 12.429688 11.550781 12.398438 11.695312 12.324219 11.707031 L 12.300781 11.707031 L 12.300781 11.6875 C 12.273438 11.695312 12.265625 11.707031 12.265625 11.722656 L 12.203125 11.738281 C 12.167969 11.695312 12.121094 11.761719 12.085938 11.777344 C 12.054688 11.796875 12.078125 11.851562 12.144531 11.878906 C 12.210938 11.902344 12.144531 11.859375 12.167969 11.851562 L 12.167969 11.8125 L 12.242188 11.753906 C 12.234375 11.804688 12.226562 11.84375 12.167969 11.828125 C 12.175781 11.867188 12.183594 11.910156 12.183594 11.949219 C 12.09375 11.902344 11.980469 11.902344 11.9375 11.859375 C 11.867188 11.949219 11.726562 12.023438 11.742188 12.171875 C 11.757812 12.320312 11.683594 12.15625 11.667969 12.148438 C 11.652344 12.140625 11.691406 12.113281 11.691406 12.097656 C 11.691406 12.082031 11.539062 12.207031 11.578125 12.296875 C 11.488281 12.304688 11.570312 12.195312 11.488281 12.269531 L 11.488281 12.238281 C 11.226562 12.238281 11.332031 12.632812 11.03125 12.613281 L 11.070312 12.613281 C 10.9375 12.667969 10.820312 12.746094 10.71875 12.84375 C 10.617188 12.945312 10.496094 13.019531 10.359375 13.058594 C 10.277344 13.082031 10.308594 13.128906 10.292969 13.195312 L 10.234375 13.148438 L 10.234375 13.261719 C 10.179688 13.382812 9.964844 13.238281 9.925781 13.417969 L 9.972656 13.449219 C 9.925781 13.476562 9.859375 13.574219 9.824219 13.515625 C 9.792969 13.457031 9.851562 13.574219 9.816406 13.566406 L 9.792969 13.53125 L 9.726562 13.664062 C 9.636719 13.703125 9.644531 13.53125 9.53125 13.613281 C 9.417969 13.695312 9.480469 13.792969 9.507812 13.800781 C 9.539062 13.785156 9.570312 13.789062 9.597656 13.820312 L 9.570312 13.859375 C 9.628906 13.957031 9.679688 14.074219 9.816406 14.066406 L 9.84375 13.957031 L 9.898438 13.984375 L 9.84375 14.03125 C 9.90625 14.046875 9.898438 13.992188 9.898438 13.949219 C 9.917969 13.96875 9.9375 13.980469 9.964844 13.984375 L 9.964844 13.859375 C 9.996094 13.890625 9.988281 13.949219 10.046875 13.941406 C 10.105469 13.933594 9.957031 13.882812 9.988281 13.820312 C 10.023438 13.753906 10.070312 13.875 10.078125 13.8125 C 10.101562 13.828125 10.105469 13.851562 10.097656 13.875 C 10.113281 13.820312 10.179688 13.792969 10.152344 13.738281 C 10.128906 13.679688 10.25 13.636719 10.316406 13.730469 C 10.3125 13.679688 10.320312 13.632812 10.351562 13.589844 C 10.375 13.738281 10.464844 13.507812 10.539062 13.628906 C 10.503906 13.507812 10.652344 13.476562 10.6875 13.367188 C 10.71875 13.261719 10.6875 13.402344 10.675781 13.402344 C 10.667969 13.402344 10.757812 13.394531 10.800781 13.394531 C 10.839844 13.394531 10.800781 13.253906 10.800781 13.179688 C 10.800781 13.105469 10.832031 13.292969 10.898438 13.351562 C 10.964844 13.410156 10.949219 13.230469 10.890625 13.1875 C 10.964844 13.203125 10.941406 13.1875 11.003906 13.238281 C 10.949219 13.140625 11.03125 13.195312 11.023438 13.113281 C 11.011719 13.03125 11.105469 13.195312 11.144531 13.121094 C 11.183594 13.046875 11.160156 13.203125 11.160156 13.203125 C 11.160156 13.203125 11.144531 13.113281 11.128906 13.058594 C 11.113281 13 11.203125 13.089844 11.25 13.113281 C 11.300781 13.140625 11.277344 12.96875 11.308594 12.941406 C 11.339844 12.917969 11.332031 12.949219 11.332031 12.976562 C 11.332031 13 11.480469 12.867188 11.488281 12.753906 L 11.503906 12.769531 C 11.476562 12.738281 11.453125 12.707031 11.429688 12.671875 C 11.457031 12.648438 11.449219 12.582031 11.496094 12.632812 C 11.546875 12.679688 11.488281 12.65625 11.488281 12.679688 L 11.503906 12.640625 C 11.578125 12.6875 11.480469 12.6875 11.511719 12.746094 C 11.5625 12.679688 11.585938 12.574219 11.644531 12.566406 C 11.703125 12.558594 11.554688 12.65625 11.660156 12.679688 L 11.570312 12.695312 C 11.703125 12.769531 11.519531 12.722656 11.652344 12.804688 C 11.785156 12.886719 11.726562 12.695312 11.832031 12.65625 C 11.9375 12.613281 11.792969 12.605469 11.785156 12.558594 C 11.773438 12.507812 12.003906 12.664062 12.039062 12.507812 C 12.070312 12.351562 11.988281 12.351562 12.085938 12.351562 L 12.121094 12.449219 C 12.210938 12.402344 12.09375 12.304688 12.226562 12.296875 C 12.226562 12.335938 12.167969 12.367188 12.191406 12.367188 C 12.21875 12.367188 12.203125 12.296875 12.25 12.269531 L 12.308594 12.335938 C 12.398438 12.261719 12.472656 12.140625 12.570312 12.066406 C 12.667969 11.992188 12.570312 12.125 12.609375 12.132812 C 12.667969 12.070312 12.738281 12.023438 12.816406 11.992188 C 12.894531 11.964844 12.976562 11.941406 13.0625 11.925781 L 13.078125 11.835938 C 13.09375 11.828125 13.117188 11.851562 13.109375 11.871094 C 13.101562 11.886719 13.09375 11.828125 13.101562 11.796875 C 13.109375 11.761719 13.160156 11.804688 13.152344 11.835938 C 13.21875 11.730469 13.347656 11.574219 13.488281 11.582031 L 13.488281 11.617188 C 13.578125 11.597656 13.496094 11.433594 13.601562 11.460938 L 13.601562 11.476562 C 13.78125 11.410156 13.929688 11.246094 14.109375 11.289062 C 14.085938 11.179688 14.296875 11.246094 14.242188 11.109375 C 14.371094 11.125 14.355469 11.164062 14.511719 11.140625 C 14.667969 11.117188 14.527344 11.027344 14.558594 10.992188 L 14.601562 11.058594 L 14.625 10.960938 L 14.699219 11.027344 L 14.734375 10.984375 C 14.703125 10.992188 14.683594 10.980469 14.675781 10.953125 C 14.742188 10.894531 14.804688 10.894531 14.871094 10.953125 L 15.003906 10.820312 C 15.011719 10.835938 14.996094 10.863281 14.988281 10.878906 C 14.976562 10.894531 15.027344 10.953125 15.066406 10.863281 C 15.109375 10.773438 15.058594 10.820312 15.050781 10.804688 C 15.132812 10.820312 15.199219 10.796875 15.257812 10.738281 L 15.257812 10.796875 C 15.382812 10.738281 15.507812 10.671875 15.625 10.597656 C 15.566406 10.597656 15.542969 10.519531 15.574219 10.492188 L 15.625 10.558594 C 15.625 10.5 15.566406 10.542969 15.59375 10.46875 C 15.617188 10.394531 15.667969 10.535156 15.648438 10.574219 L 15.699219 10.519531 C 15.707031 10.542969 15.699219 10.558594 15.707031 10.589844 C 15.714844 10.625 15.847656 10.617188 15.847656 10.519531 L 15.863281 10.542969 C 15.957031 10.492188 16.050781 10.4375 16.140625 10.378906 C 16.117188 10.3125 16.164062 10.3125 16.175781 10.246094 C 16.183594 10.183594 16.378906 10.246094 16.46875 10.207031 C 16.558594 10.164062 16.46875 10.140625 16.484375 10.089844 C 16.5 10.042969 16.609375 10.109375 16.574219 10.164062 C 16.675781 10.125 16.765625 10.066406 16.847656 9.992188 C 16.820312 9.976562 16.796875 9.976562 16.796875 9.953125 C 16.796875 9.929688 16.871094 9.953125 16.878906 9.976562 L 16.871094 9.976562 C 17 9.828125 17.3125 10 17.402344 9.828125 L 17.394531 9.828125 L 17.507812 9.722656 C 17.574219 9.707031 17.492188 9.78125 17.550781 9.796875 C 17.664062 9.648438 17.789062 9.730469 17.886719 9.625 C 18.042969 9.765625 18.222656 9.492188 18.386719 9.566406 L 18.371094 9.527344 C 18.386719 9.476562 18.410156 9.535156 18.441406 9.535156 C 18.476562 9.535156 18.394531 9.511719 18.410156 9.484375 C 18.546875 9.410156 18.691406 9.371094 18.84375 9.363281 C 19 9.347656 19.164062 9.347656 19.3125 9.320312 C 19.457031 9.296875 19.3125 9.085938 19.476562 9.140625 L 19.457031 9.230469 C 19.554688 9.164062 19.65625 9.117188 19.769531 9.09375 C 19.886719 9.082031 19.992188 9.046875 20.089844 8.984375 C 20.082031 9.003906 20.089844 9.027344 20.074219 9.035156 C 20.058594 9.042969 20.238281 8.992188 20.230469 8.953125 C 20.222656 8.910156 20.246094 8.984375 20.269531 9.011719 C 20.292969 9.035156 20.367188 8.902344 20.402344 8.960938 C 20.433594 9.019531 20.394531 8.976562 20.382812 8.984375 C 20.375 8.992188 20.523438 8.960938 20.484375 8.902344 C 20.574219 8.910156 20.628906 8.839844 20.703125 8.855469 C 20.777344 8.871094 20.851562 8.863281 20.835938 8.757812 C 20.859375 8.863281 21 8.804688 21.039062 8.75 C 21.082031 8.691406 21.089844 8.773438 21.082031 8.820312 C 21.074219 8.871094 21.1875 8.78125 21.164062 8.722656 C 21.300781 8.832031 21.359375 8.578125 21.457031 8.730469 C 21.605469 8.644531 21.761719 8.570312 21.925781 8.511719 C 21.933594 8.625 21.753906 8.558594 21.777344 8.667969 C 21.917969 8.59375 21.988281 8.484375 22.136719 8.484375 C 22.285156 8.484375 22.121094 8.535156 22.113281 8.558594 C 22.253906 8.476562 22.40625 8.519531 22.53125 8.4375 C 22.652344 8.355469 22.515625 8.460938 22.507812 8.476562 C 22.496094 8.496094 22.5625 8.476562 22.554688 8.429688 L 22.53125 8.453125 C 22.480469 8.378906 22.613281 8.28125 22.613281 8.25 C 22.589844 8.394531 22.75 8.265625 22.703125 8.453125 C 22.726562 8.433594 22.738281 8.410156 22.734375 8.378906 C 22.761719 8.386719 22.769531 8.402344 22.75 8.445312 C 22.734375 8.484375 22.800781 8.355469 22.882812 8.347656 C 22.878906 8.371094 22.875 8.390625 22.867188 8.414062 C 22.898438 8.355469 22.941406 8.304688 23.015625 8.3125 C 23.085938 8.324219 23.023438 8.347656 22.996094 8.347656 C 23.121094 8.324219 23.195312 8.191406 23.332031 8.214844 C 23.308594 8.332031 23.390625 8.25 23.40625 8.339844 L 23.472656 8.296875 L 23.441406 8.257812 C 23.503906 8.257812 23.554688 8.183594 23.613281 8.207031 L 23.570312 8.25 L 23.6875 8.222656 L 23.613281 8.191406 C 23.675781 8.140625 23.59375 8.078125 23.6875 8.09375 C 23.777344 8.109375 23.75 8.09375 23.792969 8.140625 L 23.785156 8.140625 C 23.816406 8.109375 23.851562 8.078125 23.898438 8.09375 C 23.949219 8.109375 23.898438 8.191406 23.90625 8.214844 C 23.914062 8.242188 24.054688 8.175781 24.085938 8.09375 C 24.078125 8.117188 24.078125 8.140625 24.085938 8.167969 L 24.105469 8.101562 C 24.136719 8.117188 24.144531 8.125 24.144531 8.167969 C 24.144531 8.207031 24.105469 8.050781 24.210938 8.09375 C 24.316406 8.132812 24.210938 8.109375 24.195312 8.117188 C 24.175781 8.125 24.398438 8.058594 24.496094 8.085938 C 24.59375 8.109375 24.414062 8.109375 24.457031 8.183594 C 24.527344 8.164062 24.601562 8.140625 24.667969 8.109375 C 24.734375 8.078125 24.800781 8.0625 24.875 8.058594 L 24.847656 8.058594 C 24.855469 7.929688 24.957031 8.125 25.019531 8.058594 C 25.085938 7.996094 25.003906 8.132812 25.011719 8.117188 C 25.019531 8.101562 25.203125 8.078125 25.339844 8.027344 L 25.324219 8.058594 C 25.390625 8.074219 25.460938 8.082031 25.527344 8.085938 C 25.546875 8.042969 25.578125 8.050781 25.5625 8.003906 C 25.75 8.183594 25.90625 7.878906 26.078125 8.035156 C 26.0625 8.035156 26.027344 8.070312 26.046875 8.070312 L 26.183594 8.035156 C 26.175781 7.976562 26.167969 8.003906 26.136719 7.960938 C 26.152344 7.921875 26.183594 7.898438 26.226562 7.894531 C 26.167969 7.9375 26.234375 7.988281 26.257812 8.019531 C 26.28125 8.050781 26.265625 7.988281 26.257812 7.96875 C 26.25 7.953125 26.265625 7.855469 26.371094 7.921875 L 26.371094 7.945312 C 26.414062 7.9375 26.445312 7.894531 26.488281 7.90625 C 26.527344 7.914062 26.445312 7.929688 26.445312 7.988281 C 26.445312 8.042969 26.554688 7.863281 26.609375 7.929688 L 26.527344 7.960938 C 26.578125 8.042969 26.585938 8.019531 26.625 8.035156 L 26.726562 8.070312 L 26.699219 8.042969 C 26.765625 7.871094 26.839844 8.011719 26.9375 7.90625 C 26.839844 8.011719 26.921875 7.960938 26.914062 8.035156 C 26.90625 8.109375 26.96875 8.078125 26.960938 8.101562 C 26.953125 8.125 27.035156 8.148438 27.101562 8.058594 C 27.167969 7.96875 27.152344 8.058594 27.144531 8.125 C 27.132812 8.191406 27.125 8.078125 27.132812 8.050781 C 27.144531 8.027344 27.339844 8.160156 27.46875 8.050781 C 27.601562 7.945312 27.609375 7.929688 27.714844 7.886719 C 27.824219 7.847656 27.683594 7.976562 27.683594 7.976562 C 27.734375 8.011719 27.785156 8.015625 27.839844 7.988281 C 27.824219 8.003906 27.839844 8.019531 27.847656 8.050781 C 27.855469 8.085938 27.878906 7.960938 27.9375 8.003906 C 27.925781 8.035156 27.910156 8.066406 27.886719 8.09375 C 27.941406 8.070312 27.996094 8.042969 28.042969 8.011719 C 28.050781 8.070312 28.003906 8.085938 27.988281 8.109375 Z M 12.175781 11.753906 C 12.175781 11.738281 12.167969 11.730469 12.167969 11.714844 C 12.183594 11.691406 12.195312 11.691406 12.210938 11.714844 Z M 12.535156 12.066406 L 12.570312 12.042969 Z M 12.636719 11.992188 C 12.617188 11.976562 12.609375 11.949219 12.628906 11.941406 C 12.644531 11.933594 12.667969 11.960938 12.691406 11.960938 Z M 22.390625 8.070312 L 22.375 8.085938 C 22.382812 8.078125 22.398438 8.078125 22.390625 8.070312 Z M 28.125 7.988281 Z M 20.476562 8.421875 Z M 26.617188 8.042969 L 26.675781 8.070312 Z M 23.6875 8.199219 C 23.710938 8.210938 23.730469 8.207031 23.75 8.191406 C 23.726562 8.191406 23.710938 8.183594 23.6875 8.199219 Z M 27.855469 8.085938 C 27.855469 8.097656 27.851562 8.109375 27.839844 8.117188 C 27.847656 8.117188 27.855469 8.117188 27.855469 8.109375 C 27.863281 8.101562 27.863281 8.09375 27.855469 8.085938 Z M 26.257812 8.027344 C 26.257812 8.035156 26.261719 8.039062 26.265625 8.042969 Z M 26.898438 8.078125 C 26.902344 8.066406 26.90625 8.054688 26.90625 8.042969 Z M 24.40625 8.199219 L 24.40625 8.132812 L 24.359375 8.160156 Z M 27.742188 8.09375 L 27.742188 8.117188 C 27.738281 8.109375 27.738281 8.101562 27.742188 8.09375 Z M 17.722656 9.117188 C 17.796875 9.15625 17.65625 9.222656 17.761719 9.265625 C 17.871094 9.304688 17.804688 9.132812 17.722656 9.117188 Z M 27.625 8.101562 C 27.652344 8.101562 27.691406 8.148438 27.722656 8.140625 L 27.722656 8.117188 C 27.714844 8.160156 27.652344 8.050781 27.625 8.101562 Z M 27.839844 8.117188 Z M 14.601562 11.074219 L 14.601562 11.082031 Z M 23.75 8.191406 C 23.777344 8.199219 23.792969 8.191406 23.785156 8.160156 Z M 10.332031 13.738281 Z M 9.570312 13.882812 L 9.578125 13.882812 L 9.554688 13.859375 Z M 14.730469 10.96875 L 14.730469 10.984375 C 14.730469 10.984375 14.730469 10.976562 14.730469 10.96875 Z M 22.507812 8.496094 L 22.496094 8.496094 C 22.472656 8.511719 22.488281 8.503906 22.507812 8.496094 Z M 21.082031 8.839844 Z M 20.761719 8.910156 L 20.703125 8.871094 C 20.703125 8.878906 20.695312 8.886719 20.695312 8.894531 Z M 21.074219 8.839844 Z M 21.074219 8.839844 " fill-opacity="1" fill-rule="nonzero"/></g></svg>